<svg width="122" height="32" viewBox="0 0 122 32" fill="none" xmlns="http://www.w3.org/2000/svg">
<g clip-path="url(#clip0_620_967)">
<path d="M5.54375 31.1679L3.44612 6.73691C3.109 3.30476 2.06018 1.2381 0 0.905952L0.149831 0.5H13.5597L13.4099 0.905952C10.9002 1.20119 9.73902 2.75119 9.96377 6.07262L11.1999 23.6024L20.4145 9.65238C24.1228 4.00595 23.2613 1.3119 19.9275 0.905952L20.0774 0.5H31.015L30.9401 0.905952C28.4679 1.2381 25.8084 3.41548 22.1375 8.95119L7.26681 31.1679H5.58121H5.54375Z" fill="#1F1F1F"/>
<path d="M23.5984 23.7131C23.5984 16.9226 29.9288 10.3905 36.5963 10.3905C39.7427 10.3905 41.6531 11.6821 41.6531 13.8226C41.6531 17.2179 36.6337 21.2774 28.9923 22.2738C29.1796 25.7798 31.2398 27.5512 34.4986 27.5512C36.5213 27.5512 38.4317 26.7762 40.1547 25.0048L40.5293 25.1893C38.2444 29.4702 34.6484 31.5369 31.2398 31.5369C27.1194 31.5369 23.5984 28.6214 23.5984 23.75V23.7131ZM29.0298 21.5726C33.8993 20.7976 37.0832 16.7381 37.0832 13.3429C37.0832 11.9405 36.4839 11.1655 35.5474 11.1655C32.9254 11.1655 29.0298 16.7012 29.0298 21.5726Z" fill="#1F1F1F"/>
<path d="M67.6488 25.7059L70.5705 16.2583C71.0949 14.45 70.6454 13.4167 69.6715 13.4167C68.6976 13.4167 66.8622 14.5976 64.4274 17.1071L60.4943 30.8357H54.6135L58.7338 16.2952C59.3331 14.3762 58.7713 13.3798 57.8348 13.3798C56.786 13.3798 55.0255 14.5607 52.5158 17.2179L48.7326 30.7988H42.8143L46.9721 16.0738C47.6838 13.5274 46.5975 12.6417 44.6122 12.7893L44.6871 12.3833L54.0516 10.5381L54.3512 10.6857L52.8529 15.9262C56.6362 11.9774 59.6703 10.3905 61.8053 10.3905C64.2401 10.3905 65.5511 12.3833 64.7271 15.8893C68.3979 12.0881 71.3945 10.3905 73.6045 10.3905C76.1891 10.3905 77.5751 12.7155 76.3764 16.4798L73.4547 25.8905C72.7805 27.9571 73.1551 28.8059 73.9791 28.8059C74.8032 28.8059 76.0393 27.994 77.3503 26.3702L77.7998 26.7762C75.4025 29.7286 72.5932 31.2786 70.3083 31.2786C68.0233 31.2786 66.4127 29.6179 67.6113 25.7429L67.6488 25.7059Z" fill="#1F1F1F"/>
<path d="M93.0077 25.9643C89.4117 29.7655 86.3402 31.4631 83.9429 31.4631C81.171 31.4631 79.8974 29.3595 81.0586 25.3738L83.868 16.1107C84.6546 13.5643 83.4934 12.6786 81.583 12.8262L81.658 12.4203L90.9475 10.575L91.2472 10.7226L89.6739 16.2583L86.9021 25.4476C86.3776 27.2929 86.8271 28.4369 88.0258 28.4369C89.2244 28.4369 90.8351 27.4405 93.3822 24.5988L95.817 16.1476C96.5662 13.6012 95.5173 12.7155 93.6819 12.8631L93.7568 12.4572L102.934 10.6119L103.234 10.7595L101.698 16.1476L98.8136 26.1488C98.2143 28.1048 98.514 28.8798 99.3006 28.8798C100.087 28.8798 101.361 28.1048 102.672 26.4441L103.159 26.85C100.687 29.8393 97.9521 31.3524 95.6672 31.3524C93.195 31.3524 91.8839 29.6917 92.8953 26.075L93.0077 25.9643Z" fill="#1F1F1F"/>
<path d="M104.245 27.9202C104.245 26.6286 105.219 25.669 106.642 25.669C107.803 25.669 108.665 26.4071 109.002 27.5881C109.452 29.0274 109.452 30.7619 111.587 30.7619C113.347 30.7619 114.92 29.544 114.92 27.8464C114.92 26.1488 113.385 24.7833 111.699 23.2702C109.714 21.4988 107.541 19.5059 107.541 16.6274C107.541 13.3798 110.613 10.3905 115.819 10.3905C119.94 10.3905 122 12.1619 122 13.9333C122 15.1881 120.951 16.1476 119.678 16.1476C118.516 16.1476 117.692 15.4464 117.28 14.4131C116.756 13.0845 116.831 11.2024 114.658 11.2024C112.935 11.2024 111.737 12.2726 111.737 13.8595C111.737 15.6309 113.31 17.0702 115.033 18.5464C117.205 20.3917 119.603 22.3845 119.603 25.2631C119.603 28.7321 116.082 31.5 110.838 31.5C106.492 31.5 104.245 29.8024 104.245 27.9571V27.9202Z" fill="#1F1F1F"/>
</g>
<defs>
<clipPath id="clip0_620_967">
<rect width="122" height="31" fill="white" transform="translate(0 0.5)"/>
</clipPath>
</defs>
</svg>
