<svg width="1422" height="185" viewBox="0 0 1422 185" fill="none" xmlns="http://www.w3.org/2000/svg">
<path d="M1311.85 163.854C1328.22 170.615 1343.16 177.375 1356.68 184.136C1370.21 190.541 1381.77 198.013 1391.38 206.553C1400.98 214.736 1408.28 224.343 1413.26 235.374C1418.6 246.048 1421.27 259.036 1421.27 274.336C1421.27 286.79 1419.13 299.065 1414.86 311.163C1410.59 323.261 1404.01 334.113 1395.11 343.72C1386.22 353.328 1374.83 361.156 1360.95 367.204C1347.08 372.898 1330.53 375.744 1311.32 375.744C1298.86 375.744 1286.23 374.143 1273.42 370.941C1260.97 367.738 1249.41 363.113 1238.73 357.064C1228.41 350.659 1219.87 342.831 1213.11 333.58C1206.71 324.328 1203.51 313.476 1203.51 301.022C1203.51 290.704 1205.28 282.164 1208.84 275.403C1212.76 268.287 1217.38 262.772 1222.72 258.858C1228.41 254.944 1234.46 252.631 1240.87 251.919C1247.63 250.852 1253.85 251.208 1259.55 252.987C1265.24 254.766 1269.69 258.324 1272.89 263.661C1276.45 268.643 1278.4 274.158 1278.76 280.207C1279.12 286.256 1277.69 292.305 1274.49 298.354C1271.29 304.403 1265.77 309.206 1257.95 312.764C1249.76 316.678 1244.96 321.838 1243.53 328.242C1242.47 334.291 1244.25 340.34 1248.87 346.389C1253.85 352.082 1261.5 357.064 1271.82 361.333C1282.5 365.603 1295.66 367.738 1311.32 367.738C1325.91 367.738 1337.65 364.892 1346.54 359.199C1355.8 353.505 1362.38 346.211 1366.29 337.316C1370.56 328.064 1372.34 317.924 1371.63 306.893C1370.92 295.507 1368.07 284.477 1363.09 273.802C1358.46 262.772 1351.7 252.453 1342.81 242.846C1333.91 233.239 1323.24 225.589 1310.78 219.896C1296.2 213.135 1282.5 206.375 1269.69 199.614C1256.88 192.498 1245.67 184.492 1236.06 175.596C1226.46 166.701 1218.81 156.56 1213.11 145.174C1207.77 133.788 1205.11 120.267 1205.11 104.611C1205.11 89.6662 1207.6 75.9672 1212.58 63.5136C1217.56 50.7041 1224.5 39.6737 1233.39 30.4225C1242.65 20.8154 1253.5 13.3432 1265.95 8.00593C1278.76 2.66864 1292.99 0 1308.65 0C1325.37 0 1340.32 2.49073 1353.48 7.47218C1367 12.4536 1378.39 19.0363 1387.64 27.2201C1396.89 35.0481 1404.01 44.1215 1408.99 54.4402C1413.97 64.7589 1416.46 75.0777 1416.46 85.3964C1416.46 95.7151 1415.04 104.255 1412.19 111.015C1409.35 117.776 1405.61 123.113 1400.98 127.027C1396.71 130.941 1391.91 133.61 1386.57 135.033C1381.24 136.101 1376.25 136.101 1371.63 135.033C1366.29 133.61 1361.31 130.763 1356.68 126.493C1352.06 121.868 1348.86 116.708 1347.08 111.015C1345.65 104.966 1346.01 98.7396 1348.15 92.3349C1350.28 85.5743 1355.26 79.3475 1363.09 73.6544C1369.85 68.6729 1374.12 62.4461 1375.9 54.9739C1377.68 47.5018 1376.43 40.3854 1372.16 33.6248C1368.25 26.5085 1360.95 20.4596 1350.28 15.4781C1339.96 10.4967 1326.08 8.00593 1308.65 8.00593C1294.06 8.00593 1281.96 11.2083 1272.36 17.613C1263.1 23.6619 1256.34 31.4899 1252.07 41.097C1247.8 50.7041 1245.85 61.5566 1246.2 73.6544C1246.56 85.3964 1249.23 97.1384 1254.21 108.88C1259.55 120.267 1267.02 130.941 1276.63 140.904C1286.23 150.867 1297.97 158.517 1311.85 163.854Z" fill="white" fill-opacity="0.05"/>
<path d="M1185.73 21.3492C1177.55 21.3492 1171.5 23.3062 1167.59 27.2202C1164.03 30.7784 1161.36 34.6924 1159.58 38.9622C1157.8 43.9436 1156.91 49.6367 1156.91 56.0415L1157.98 266.864C1157.98 283.943 1155.49 299.243 1150.51 312.764C1145.88 325.93 1139.12 337.316 1130.23 346.923C1121.33 356.174 1110.83 363.291 1098.74 368.272C1086.64 372.898 1073.12 375.21 1058.17 375.21C1046.79 375.21 1034.15 374.499 1020.28 373.076C1006.76 371.652 993.947 367.56 981.849 360.8C970.107 353.683 960.144 342.831 951.961 328.242C943.777 313.654 939.685 293.194 939.685 266.864V68.8509C939.685 64.5811 939.685 59.7776 939.685 54.4403C940.041 49.103 940.041 43.9436 939.685 38.9622C939.329 33.9807 938.262 29.8888 936.483 26.6864C935.059 23.1283 932.746 21.3492 929.544 21.3492C926.697 21.3492 924.563 20.6375 923.139 19.2143C921.716 17.4352 921.004 15.6561 921.004 13.877C921.004 11.7421 921.716 9.963 923.139 8.53973C924.563 6.76064 926.697 5.87109 929.544 5.87109H1002.13C1004.62 5.87109 1006.58 6.76064 1008 8.53973C1009.78 9.963 1010.67 11.7421 1010.67 13.877C1010.67 15.6561 1009.96 17.4352 1008.54 19.2143C1007.11 20.6375 1004.98 21.3492 1002.13 21.3492C998.929 21.3492 996.438 23.1283 994.659 26.6864C993.235 29.8888 992.168 33.9807 991.456 38.9622C991.101 43.9436 990.923 49.103 990.923 54.4403C991.278 59.7776 991.456 64.5811 991.456 68.8509V266.864C991.456 301.378 996.972 326.819 1008 343.187C1019.03 359.199 1035.76 367.205 1058.17 367.205C1074.54 367.205 1088.24 364.002 1099.27 357.597C1110.66 351.193 1119.55 343.187 1125.96 333.58C1132.72 323.617 1137.52 312.764 1140.37 301.022C1143.21 289.28 1144.64 277.894 1144.64 266.864V56.0415C1144.64 49.6367 1143.75 43.9436 1141.97 38.9622C1140.19 34.6924 1137.34 30.7784 1133.43 27.2202C1129.87 23.3062 1124.35 21.3492 1116.88 21.3492C1114.75 21.3492 1112.97 20.6375 1111.55 19.2143C1110.12 17.4352 1109.41 15.4782 1109.41 13.3433C1109.41 8.36182 1111.9 5.87109 1116.88 5.87109H1185.73C1187.87 5.87109 1189.65 6.58273 1191.07 8.00601C1192.85 9.42926 1193.74 11.2084 1193.74 13.3433C1193.74 15.4782 1192.85 17.4352 1191.07 19.2143C1189.65 20.6375 1187.87 21.3492 1185.73 21.3492Z" fill="white" fill-opacity="0.05"/>
<path d="M879.912 355.464C883.115 355.464 885.249 356.353 886.317 358.132C887.74 359.556 888.452 361.335 888.452 363.47C888.452 365.249 887.562 367.028 885.783 368.807C884.36 370.23 882.403 370.942 879.912 370.942H807.859C805.012 370.942 802.878 370.23 801.454 368.807C800.031 367.028 799.319 365.249 799.319 363.47C799.319 361.335 799.853 359.556 800.921 358.132C802.344 356.353 804.657 355.464 807.859 355.464C810.705 355.464 812.84 353.862 814.264 350.66C815.687 347.458 816.576 343.544 816.932 338.918C817.644 333.937 818 328.777 818 323.44C818 318.103 818 313.299 818 309.029V69.3857L723.53 365.071C723.174 366.85 722.463 368.451 721.395 369.874C719.616 373.077 717.303 374.678 714.457 374.678C710.543 374.678 707.696 373.077 705.917 369.874C704.85 368.451 704.138 366.672 703.782 364.537C702.715 361.335 700.58 354.752 697.377 344.789C694.531 334.826 690.795 322.728 686.169 308.496C681.543 293.907 676.384 278.073 670.691 260.994C665.354 243.559 659.839 226.124 654.145 208.689C648.452 190.898 642.937 173.64 637.6 156.917C632.618 140.194 627.993 125.427 623.723 112.618C619.453 99.8082 616.073 89.4894 613.582 81.6614C611.091 73.8334 609.846 69.7415 609.846 69.3857V331.446C609.846 334.292 610.202 337.317 610.914 340.519C611.625 343.366 612.87 346.034 614.65 348.525C616.784 350.66 619.631 352.617 623.189 354.396C626.747 355.819 631.373 356.531 637.066 356.531C638.845 356.531 640.446 357.243 641.87 358.666C643.649 360.089 644.538 361.868 644.538 364.003C644.538 366.138 643.649 367.917 641.87 369.341C640.446 370.408 638.845 370.942 637.066 370.942H572.485C567.504 370.942 565.013 368.451 565.013 363.47C565.013 361.69 565.725 360.089 567.148 358.666C568.571 356.887 570.35 355.997 572.485 355.997C583.516 355.997 590.632 353.329 593.834 347.991C597.392 342.298 599.172 336.605 599.172 330.912V38.4295C598.46 35.2271 597.037 32.2027 594.902 29.3561C593.123 27.2212 590.454 25.2642 586.896 23.4851C583.693 21.3502 579.068 20.2828 573.019 20.2828C568.037 20.2828 565.547 17.792 565.547 12.8106C565.547 7.82912 568.037 5.33838 573.019 5.33838H637.066C641.336 5.33838 644.716 6.22793 647.207 8.00705C650.053 9.4303 652.366 11.0315 654.145 12.8106C655.925 14.9455 657.348 17.4362 658.415 20.2828L736.873 277.006L815.865 22.9514C816.577 19.749 817.822 16.9025 819.601 14.4118C821.024 12.2769 822.981 10.3199 825.472 8.54077C827.963 6.40584 831.165 5.33838 835.079 5.33838H879.912C884.894 5.33838 887.384 7.82912 887.384 12.8106C887.384 17.792 884.894 20.2828 879.912 20.2828C877.066 20.2828 874.931 21.3502 873.507 23.4851C872.44 25.62 871.55 28.4666 870.839 32.0248C870.483 35.2271 870.127 38.7853 869.771 42.6993C869.771 46.6133 869.771 50.5273 869.771 54.4413V309.029C869.771 313.299 869.771 318.103 869.771 323.44C869.771 328.777 870.127 333.937 870.839 338.918C871.55 343.544 872.44 347.458 873.507 350.66C874.931 353.862 877.066 355.464 879.912 355.464Z" fill="white" fill-opacity="0.05"/>
<path d="M518.377 5.33838C522.291 5.33838 524.96 6.40584 526.383 8.54077C527.807 10.3199 528.518 12.8106 528.518 16.0129V76.3241C528.518 78.4591 527.629 80.4161 525.85 82.1952C524.426 83.6184 522.647 84.3301 520.512 84.3301C518.377 84.3301 516.598 83.6184 515.175 82.1952C513.752 80.4161 513.04 78.4591 513.04 76.3241C513.04 67.0729 512.862 58.7112 512.506 51.239C512.151 43.411 509.66 36.8283 505.034 31.491C500.409 25.798 492.581 21.5281 481.55 18.6816C470.876 15.4792 455.042 13.878 434.048 13.878H376.94V176.131H421.773C424.619 176.131 428.711 175.953 434.048 175.597C439.742 175.242 445.435 173.996 451.128 171.861C456.821 169.726 461.624 166.168 465.538 161.187C469.808 156.205 471.943 149.089 471.943 139.838C471.943 134.856 474.434 132.366 479.415 132.366C481.55 132.366 483.329 133.077 484.753 134.5C486.532 135.924 487.421 137.703 487.421 139.838V220.964C487.421 223.099 486.532 225.056 484.753 226.835C483.329 228.259 481.55 228.97 479.415 228.97C477.28 228.97 475.501 228.259 474.078 226.835C472.655 225.056 471.943 223.099 471.943 220.964C471.943 211.713 469.808 204.597 465.538 199.615C461.624 194.634 456.821 191.076 451.128 188.941C445.435 186.806 439.742 185.56 434.048 185.205C428.711 184.849 424.619 184.671 421.773 184.671H376.94V362.402H434.048C455.042 362.402 470.876 360.979 481.55 358.132C492.581 354.93 500.409 350.66 505.034 345.323C509.66 339.63 512.151 333.047 512.506 325.575C512.862 317.747 513.04 309.207 513.04 299.956C513.04 294.975 515.531 292.484 520.512 292.484C522.647 292.484 524.426 293.195 525.85 294.619C527.629 296.042 528.518 297.821 528.518 299.956V360.267C528.518 363.47 527.807 366.138 526.383 368.273C524.96 370.052 522.291 370.942 518.377 370.942H315.027C312.181 370.942 310.046 370.23 308.622 368.807C307.199 367.028 306.488 365.249 306.488 363.47C306.488 361.335 307.199 359.556 308.622 358.132C310.046 356.353 312.181 355.464 315.027 355.464C317.874 355.464 320.009 353.862 321.432 350.66C322.855 347.102 323.745 343.01 324.101 338.384C324.812 333.403 325.168 328.244 325.168 322.906C325.168 317.569 325.168 312.943 325.168 309.029V54.4413C325.168 46.6133 324.456 39.1411 323.033 32.0248C321.966 24.5526 319.297 20.8165 315.027 20.8165C312.181 20.8165 310.046 20.1049 308.622 18.6816C307.199 16.9025 306.488 15.1234 306.488 13.3443C306.488 11.2094 307.199 9.4303 308.622 8.00705C310.046 6.22793 312.181 5.33838 315.027 5.33838H518.377Z" fill="white" fill-opacity="0.05"/>
<path d="M270.6 5.87213C275.581 5.87213 278.072 8.36286 278.072 13.3443C278.072 18.3258 275.581 20.8165 270.6 20.8165C264.195 20.8165 259.036 22.2398 255.122 25.0863C251.208 27.577 248.183 30.2457 246.048 33.0922C243.558 37.0062 241.601 41.0981 240.177 45.368L159.585 313.299L143.039 362.936C142.327 364.715 141.26 366.672 139.837 368.807C138.769 370.586 136.278 371.475 132.364 371.475C128.806 371.475 126.493 370.586 125.426 368.807C124.359 366.672 123.469 364.715 122.757 362.936C119.911 354.04 115.463 339.985 109.414 320.771C103.721 301.201 97.3164 279.318 90.2 255.123C83.0836 230.927 75.4335 205.842 67.2497 179.867C59.4217 153.537 52.1274 129.519 45.3669 107.814C38.6063 85.7533 32.7353 67.2508 27.7538 52.3064C22.7724 37.362 19.57 28.8224 18.1467 26.6875C14.5886 22.0618 11.5641 19.749 9.07337 19.749H7.47219C2.49073 19.749 0 17.4362 0 12.8106C0 7.82912 2.49073 5.33838 7.47219 5.33838H82.7278C87.3534 5.33838 89.6663 7.82912 89.6663 12.8106C89.6663 17.4362 87.3534 19.749 82.7278 19.749C78.458 19.749 76.3231 22.7735 76.3231 28.8224C75.9672 31.3131 77.2126 38.2516 80.0592 49.6378C82.9057 60.6681 86.6418 74.3671 91.2674 90.7348C95.8931 106.747 101.052 124.538 106.746 144.108C112.794 163.322 118.665 182.358 124.359 201.216C130.052 220.075 135.389 237.688 140.37 254.055C145.708 270.423 149.977 283.766 153.18 294.085L227.902 45.368C228.969 41.4539 229.859 38.0737 230.57 35.2271C231.638 32.0248 231.638 29.3561 230.57 27.2212C229.859 25.0863 227.546 23.4851 223.632 22.4177C220.074 21.3502 214.381 20.8165 206.553 20.8165C201.571 20.8165 199.08 18.3258 199.08 13.3443C199.08 8.36286 201.571 5.87213 206.553 5.87213H270.6Z" fill="white" fill-opacity="0.05"/>
</svg>
