<svg width="122" height="31" viewBox="0 0 122 31" fill="none" xmlns="http://www.w3.org/2000/svg">
<g clip-path="url(#clip0_620_974)">
<path d="M5.54375 30.6679L3.44612 6.23691C3.109 2.80476 2.06018 0.738095 0 0.405952L0.149831 0H13.5597L13.4099 0.405952C10.9002 0.701191 9.73902 2.25119 9.96377 5.57262L11.1999 23.1024L20.4145 9.15238C24.1228 3.50595 23.2613 0.811905 19.9275 0.405952L20.0774 0H31.015L30.9401 0.405952C28.4679 0.738095 25.8084 2.91548 22.1375 8.45119L7.26681 30.6679H5.58121H5.54375Z" fill="white"/>
<path d="M23.5984 23.2132C23.5984 16.4228 29.9288 9.89062 36.5962 9.89062C39.7427 9.89062 41.653 11.1823 41.653 13.3228C41.653 16.718 36.6337 20.7775 28.9923 21.774C29.1796 25.2799 31.2398 27.0513 34.4986 27.0513C36.5213 27.0513 38.4317 26.2763 40.1547 24.5049L40.5293 24.6894C38.2444 28.9704 34.6484 31.0371 31.2398 31.0371C27.1194 31.0371 23.5984 28.1216 23.5984 23.2501V23.2132ZM29.0298 21.0728C33.8993 20.2978 37.0832 16.2382 37.0832 12.843C37.0832 11.4406 36.4839 10.6656 35.5474 10.6656C32.9254 10.6656 29.0298 16.2013 29.0298 21.0728Z" fill="white"/>
<path d="M67.6487 25.2061L70.5704 15.7585C71.0948 13.9501 70.6453 12.9168 69.6714 12.9168C68.6975 12.9168 66.8621 14.0978 64.4274 16.6073L60.4943 30.3359H54.6134L58.7338 15.7954C59.3331 13.8763 58.7712 12.8799 57.8348 12.8799C56.786 12.8799 55.0254 14.0609 52.5158 16.718L48.7325 30.299H42.8142L46.972 15.574C47.6837 13.0275 46.5974 12.1418 44.6122 12.2894L44.6871 11.8835L54.0515 10.0382L54.3512 10.1859L52.8529 15.4263C56.6361 11.4775 59.6702 9.89062 61.8053 9.89062C64.2401 9.89062 65.5511 11.8835 64.727 15.3894C68.3979 11.5882 71.3945 9.89062 73.6045 9.89062C76.1891 9.89062 77.575 12.2156 76.3764 15.9799L73.4547 25.3906C72.7804 27.4573 73.155 28.3061 73.9791 28.3061C74.8032 28.3061 76.0393 27.4942 77.3503 25.8704L77.7998 26.2763C75.4025 29.2287 72.5931 30.7787 70.3082 30.7787C68.0233 30.7787 66.4126 29.118 67.6113 25.243L67.6487 25.2061Z" fill="white"/>
<path d="M93.0077 25.4645C89.4117 29.2657 86.3402 30.9633 83.9429 30.9633C81.171 30.9633 79.8975 28.8597 81.0586 24.874L83.868 15.6109C84.6546 13.0645 83.4934 12.1788 81.5831 12.3264L81.658 11.9204L90.9475 10.0752L91.2472 10.2228L89.6739 15.7585L86.9021 24.9478C86.3777 26.7931 86.8271 27.9371 88.0258 27.9371C89.2244 27.9371 90.8351 26.9407 93.3823 24.099L95.817 15.6478C96.5662 13.1014 95.5174 12.2157 93.6819 12.3633L93.7568 11.9573L102.934 10.1121L103.234 10.2597L101.698 15.6478L98.8136 25.649C98.2143 27.605 98.514 28.38 99.3006 28.38C100.087 28.38 101.361 27.605 102.672 25.9442L103.159 26.3502C100.687 29.3395 97.9521 30.8526 95.6672 30.8526C93.195 30.8526 91.8839 29.1919 92.8953 25.5752L93.0077 25.4645Z" fill="white"/>
<path d="M104.245 27.4204C104.245 26.1287 105.219 25.1692 106.642 25.1692C107.804 25.1692 108.665 25.9073 109.002 27.0882C109.452 28.5275 109.452 30.2621 111.587 30.2621C113.347 30.2621 114.921 29.0442 114.921 27.3466C114.921 25.649 113.385 24.2835 111.699 22.7704C109.714 20.999 107.541 19.0061 107.541 16.1275C107.541 12.8799 110.613 9.89062 115.82 9.89062C119.94 9.89062 122 11.6621 122 13.4335C122 14.6882 120.951 15.6478 119.678 15.6478C118.517 15.6478 117.692 14.9466 117.28 13.9132C116.756 12.5847 116.831 10.7025 114.658 10.7025C112.935 10.7025 111.737 11.7728 111.737 13.3597C111.737 15.1311 113.31 16.5704 115.033 18.0466C117.206 19.8918 119.603 21.8847 119.603 24.7632C119.603 28.2323 116.082 31.0001 110.838 31.0001C106.493 31.0001 104.245 29.3025 104.245 27.4573V27.4204Z" fill="white"/>
</g>
<defs>
<clipPath id="clip0_620_974">
<rect width="122" height="31" fill="white"/>
</clipPath>
</defs>
</svg>
