<svg width="97" height="97" viewBox="0 0 97 97" fill="none" xmlns="http://www.w3.org/2000/svg">
<circle cx="48.5" cy="48.5" r="48.5" fill="black"/>
<path d="M69 40.987V26.8619C69 26.3859 68.6158 26 68.1418 26C67.893 26 67.6564 26.1085 67.4934 26.2973L44.8533 52.5253C44.6778 52.7287 44.423 52.8455 44.155 52.8455C43.6446 52.8455 43.2308 52.4299 43.2308 51.9173L43.2308 41.5216C43.2308 41.1022 43.0798 40.697 42.8057 40.3806L30.6227 26.3191C30.447 26.1164 30.1925 26 29.9249 26C29.4141 26 29 26.4159 29 26.9289L29 40.2209C29 40.6403 29.151 41.0455 29.4251 41.3619L41.4595 55.2519C41.7336 55.5682 41.8846 55.9735 41.8846 56.3929L41.8846 70.0686C41.8846 70.583 42.2998 71 42.812 71C43.0782 71 43.3316 70.8851 43.5077 70.6845L68.5675 42.1365C68.8462 41.819 69 41.4102 69 40.987Z" fill="white" stroke="url(#paint0_linear_4005_2148)" stroke-width="0.3"/>
<defs>
<linearGradient id="paint0_linear_4005_2148" x1="38.2308" y1="69.125" x2="55.3039" y2="23.9857" gradientUnits="userSpaceOnUse">
<stop/>
<stop offset="1" stop-color="#FEFEFE" stop-opacity="0.4"/>
</linearGradient>
</defs>
</svg>
