<?xml version="1.0" standalone="no"?>
<!DOCTYPE svg PUBLIC "-//W3C//DTD SVG 1.1//EN" "http://www.w3.org/Graphics/SVG/1.1/DTD/svg11.dtd" >
<svg xmlns="http://www.w3.org/2000/svg">
<metadata>Generated by IcoMoon</metadata>
<defs>
<font id="icomoon" horiz-adv-x="1024">
<font-face units-per-em="1024" ascent="960" descent="-64" />
<missing-glyph horiz-adv-x="1024" />
<glyph unicode="&#x20;" horiz-adv-x="512" d="" />
<glyph unicode="&#xe900;" glyph-name="shop-cart" d="M797.053-64h-570.514c-120.686 0-219.428 98.742-219.428 219.426v7.316l21.943 585.144c3.657 120.686 102.4 212.114 219.429 212.114h526.628c117.026 0 215.774-91.428 219.426-212.114l21.948-585.144c3.652-58.516-18.29-113.368-58.516-157.258-40.232-43.884-95.084-69.484-153.6-69.484 0 0-3.658 0-7.316 0zM248.483 886.857c-80.457 0-142.629-62.172-146.286-138.972l-21.943-592.46c0-80.452 65.829-146.284 146.286-146.284h577.83c40.226 0 76.8 18.284 102.4 47.542s40.226 65.832 40.226 106.058l-21.942 585.144c-3.658 80.457-65.826 138.972-146.284 138.972h-530.286zM511.778 521.144c-142.628 0-256 113.372-256 256 0 21.943 14.629 36.572 36.572 36.572s36.572-14.628 36.572-36.572c0-102.4 80.457-182.857 182.857-182.857s182.859 80.457 182.859 182.857c0 21.943 14.626 36.572 36.568 36.572 21.948 0 36.574-14.628 36.574-36.572 0-142.628-113.374-256-256.001-256z" />
<glyph unicode="&#xe901;" glyph-name="location" d="M510.477 960c-228.767 0-414.477-185.71-414.477-414.477 0-119.125 59.441-241.74 134.071-344.697 104.205-143.802 234.521-248.64 234.521-248.64v-0.026c13.006-10.458 29.195-16.16 45.885-16.16s32.879 5.702 45.885 16.16v0.026c0 0 130.317 104.838 234.524 248.64 74.624 102.957 134.067 225.572 134.067 344.697 0 228.767-185.709 414.477-414.476 414.477zM510.477 716.19c94.184 0 170.667-76.483 170.667-170.668s-76.483-170.667-170.667-170.667c-94.184 0-170.668 76.483-170.668 170.667s76.483 170.668 170.668 170.668z" />
<glyph unicode="&#xe902;" glyph-name="phone" d="M969.997 199.104c-42.515 42.522-84.909 85.024-127.411 127.43-33.722 35.43-77.939 35.43-113.37 0-26.522-26.521-53.146-53.036-79.648-79.66-7.098-7.085-12.461-7.085-21.257-3.539-16.005 10.63-35.43 17.715-51.425 28.346-76.114 47.77-141.588 109.812-198.277 180.673-28.334 35.43-53.146 72.561-70.851 115.077-3.543 8.796-3.543 14.172 3.543 21.248 28.344 24.801 53.146 51.313 79.647 74.404 37.263 37.14 37.263 79.647 0 116.787-22.968 23.081-42.506 42.506-63.652 63.764-23.081 22.968-44.339 44.237-65.587 65.485-33.597 33.71-77.937 33.71-113.254 0-26.624-26.521-53.146-53.022-79.77-79.657-24.791-24.791-37.13-54.845-40.673-88.566-3.543-54.845 8.796-107.991 28.334-159.293 38.973-108.001 99.195-200.11 171.766-286.844 97.362-116.89 215.982-210.726 352.317-276.326 62.054-28.333 125.818-53.133 193.011-56.678 49.594-1.709 90.394 10.63 123.987 47.885 22.982 24.8 49.606 47.77 72.57 72.57 35.43 37.254 35.43 81.478 0 116.896z" />
<glyph unicode="&#xe903;" glyph-name="rhombus-2" d="M10.24 448c0 0 394.508 108.087 501.76 501.76 107.252-393.673 501.76-501.76 501.76-501.76s-394.508-108.087-501.76-501.76c-107.461 393.673-501.76 501.76-501.76 501.76z" />
<glyph unicode="&#xe904;" glyph-name="luxury" d="M783.516 64.779c-69.818 0-164.461 41.89-252.896 114.812l-4.655 4.655c-3.104 3.102-6.206 6.206-10.861 9.308-29.478 26.377-57.406 55.855-80.678 85.333-58.957 76.026-85.333 150.498-76.023 203.249 3.102 18.62 10.859 32.582 20.169 44.994 21.722 23.273 55.855 34.133 100.849 29.478 3.102 0 6.206-3.102 6.206-6.206 6.206-37.235 24.823-80.678 55.855-125.673 24.823-37.235 55.855-71.369 91.539-103.951l3.102-3.104c79.127-71.369 169.116-116.363 238.933-124.122 3.104 0 6.206-3.102 6.206-6.206 6.208-38.786 0-71.369-20.169-93.090-15.516-20.171-43.443-29.478-77.577-29.478zM460.802 542.645c-29.481 0-52.753-9.31-68.267-24.823-9.31-9.31-13.965-21.722-17.067-35.686-9.31-49.647 18.618-121.018 72.919-192.388 23.273-29.478 49.649-57.406 77.577-83.78 3.104-3.104 6.206-6.206 10.861-9.31l4.655-4.655c124.122-103.951 260.655-142.739 311.855-86.884 15.514 17.067 21.719 41.89 17.067 74.473-72.922 9.31-162.91 55.855-242.037 127.223-1.551 1.553-3.104 1.553-3.104 3.104-35.684 32.582-68.267 68.267-93.090 105.504-29.478 43.441-49.649 86.884-57.406 125.673-6.206 1.551-9.31 1.551-13.963 1.551zM876.602 178.039c-74.473 7.757-167.563 55.855-248.241 127.223-1.553 1.553-3.104 1.553-3.104 3.104-35.684 32.582-68.267 68.267-93.090 105.504-31.031 46.545-51.2 91.539-58.959 131.878 0 3.102 0 4.655 1.553 6.206 1.551 4.655 4.653 4.655 6.206 4.655 27.927-3.104 60.508-12.414 94.641-26.377 40.339-17.067 82.231-43.443 121.020-74.473l32.58-27.927c85.333-76.023 144.292-167.563 155.153-242.037 0-3.102 0-4.653-1.553-6.206-1.551 0-3.102-1.551-6.206-1.551zM490.274 539.543c7.759-35.686 26.377-74.473 54.304-114.814 24.823-37.235 55.855-71.369 91.539-103.951l3.104-3.102c76.023-66.716 159.806-111.71 228.073-122.571-15.516 68.267-71.371 152.049-148.947 221.867-10.859 9.31-20.169 18.618-32.58 26.377-38.788 29.478-79.127 54.302-117.916 71.369-27.927 13.965-54.302 21.722-77.577 24.826zM840.917 78.741c-4.655 0-7.757 3.104-7.757 7.759s3.102 7.757 6.206 7.757c37.235 3.104 72.922 23.273 100.847 54.304 44.994 51.2 55.855 125.673 29.481 195.49-54.304 141.188-155.153 242.037-288.582 293.237-4.655 1.551-6.206 6.206-4.655 9.308 1.551 4.655 6.206 6.206 9.31 4.655 138.084-52.751 242.035-156.702 299.441-300.994 29.481-74.473 17.067-155.151-32.58-211.006-29.478-35.684-69.82-55.855-111.71-60.51zM330.477 81.841c-9.31 0-18.618 0-27.927 1.551-49.649 7.759-91.54 38.788-119.467 86.886l-1.552 1.551c-26.376 44.994-38.788 100.849-34.133 155.151 9.309 144.292 71.369 273.067 170.668 350.643 68.267 54.302 147.394 77.575 221.867 66.716 31.029-4.655 60.508-15.516 88.435-32.582s49.649-38.788 63.612-65.165c1.553-3.102 1.553-6.206-1.551-9.308-1.551-3.104-6.206-3.104-9.31-1.551-26.374 10.859-54.302 18.618-82.229 24.823-10.861 1.551-20.171 3.102-31.029 4.655-27.927 1.551-54.304-3.104-79.127-12.412-72.922-29.481-114.814-91.541-113.261-170.669v-1.551c-9.31-49.647 18.618-121.018 72.922-190.835 23.273-29.481 49.647-57.406 77.574-83.782 3.104-3.104 6.206-6.206 10.861-9.31l4.655-4.655c1.551-1.551 3.102-3.102 3.102-6.206 0-3.102-1.551-4.653-3.102-6.206-76.023-63.612-148.945-97.745-211.006-97.745zM193.943 181.139c18.618-32.582 52.751-72.922 110.157-82.231 63.612-10.861 139.637 18.618 220.316 86.884-3.104 3.104-6.206 4.655-7.757 7.759-29.481 26.374-57.408 55.855-80.681 85.333-58.957 76.023-85.333 150.496-76.023 203.247-1.551 83.782 43.443 152.049 122.571 183.081 26.374 10.861 54.302 15.514 85.333 13.963 10.859 0 23.273-1.551 32.58-4.655 21.722-4.653 43.443-10.861 63.612-17.067-12.412 15.516-27.925 29.481-46.545 40.339-26.374 15.516-54.302 24.826-82.229 29.481-69.818 10.861-144.292-10.861-209.455-63.614-94.643-76.023-155.152-200.145-164.461-339.78-3.103-48.098 7.757-100.849 32.582-142.739zM629.922 306.816c-1.553 0-3.104 0-4.655 1.551-37.237 34.133-68.267 69.818-94.643 107.055-31.029 46.545-51.2 91.539-58.957 131.878 0 3.104 0 4.655 1.551 6.206 3.104 3.104 6.206 3.104 7.757 3.104 27.927-3.104 60.51-12.414 94.643-26.377 40.339-17.067 82.229-43.443 121.018-74.473 3.104-1.551 3.104-4.655 3.104-7.757-12.412-44.994-34.133-91.541-62.061-136.533-1.551-3.104-3.104-4.655-7.757-4.655 1.551 0 1.551 0 0 0zM490.285 539.543c7.757-35.686 26.377-74.473 54.304-114.814 23.273-34.133 52.751-66.714 85.333-97.745 23.273 40.339 41.89 80.678 54.302 121.020-37.235 27.925-76.023 52.751-113.261 68.267-31.029 12.412-57.406 20.169-80.678 23.273zM536.828 412.316h-3.104c-3.102 1.551-6.206 6.206-3.102 10.861 15.516 34.133 27.927 66.716 34.133 100.849 1.551 4.653 4.655 6.206 9.31 6.206 4.653-1.553 6.206-4.655 6.206-9.31-6.206-34.133-18.62-69.818-35.686-103.951-1.551-3.104-4.655-4.655-7.757-4.655zM214.112 167.177c-9.309 0-18.618 0-26.375 1.551-4.655 0-7.758 3.104-7.758 7.757 0 4.655 3.103 7.759 7.758 7.759 82.23-9.31 173.769 27.927 248.242 105.502 3.104 3.104 7.759 3.104 10.861 0 3.104-3.102 3.104-7.757 0-10.861-69.818-71.369-153.6-111.708-232.727-111.708zM567.857 665.212c-3.102 0-6.206 1.553-7.757 6.206-6.206 21.722-17.067 43.443-29.478 62.061-3.104 3.104-1.551 7.759 1.551 10.861 3.104 3.104 7.759 1.553 10.861-1.551 13.965-20.171 23.273-43.443 31.031-66.716 1.551-4.655-1.553-7.757-4.655-9.308 0-1.553-1.553-1.553-1.553-1.553zM314.959 81.843c-153.6 6.206-240.485 65.165-279.273 187.733-7.757 23.273-10.861 48.098-12.412 74.473-3.103 173.771 68.266 318.061 204.8 415.807 51.2 37.236 102.4 58.958 155.151 68.267 134.982 21.721 243.588-41.891 307.2-179.975 1.551-3.104 0-6.206-1.551-9.31-1.551-1.551-6.206-3.104-7.759-1.551-26.374 10.861-54.302 18.618-82.229 24.823-10.861 1.551-20.171 3.104-31.031 4.655-27.925 1.551-54.302-3.104-79.125-12.412-58.959-23.273-96.194-68.267-108.608-127.226l1.553 1.553c21.722 23.273 55.855 34.133 100.847 29.478 27.927-3.104 58.959-12.412 93.092-26.377 40.339-17.067 82.229-43.441 121.018-74.473 3.104-3.102 4.655-7.757 1.551-10.861-3.102-3.102-7.757-4.655-10.861-1.551-38.786 29.478-79.125 54.302-117.914 71.369-32.582 13.965-62.061 23.275-88.437 24.826-38.788 4.655-69.818-4.655-86.884-24.826-9.31-9.308-13.965-21.719-17.067-35.684 0-4.655-4.655-6.206-7.757-6.206-4.655 0-7.759 3.104-7.759 7.757-1.551 85.333 43.443 152.049 122.571 184.631 26.374 10.861 54.302 15.516 85.333 13.963 10.861 0 23.273-1.551 32.58-4.653 23.275-4.655 44.994-10.861 66.716-18.62-60.508 119.467-161.357 173.77-282.374 153.601-49.649-7.758-99.298-29.479-147.394-65.163-133.431-94.643-201.698-234.278-198.595-403.394 0-23.273 4.655-46.545 10.861-69.818 37.236-116.365 117.915-170.667 265.308-176.873 4.655 0 7.759-3.104 7.759-7.759-1.553-3.102-6.206-6.206-9.31-6.206z" />
<glyph unicode="&#xe905;" glyph-name="rhombus" d="M0 448c0 0 402.56 110.293 512 512 109.44-401.707 512-512 512-512s-402.56-110.293-512-512c-109.653 401.707-512 512-512 512z" />
<glyph unicode="&#xe906;" glyph-name="thunder" d="M782.677 573.481c-2.028 2.915-4.669 5.345-7.748 7.114s-6.506 2.835-10.049 3.12h-185.534l182.422 312.341c1.993 3.041 3.052 6.598 3.052 10.233s-1.058 7.192-3.052 10.233c-1.952 2.811-4.547 5.121-7.557 6.745-3.017 1.623-6.369 2.514-9.796 2.599h-248.269c-3.715 0.001-7.364-0.988-10.57-2.865s-5.855-4.574-7.673-7.814l-237.149-498.323c-1.811-2.944-2.77-6.332-2.77-9.789s0.958-6.844 2.77-9.789c1.608-2.975 4.095-5.382 7.12-6.895s6.443-2.056 9.788-1.558h186.871l-133.479-393.764c-1.478-4.219-1.393-8.834 0.24-12.998s4.705-7.605 8.659-9.694c3.32-1.618 6.989-2.383 10.678-2.225 5.975 0.191 11.673 2.567 16.017 6.676l436.030 575.294c2.185 3.133 3.352 6.86 3.352 10.678s-1.167 7.545-3.352 10.678z" />
<glyph unicode="&#xe907;" glyph-name="view-2" d="M512 753.203c-195.646 0-373.068-107.040-503.988-280.902-10.683-14.243-10.683-34.144 0-48.387 130.92-174.070 308.342-281.11 503.988-281.11s373.069 107.040 503.987 280.902c10.685 14.243 10.685 34.144 0 48.387-130.918 174.070-308.342 281.11-503.987 281.11zM526.035 233.085c-129.872-8.17-237.122 98.87-228.953 228.954 6.703 107.248 93.634 194.18 200.882 200.883 129.872 8.17 237.123-98.87 228.954-228.953-6.912-107.040-93.843-193.968-200.883-200.883zM519.542 332.374c-69.965-4.397-127.779 53.206-123.171 123.171 3.562 57.814 50.483 104.525 108.298 108.294 69.962 4.4 127.776-53.203 123.168-123.168-3.77-58.022-50.691-104.736-108.294-108.298z" />
<glyph unicode="&#xe908;" glyph-name="hearth-2" d="M919.245 791.859c-48.358 48.359-112.64 74.984-181.015 74.984-68.39 0-132.672-26.625-181.030-74.984l-45.25-45.25-45.25 45.25c-48.361 48.359-112.642 74.984-181.033 74.984-68.375 0-132.656-26.625-181.015-74.984-48.344-48.344-74.985-112.64-74.985-181.016s26.641-132.672 74.985-181.015l395.985-395.985c3.125-3.125 7.219-4.687 11.313-4.687s8.186 1.562 11.311 4.687l395.985 395.985c48.343 48.343 74.985 112.64 74.985 181.015s-26.641 132.672-74.985 181.016zM896.621 452.452l-384.672-384.672-384.673 384.672c-42.297 42.313-65.609 98.564-65.609 158.391s23.313 116.079 65.609 158.391c42.313 42.313 98.563 65.609 158.39 65.609 59.844 0 116.094-23.297 158.406-65.609l56.563-56.562c6.251-6.251 16.375-6.251 22.624 0l56.563 56.562c42.313 42.313 98.562 65.609 158.406 65.609 59.827 0 116.079-23.297 158.391-65.609 42.295-42.312 65.609-98.563 65.609-158.391s-23.313-116.079-65.609-158.391z" />
<glyph unicode="&#xe909;" glyph-name="dou-bag" d="M1007.94 526.677h-711.275c-4.243 0-8.311-1.685-11.313-4.687-2.999-2.999-4.687-7.070-4.687-11.313v-557.739c0-4.243 1.687-8.314 4.687-11.313 3.002-3.002 7.070-4.687 11.313-4.687h711.275c4.245 0 8.314 1.685 11.315 4.687 2.999 2.999 4.685 7.070 4.685 11.313v557.739c0 4.243-1.685 8.314-4.685 11.313-3.002 3.002-7.070 4.687-11.315 4.687zM991.94-31.061h-679.275v525.739h679.275v-525.739zM223.403-31.061h-191.403v731.328h134.4v-45.781h-8.107c-4.243 0-8.313-1.685-11.314-4.687-3.001-2.999-4.686-7.070-4.686-11.313s1.686-8.314 4.686-11.313c3.001-3.002 7.070-4.687 11.314-4.687h48c4.243 0 8.314 1.685 11.313 4.687 3.002 2.999 4.687 7.070 4.687 11.313s-1.685 8.314-4.687 11.313c-2.999 3.002-7.070 4.687-11.313 4.687h-7.893v45.781h230.912v-45.781h-8.043c-4.243 0-8.314-1.685-11.313-4.687-3.002-2.999-4.687-7.070-4.687-11.313s1.685-8.314 4.687-11.313c2.999-3.002 7.070-4.687 11.313-4.687h48.064c4.243 0 8.314 1.685 11.313 4.687 3.002 2.999 4.687 7.070 4.687 11.313s-1.685 8.314-4.687 11.313c-2.999 3.002-7.070 4.687-11.313 4.687h-8.043v45.781h134.4v-117.12c0-4.243 1.685-8.314 4.687-11.313 2.999-3.002 7.070-4.687 11.313-4.687s8.314 1.685 11.313 4.687c3.002 2.999 4.687 7.070 4.687 11.313v133.12c0 4.243-1.685 8.314-4.687 11.313-2.999 3.002-7.070 4.687-11.313 4.687h-150.379v79.296c0 39.119-15.539 76.636-43.202 104.297-27.661 27.661-65.178 43.201-104.297 43.201s-76.636-15.54-104.297-43.201c-27.661-27.661-43.201-65.178-43.201-104.297v-79.296h-150.315c-4.243 0-8.313-1.685-11.314-4.687-3.001-2.999-4.686-7.070-4.686-11.313v-763.328c0-4.243 1.686-8.314 4.686-11.313 3.001-3.002 7.070-4.687 11.314-4.687h207.403c4.243 0 8.314 1.685 11.313 4.687 3.002 2.999 4.687 7.070 4.687 11.313s-1.685 8.314-4.687 11.313c-2.999 3.002-7.070 4.687-11.313 4.687zM198.4 811.562c0 30.632 12.169 60.010 33.828 81.67s51.038 33.829 81.67 33.829c30.633 0 60.011-12.169 81.67-33.829s33.828-51.038 33.828-81.67v-79.296h-230.997v79.296zM501.999 409.024h7.232v-29.397c0.461-37.643 15.738-73.587 42.517-100.045 26.782-26.455 62.91-41.291 100.555-41.291 37.647 0 73.775 14.835 100.557 41.291 26.78 26.458 42.057 62.402 42.515 100.045v29.397h7.232c4.245 0 8.314 1.685 11.315 4.685 2.999 3.002 4.685 7.072 4.685 11.315s-1.685 8.314-4.685 11.313c-3.002 3.002-7.070 4.687-11.315 4.687h-46.485c-4.243 0-8.311-1.685-11.313-4.687-2.999-2.999-4.687-7.070-4.687-11.313s1.687-8.314 4.687-11.315c3.002-2.999 7.070-4.685 11.313-4.685h7.253v-29.397c-0.403-29.193-12.284-57.052-33.069-77.551-20.787-20.499-48.809-31.994-78.003-31.994-29.193 0-57.214 11.494-78.001 31.994-20.785 20.499-32.666 48.358-33.071 77.551v29.397h7.232c4.245 0 8.314 1.685 11.315 4.685 2.999 3.002 4.685 7.072 4.685 11.315s-1.685 8.314-4.685 11.313c-3.002 3.002-7.070 4.687-11.315 4.687h-46.464c-4.243 0-8.311-1.685-11.313-4.687-2.999-2.999-4.687-7.070-4.687-11.313s1.687-8.314 4.687-11.315c3.002-2.999 7.070-4.685 11.313-4.685z" />
<glyph unicode="&#xe90a;" glyph-name="check-3" d="M511.996-10.62c-61.952 0-121.984 12.156-178.56 36.096-54.656 23.033-103.68 56.188-145.792 98.304-42.112 42.108-75.136 91.129-98.304 145.788-23.936 56.448-35.968 116.48-35.968 178.432s12.16 121.984 36.096 178.56c23.040 54.656 56.192 103.68 98.304 145.792s91.136 75.136 145.792 98.304c56.576 23.936 116.608 36.096 178.56 36.096s121.984-12.16 178.56-36.096c54.657-23.040 103.677-56.192 145.793-98.304 42.108-42.112 75.132-91.136 98.304-145.792 23.932-56.576 36.096-116.608 36.096-178.56s-12.164-121.984-36.096-178.56c-23.040-54.656-56.196-103.684-98.304-145.792-42.116-42.116-91.136-75.14-145.793-98.304-56.704-23.94-116.736-35.964-178.688-35.964zM511.996 842.624c-217.6 0-394.624-177.024-394.624-394.624s177.024-394.62 394.624-394.62c217.6 0 394.625 177.020 394.625 394.62s-177.025 394.624-394.625 394.624zM448.012 309.376c-8.192 0-16.384 3.072-22.656 9.344l-85.376 85.376c-12.544 12.544-12.544 32.768 0 45.312s32.768 12.544 45.312 0l62.72-62.72 190.72 190.72c12.544 12.544 32.768 12.544 45.312 0s12.544-32.768 0-45.312l-213.376-213.376c-6.272-6.272-14.464-9.344-22.656-9.344z" />
<glyph unicode="&#xe90b;" glyph-name="location-2" d="M867.207 720.102c-65.377 137.055-200.109 223.668-351.763 225.659-151.989 1.991-286.721-81.636-354.419-219.022-70.352-142.364-53.76-307.294 43.804-431.076l251.876-319.905c12.942-16.259 32.191-25.551 52.766-25.551s39.822 9.292 52.763 25.551l258.514 328.533c93.912 119.467 111.502 278.424 46.459 415.479v0.332zM768.978 345.441l-259.842-328.533-251.875 319.905c-81.304 103.208-95.241 241.588-36.504 360.392 56.415 114.157 164.267 181.855 289.042 181.855h4.98c128.095-1.991 237.606-72.012 292.693-187.828s40.816-244.907-38.495-345.79zM509.47 741.341c-99.889 0-181.192-81.304-181.192-181.19 0-99.889 81.304-181.191 181.192-181.191 99.886 0 181.191 81.302 181.191 181.191 0 99.886-81.306 181.19-181.191 181.19zM509.47 445.66c-63.385 0-114.822 51.439-114.822 114.821 0 63.384 51.437 114.821 114.822 114.821 63.382 0 114.821-51.437 114.821-114.821 0-63.382-51.439-114.821-114.821-114.821z" />
<glyph unicode="&#xe90c;" glyph-name="check" d="M695.607 580.117c-16.066 16.084-42.182 16.084-58.248 0l-176.852-176.834-73.866 73.845c-16.065 16.087-42.183 16.087-58.249 0-16.087-16.087-16.087-42.164 0-58.251l102.987-102.986c8.033-8.054 18.58-12.073 29.128-12.073 10.544 0 21.091 4.018 29.124 12.073l205.976 205.976c16.087 16.087 16.087 42.164 0 58.251zM965.148 489.44c-22.74 0-41.193-18.566-41.193-41.44 0-228.504-184.804-414.406-411.955-414.406s-411.954 185.902-411.954 414.406c0 228.502 184.803 414.404 411.954 414.404 110.588 0 214.401-43.471 292.341-122.415 16.006-16.265 42.104-16.348 58.251-0.207 16.147 16.121 16.232 42.352 0.205 58.597-93.512 94.733-218.108 146.906-350.798 146.906-272.59 0-494.345-223.074-494.345-497.284 0-274.213 221.755-497.286 494.345-497.286 272.589 0 494.345 223.073 494.345 497.286 0 22.874-18.457 41.44-41.197 41.44z" />
<glyph unicode="&#xe90d;" glyph-name="delivery" d="M1014.636 409.646l-81.971 180.334c-6.794 14.9-17.731 27.535-31.498 36.403s-29.793 13.594-46.172 13.617h-150.799v64c-0.015 16.968-6.769 33.236-18.765 45.234s-28.268 18.747-45.235 18.766h-533.333c-16.968-0.018-33.236-6.767-45.235-18.766s-18.747-28.266-18.765-45.234v-256c-0.027-2.821 0.504-5.617 1.564-8.228s2.627-4.987 4.611-6.989c1.984-2.007 4.344-3.594 6.946-4.68s5.393-1.644 8.212-1.644c2.819 0 5.61 0.558 8.212 1.644s4.962 2.673 6.946 4.68c1.983 2.002 3.551 4.378 4.611 6.989s1.591 5.407 1.564 8.228v256c0.006 5.656 2.256 11.079 6.256 15.078s9.422 6.249 15.078 6.256h533.333c5.658-0.006 11.080-2.256 15.078-6.256s6.252-9.422 6.257-15.078v-341.335c-0.010-5.652-2.258-11.075-6.257-15.073s-9.421-6.252-15.078-6.257h-255.999c-5.622-0.056-10.996-2.324-14.952-6.323-3.956-3.994-6.176-9.39-6.176-15.012s2.22-11.018 6.176-15.012c3.956-3.994 9.33-6.267 14.952-6.318h255.999c16.968 0.015 33.239 6.764 45.235 18.765 11.996 11.996 18.749 28.268 18.765 45.235v234.664h150.799c8.192-0.011 16.205-2.374 23.091-6.808s12.355-10.751 15.754-18.202l8.028-17.656h-91.003c-11.31-0.011-22.159-4.51-30.157-12.509-8.003-7.999-12.503-18.846-12.513-30.159v-85.335c0.010-11.31 4.511-22.159 12.508-30.157 8.003-7.997 18.847-12.498 30.157-12.508h167.603c1.935-5.975 2.97-12.201 3.077-18.478v-88.192c-0.010-5.652-2.263-11.080-6.262-15.078-4.004-3.999-9.426-6.246-15.084-6.252h-66.156c-4.915 24.090-18.007 45.737-37.048 61.286-19.046 15.549-42.875 24.044-67.461 24.044s-48.415-8.494-67.461-24.044c-19.041-15.549-32.133-37.197-37.048-61.286h-345.647c-4.918 24.090-18.007 45.737-37.050 61.286s-42.874 24.044-67.46 24.044c-24.585 0-48.416-8.494-67.46-24.044s-32.132-37.197-37.050-61.286h-23.492c-5.656 0.005-11.078 2.258-15.077 6.257s-6.249 9.421-6.257 15.078v21.33c5.622 0.056 10.995 2.33 14.951 6.323s6.176 9.39 6.176 15.012c0 5.622-2.22 11.018-6.176 15.012s-9.33 6.267-14.951 6.318h-64c-5.622-0.051-10.995-2.324-14.952-6.318s-6.176-9.39-6.176-15.012c0-5.622 2.219-11.018 6.176-15.012s9.33-6.267 14.952-6.323h21.334v-21.335c0.019-16.968 6.767-33.234 18.765-45.23 11.999-12.001 28.266-18.749 45.235-18.77h23.49c4.918-24.084 18.006-45.737 37.050-61.286s42.875-24.038 67.46-24.038c24.585 0 48.416 8.489 67.46 24.038s32.132 37.202 37.050 61.286h345.644c4.92-24.084 18.007-45.737 37.053-61.286 19.041-15.549 42.875-24.038 67.461-24.038 24.581 0 48.415 8.489 67.456 24.038 19.046 15.549 32.133 37.202 37.053 61.286h66.156c16.968 0.020 33.239 6.769 45.235 18.77 11.996 11.996 18.749 28.262 18.765 45.23v88.192c0.026 15.222-3.236 30.275-9.559 44.124zM234.862 170.665c-12.658 0-25.032 3.753-35.557 10.788-10.525 7.030-18.727 17.029-23.571 28.723s-6.112 24.561-3.642 36.977c2.469 12.416 8.565 23.818 17.515 32.768s20.355 15.048 32.769 17.516c12.415 2.468 25.283 1.203 36.978-3.64s21.69-13.051 28.722-23.572c7.033-10.527 10.786-22.902 10.786-35.558-0.019-16.968-6.768-33.234-18.766-45.235-11.998-11.996-28.266-18.744-45.234-18.765zM789.53 170.665c-12.662 0-25.032 3.753-35.558 10.788-10.527 7.030-18.729 17.029-23.572 28.723s-6.113 24.561-3.64 36.977c2.468 12.416 8.566 23.818 17.516 32.768s20.352 15.048 32.768 17.516c12.416 2.468 25.283 1.203 36.977-3.64s21.688-13.051 28.723-23.572c7.030-10.527 10.788-22.902 10.788-35.558-0.020-16.968-6.769-33.234-18.765-45.23-12.001-12.001-28.268-18.749-45.235-18.77v0zM810.86 512h110.392l38.784-85.335h-149.176v85.335zM368.535 565.334c-0.017 14.14-5.642 27.695-15.641 37.693s-23.554 15.623-37.693 15.641h-42.666c-5.658 0-11.085-2.248-15.086-6.248s-6.248-9.427-6.248-15.086v-128c-0.027-2.819 0.504-5.615 1.564-8.227s2.627-4.988 4.611-6.991c1.983-2.003 4.345-3.593 6.946-4.678s5.393-1.642 8.212-1.642c2.819 0 5.61 0.557 8.212 1.642s4.963 2.675 6.946 4.678c1.983 2.003 3.551 4.379 4.611 6.991s1.591 5.408 1.564 8.227v25.51l34.62-39.558c1.835-2.141 4.077-3.896 6.594-5.165s5.262-2.026 8.075-2.228c2.812-0.2 5.637 0.156 8.31 1.053s5.142 2.315 7.264 4.172c2.122 1.857 3.854 4.116 5.097 6.647s1.972 5.283 2.145 8.097c0.173 2.814-0.214 5.635-1.138 8.298s-2.367 5.118-4.247 7.221l-27.678 31.64c10.408 3.679 19.422 10.491 25.802 19.501s9.811 19.774 9.824 30.814zM315.201 554.668h-21.332v21.332h21.334c2.829 0 5.542-1.124 7.543-3.124s3.124-4.714 3.124-7.543c0-2.829-1.124-5.542-3.124-7.543s-4.714-3.124-7.543-3.124l-0.002 0.002zM213.335 575.999c5.622 0.055 10.995 2.326 14.951 6.321s6.176 9.39 6.176 15.012c0 5.622-2.219 11.018-6.176 15.012s-9.329 6.266-14.951 6.321h-64c-5.658 0-11.084-2.247-15.085-6.248s-6.249-9.426-6.249-15.084v-128c-0.027-2.819 0.504-5.615 1.564-8.227s2.627-4.988 4.611-6.991c1.983-2.003 4.345-3.593 6.946-4.678s5.393-1.641 8.212-1.641c2.819 0 5.61 0.557 8.212 1.641s4.963 2.675 6.946 4.678c1.983 2.003 3.551 4.379 4.611 6.991s1.591 5.409 1.564 8.227v42.666h32c2.819-0.027 5.615 0.504 8.227 1.564s4.988 2.627 6.991 4.611c2.003 1.984 3.593 4.345 4.678 6.947s1.644 5.392 1.644 8.211c0 2.819-0.559 5.61-1.644 8.212s-2.675 4.963-4.678 6.946c-2.003 1.984-4.379 3.551-6.991 4.611s-5.408 1.592-8.227 1.564h-32v21.334h42.668zM597.335 575.999c5.622 0.055 10.993 2.326 14.95 6.321s6.175 9.39 6.175 15.012c0 5.622-2.217 11.018-6.175 15.012s-9.329 6.266-14.95 6.321h-64c-5.658 0-11.085-2.247-15.084-6.248-4.004-4-6.252-9.426-6.252-15.084v-128c0-5.658 2.248-11.084 6.246-15.085 4.004-4.001 9.431-6.248 15.089-6.248h64c5.622 0.054 10.993 2.326 14.95 6.321s6.175 9.39 6.175 15.012c0 5.622-2.217 11.018-6.175 15.012s-9.329 6.266-14.95 6.321h-42.67v21.334h31.519c2.821-0.027 5.617 0.504 8.228 1.564 2.616 1.060 4.992 2.627 6.994 4.611s3.594 4.345 4.68 6.947c1.080 2.601 1.644 5.392 1.644 8.211s-0.563 5.61-1.644 8.212c-1.085 2.602-2.678 4.963-4.68 6.946s-4.378 3.551-6.994 4.611c-2.611 1.060-5.407 1.592-8.228 1.564h-31.519v21.334h42.67zM474.534 576c2.819-0.027 5.615 0.504 8.227 1.564s4.988 2.627 6.991 4.611c2.003 1.984 3.593 4.345 4.678 6.947s1.644 5.393 1.644 8.211c0 2.819-0.559 5.61-1.644 8.212s-2.675 4.963-4.678 6.946c-2.003 1.984-4.379 3.551-6.991 4.611s-5.408 1.592-8.227 1.564h-64c-5.658 0-11.084-2.248-15.085-6.248s-6.249-9.427-6.249-15.086v-128c0.001-5.658 2.249-11.083 6.249-15.084s9.427-6.248 15.085-6.248h64c2.819-0.026 5.615 0.504 8.227 1.564s4.988 2.627 6.991 4.611c2.003 1.984 3.593 4.345 4.678 6.947s1.644 5.393 1.644 8.211c0 2.819-0.559 5.61-1.644 8.212s-2.675 4.963-4.678 6.946c-2.003 1.984-4.379 3.551-6.991 4.611s-5.408 1.592-8.227 1.564h-42.666v21.334h31.532c2.819-0.027 5.615 0.504 8.227 1.564s4.988 2.627 6.991 4.611c2.003 1.984 3.593 4.345 4.678 6.947s1.644 5.393 1.644 8.211c0 2.819-0.559 5.61-1.644 8.212s-2.675 4.963-4.678 6.946c-2.003 1.984-4.379 3.551-6.991 4.611s-5.408 1.592-8.227 1.564h-31.532v21.334h42.666zM21.527 362.665h106.666c5.622 0.056 10.995 2.33 14.951 6.323s6.176 9.39 6.176 15.012c0 5.622-2.219 11.018-6.176 15.012s-9.33 6.267-14.951 6.318h-106.666c-5.622-0.051-10.995-2.324-14.952-6.318s-6.176-9.39-6.176-15.012c0-5.622 2.219-11.018 6.176-15.012s9.33-6.267 14.952-6.323z" />
<glyph unicode="&#xe90e;" glyph-name="quote-3" d="M571.037 131.245v383.064l126.862 253.624c8.734 15.485 24.816 25.411 42.584 26.306h110.581c16.282 0 23.726-11.616 16.282-26.306l-126.067-253.624h227.614c16.278 0 29.482-13.202 29.482-29.482v-353.582c0-16.28-13.203-29.482-29.482-29.482h-368.374c-16.278 0-29.482 13.202-29.482 29.482zM25.662 131.245v383.064l126.762 253.624c8.833 15.485 24.916 25.411 42.684 26.306h110.482c16.379 0 23.725-11.616 16.379-26.306l-126.165-253.624h227.714c16.278 0 29.482-13.202 29.482-29.482v-353.582c0-16.28-13.203-29.482-29.482-29.482h-368.375c-16.278 0-29.481 13.202-29.481 29.482z" />
<glyph unicode="&#xe90f;" glyph-name="chat" d="M856.8 792.8c-92.101 92.099-214.552 142.819-344.8 142.819s-252.698-50.72-344.799-142.819c-92.101-92.099-142.819-214.552-142.819-344.8 0-81.442 20.383-161.636 59.051-232.745l-58.013-216.508c-2.817-10.518 0.189-21.743 7.888-29.442 5.79-5.788 13.573-8.923 21.55-8.923 2.629 0 5.278 0.341 7.886 1.039l216.507 58.012c71.11-38.668 151.299-59.051 232.75-59.051 130.248 0 252.699 50.722 344.8 142.819 92.101 92.101 142.819 214.552 142.819 344.8s-50.717 252.699-142.819 344.8zM512 21.333c-75.039 0-148.828 19.753-213.388 57.12-4.68 2.711-9.952 4.101-15.268 4.101-2.64 0-5.292-0.341-7.886-1.039l-177.501-47.557 47.56 177.498c2.095 7.817 0.992 16.15-3.061 23.152-37.37 64.571-57.122 138.357-57.122 213.392 0 235.265 191.402 426.667 426.666 426.667 235.266 0 426.667-191.402 426.667-426.667s-191.4-426.667-426.667-426.667zM344.622 448c0-26.229-21.392-47.621-47.619-47.621-26.229 0-47.619 21.392-47.619 47.621 0 26.227 21.392 47.619 47.619 47.619s47.619-21.39 47.619-47.619zM559.621 448c0-26.229-21.392-47.621-47.621-47.621-26.226 0-47.618 21.392-47.618 47.621 0 26.227 21.392 47.619 47.618 47.619 26.229 0 47.621-21.39 47.621-47.619zM774.622 448c0-26.229-21.392-47.621-47.621-47.621s-47.616 21.392-47.616 47.621c0 26.227 21.392 47.619 47.616 47.619 26.229 0 47.621-21.39 47.621-47.619z" />
<glyph unicode="&#xe910;" d="M512-29.559c263.919 0 477.867 213.811 477.867 477.557s-213.948 477.553-477.867 477.553c-263.918 0-477.867-213.808-477.867-477.553s213.948-477.557 477.867-477.557z" />
<glyph unicode="&#xe911;" d="M360.304 673.52l-73.904-73.903 377.061-377.061 73.901 73.904-377.058 377.060z" />
<glyph unicode="&#xe912;" d="M663.461 673.552l-377.061-377.060 73.904-73.901 377.058 377.058-73.901 73.903z" />
<glyph unicode="&#xe913;" glyph-name="quote-2" d="M1016 320.205h-256.234l83.917-174.664v-82.36l-301.242 257.024v481.075h473.558v-481.075zM394.563 710.533v-390.328h-207.891l68.101-141.722v-66.795l-244.41 208.517v390.328h384.2z" />
<glyph unicode="&#xe914;" glyph-name="tag" d="M912.986 465.068l-384.003 384c-14.933 17.066-36.266 25.6-59.733 25.6h-298.667c-46.933 0-85.333-38.4-85.333-85.334v-298.666c0-23.467 8.533-44.8 25.6-59.734l384-383.997c14.933-14.938 36.267-25.6 59.733-25.6s44.801 10.662 59.734 25.6l298.669 298.664c14.931 14.933 25.6 36.267 25.6 59.733s-10.669 44.8-25.6 59.734zM234.583 661.334c-36.266 0-64 27.734-64 64s27.734 64 64 64c36.267 0 64-27.733 64-64s-27.733-64-64-64z" />
<glyph unicode="&#xe915;" glyph-name="compare" d="M292.235 850.107c19.199 19.028 19.338 50.017 0.309 69.216s-50.017 19.337-69.216 0.309l-94.046-93.211c-34.99-34.677-64.172-63.598-84.98-89.507-21.824-27.176-38.424-55.735-42.859-90.53-5.412-42.458 29.799-71.491 63.92-71.491h897.214c27.028 0 48.942 21.913 48.942 48.944s-21.914 48.944-48.942 48.944h-844.201c0.723 0.928 1.472 1.874 2.248 2.839 16.908 21.054 42.056 46.083 79.572 83.266l92.039 91.221zM48.944 321.104c-27.031 0-48.944-21.914-48.944-48.942 0-27.034 21.913-48.947 48.944-48.947h857.268c-0.722-0.927-1.473-1.872-2.247-2.839-16.913-21.049-42.052-46.086-79.57-83.268l-92.041-91.216c-19.2-19.029-19.337-50.022-0.307-69.222 19.024-19.2 50.017-19.337 69.211-0.307l94.043 93.212c34.992 34.674 64.176 63.596 84.986 89.509 21.823 27.176 38.417 55.734 42.854 90.527 0.199 1.525 0.37 3.038 0.523 4.557 3.988 39.344-28.348 66.935-61.104 66.935h-913.616z" />
<glyph unicode="&#xe916;" glyph-name="return" horiz-adv-x="1000" d="M437.581-52.093c-133.608 0-259.173 52.012-353.651 146.489-8.127 8.125-8.127 21.335 0 29.463 8.127 8.125 21.336 8.125 29.463 0 86.602-86.602 201.751-134.28 324.188-134.28s237.547 47.678 324.141 134.28c86.602 86.595 134.28 201.704 134.28 324.141s-47.678 237.585-134.28 324.187c-86.595 86.594-201.704 134.234-324.141 134.234s-237.548-47.677-324.142-134.28c-8.127-8.127-21.336-8.127-29.463 0s-8.127 21.336 0 29.463c94.469 94.477 220.035 146.489 353.605 146.489 133.608 0 259.172-52.012 353.649-146.489 94.477-94.47 146.444-220.034 146.444-353.604s-52.012-259.134-146.489-353.604c-94.47-94.477-220.034-146.489-353.604-146.489zM250.047 739.718h-166.695c-11.507 0-20.84 9.34-20.84 20.84v166.695c0 11.507 9.332 20.84 20.84 20.84 11.5 0 20.832-9.332 20.832-20.84v-145.855h145.863c11.5 0 20.84-9.34 20.84-20.84s-9.34-20.84-20.84-20.84z" />
<glyph unicode="&#xe917;" glyph-name="credit-card" horiz-adv-x="1000" d="M980.182 805.209h-960.179c-5.305 0-10.393-2.108-14.145-5.859s-5.859-8.84-5.859-14.145v-664.764c0-5.306 2.108-10.392 5.859-14.145 3.751-3.751 8.839-5.858 14.145-5.858h960.179c5.306 0 10.392 2.108 14.145 5.858 3.751 3.753 5.858 8.84 5.858 14.145v664.764c0 5.305-2.108 10.393-5.858 14.145-3.753 3.751-8.84 5.859-14.145 5.859zM960.179 765.202v-132.344h-920.171v132.344h920.171zM40.007 140.445v452.406h920.171v-452.406h-920.171zM880.164 252.787c0-5.306-2.108-10.395-5.858-14.145-3.753-3.751-8.84-5.858-14.145-5.858h-240.045c-5.306 0-10.392 2.108-14.145 5.858-3.751 3.751-5.858 8.84-5.858 14.145 0 5.303 2.108 10.392 5.858 14.143 3.753 3.753 8.84 5.861 14.145 5.861h240.045c5.306 0 10.392-2.108 14.145-5.861 3.751-3.751 5.858-8.84 5.858-14.143z" />
<glyph unicode="&#xe918;" glyph-name="box" horiz-adv-x="1000" d="M965.665 762.232c-0.214 0.572-0.505 1.069-0.779 1.608-0.629 1.242-1.386 2.372-2.305 3.421-0.407 0.465-0.781 0.916-1.238 1.334-1.141 1.045-2.431 1.895-3.855 2.6-0.364 0.18-0.66 0.442-1.038 0.596-0.086 0.035-0.148 0.101-0.233 0.135l-450.084 175.032c-3.872 1.514-8.204 1.514-12.078 0l-450.081-175.032c-0.086-0.033-0.15-0.102-0.234-0.135-0.375-0.152-0.67-0.412-1.031-0.592-1.426-0.705-2.721-1.557-3.864-2.604-0.455-0.418-0.828-0.868-1.236-1.332-0.918-1.049-1.676-2.18-2.307-3.424-0.274-0.537-0.561-1.031-0.776-1.6-0.699-1.852-1.18-3.792-1.18-5.849v-616.778c0-0.086 0.049-0.16 0.051-0.245 0.020-1.365 0.449-2.634 0.795-3.936 0.213-0.805 0.223-1.679 0.549-2.431 0.385-0.888 1.084-1.591 1.62-2.4 0.641-0.969 1.149-2.031 1.973-2.843 0.516-0.51 1.237-0.788 1.821-1.229 1.153-0.869 2.266-1.774 3.624-2.327 0.076-0.031 0.123-0.098 0.201-0.129l450.082-175.030c1.938-0.76 3.989-1.131 6.039-1.131 2.053 0 4.103 0.374 6.042 1.131l450.081 175.030c0.076 0.031 0.124 0.098 0.2 0.129 1.36 0.552 2.479 1.457 3.632 2.329 0.581 0.443 1.303 0.719 1.815 1.226 0.833 0.819 1.345 1.891 1.991 2.87 0.526 0.803 1.219 1.493 1.598 2.372 0.331 0.762 0.341 1.646 0.555 2.46 0.341 1.293 0.769 2.553 0.791 3.91 0 0.086 0.048 0.16 0.048 0.248v616.774c-0.005 2.057-0.483 3.997-1.184 5.845zM500.093 913.537l404.094-157.15-179.050-69.629-404.094 157.147 179.050 69.632zM483.423-11.057l-416.743 162.071v581.004l416.741-162.067v-581.008h0.002zM500.093 599.24l-404.093 157.148 179.049 69.63 404.094-157.148-179.050-69.63zM933.507 151.014l-416.744-162.071v581.008l416.744 162.067v-581.004z" />
<glyph unicode="&#xe919;" glyph-name="arrow-right" d="M666.103 635.23l-30.409-30.411 135.317-135.317h-600.346v-43.006h600.346l-135.317-135.315 30.409-30.409 187.23 187.23-187.23 187.228z" />
<glyph unicode="&#xe91a;" glyph-name="arrow-left" d="M357.897 635.23l30.409-30.411-135.317-135.317h600.346v-43.006h-600.346l135.317-135.315-30.409-30.409-187.23 187.23 187.23 187.228z" />
<glyph unicode="&#xe91b;" d="M512-64c282.77 0 512 229.23 512 512s-229.23 512-512 512c-282.77 0-512-229.23-512-512s229.23-512 512-512z" />
<glyph unicode="&#xe91c;" d="M387.831 304.458l360.819 360.819c5.139 5.121 12.097 7.996 19.351 7.996s14.213-2.875 19.352-7.996l35.074-35.074c5.121-5.139 7.996-12.097 7.996-19.352s-2.875-14.212-7.996-19.351l-361.223-360.819c-5.121-4.998-11.993-7.796-19.149-7.796s-14.029 2.798-19.15 7.796l-35.075 35.075c-5.12 5.138-7.996 12.096-7.996 19.351s2.876 14.213 7.996 19.351z" />
<glyph unicode="&#xe91d;" d="M275.352 524.589l219.717-220.119c5.12-5.139 7.996-12.097 7.996-19.352s-2.876-14.212-7.996-19.351l-34.671-34.671c-5.139-5.121-12.097-7.997-19.352-7.997s-14.212 2.876-19.351 7.997l-220.12 219.716c-5.121 5.139-7.996 12.097-7.996 19.352s2.875 14.212 7.996 19.351l35.074 34.671c5.139 5.121 12.097 7.997 19.352 7.997s14.212-2.472 19.351-7.593z" />
<glyph unicode="&#xe91e;" glyph-name="star" d="M1024 564.363l-372.078 24.462-140.126 352.032-140.126-352.032-371.67-24.462 285.068-242.052-93.544-367.177 320.272 202.437 320.277-202.437-93.55 367.177 285.477 242.052z" />
<glyph unicode="&#xe91f;" glyph-name="diamond" d="M975.582 400.742c8.055 4.915 14.711 11.819 19.332 20.049s7.044 17.51 7.044 26.948c0 9.438-2.423 18.718-7.044 26.948s-11.277 15.138-19.332 20.053c-84.937 51.484-163.362 113.014-233.583 183.259-70.174 70.208-131.635 148.613-183.057 233.52-4.902 8.066-11.793 14.737-20.015 19.372s-17.498 7.079-26.935 7.097c-9.438 0.018-18.722-2.39-26.961-6.994s-15.159-11.248-20.092-19.295c-51.741-84.677-113.337-162.923-183.499-233.1-70.189-70.176-148.448-131.785-233.14-183.539-8.046-4.932-14.689-11.853-19.291-20.092-4.602-8.243-7.008-17.527-6.988-26.965s2.466-18.714 7.103-26.931c4.637-8.222 11.309-15.113 19.376-20.011 84.678-51.268 162.886-112.529 232.94-182.464 70.453-70.349 132.141-148.958 183.721-234.116 4.915-8.060 11.819-14.716 20.049-19.337 8.235-4.617 17.51-7.044 26.953-7.044 9.438 0 18.718 2.428 26.948 7.044 8.23 4.621 15.134 11.277 20.049 19.337 103.441 170.121 246.259 312.883 416.422 416.26z" />
<glyph unicode="&#xe920;" glyph-name="arrow-top-right-2" d="M449.497 895.998l0.002-82.912 368.957-0.002-818.456-818.453 58.631-58.631 818.456 818.452v-368.953l82.913-0.002v510.503l-510.503-0.002z" />
<glyph unicode="&#xe921;" glyph-name="arrow-top-right" d="M255.331 893.597l0.019-52.204c0.003-6.294 2.504-12.33 6.955-16.781s10.487-6.952 16.781-6.955l489.415 0.009-761.555-761.561c-4.449-4.454-6.947-10.496-6.945-16.785 0.002-6.298 2.503-12.339 6.955-16.785l36.92-36.924c9.263-9.267 24.299-9.267 33.571 0.009l761.555 761.563-0.019-489.448c0.003-6.294 2.504-12.33 6.955-16.781s10.485-6.953 16.783-6.956h52.198c6.298 0.003 12.331 2.505 16.785 6.956 4.446 4.451 6.955 10.487 6.955 16.781l0.009 635.861c0 6.294-2.5 12.33-6.955 16.781s-10.487 6.952-16.785 6.955h-635.86c-6.294-0.003-12.331-2.504-16.781-6.955s-6.952-10.487-6.955-16.781z" />
<glyph unicode="&#xe922;" glyph-name="view" d="M511.998 117.038c-191.658 0-375.167 141.005-496.298 287.396-20.933 25.298-20.933 62.026 0 87.324 30.455 36.807 94.279 107.816 179.536 169.876 214.738 156.304 418.371 156.606 633.523 0 100.163-72.906 179.538-168.508 179.538-169.876 20.936-25.298 20.936-62.026 0-87.324-121.114-146.371-304.599-287.396-496.298-287.396zM511.998 716.094c-212.318 0-396.366-202.479-447.716-264.537-0.804-0.974-1.244-2.199-1.244-3.462s0.44-2.487 1.244-3.465c51.352-62.054 235.398-264.535 447.716-264.535s396.366 202.481 447.715 264.535c2.995 3.622-0.195 6.927 0 6.927-51.348 62.057-235.397 264.537-447.715 264.537zM511.998 227.389c-121.697 0-220.705 99.011-220.705 220.706 0 121.697 99.008 220.705 220.705 220.705 121.699 0 220.704-99.008 220.704-220.705 0-121.695-99.005-220.706-220.704-220.706zM511.998 605.742c-86.926 0-157.646-70.721-157.646-157.646s70.721-157.648 157.646-157.648c86.929 0 157.646 70.723 157.646 157.648s-70.717 157.646-157.646 157.646z" />
<glyph unicode="&#xe923;" glyph-name="arrow-right-2" horiz-adv-x="1067" d="M181.333 480l594.688-0.004-169.314 169.377 45.252 45.255 246.63-246.627-246.63-246.626-45.252 45.252 169.314 169.37-594.688 0.004v64z" />
<glyph unicode="&#xe924;" glyph-name="cart" d="M828.029 600.125c-3.555 4.55-9.005 7.21-14.778 7.21h-467.36c-3.93 15.712-10.57 42.283-17.136 68.53-13.56 54.247-62.085 92.136-118.005 92.136-10.355 0-18.75-8.395-18.75-18.75s8.395-18.75 18.75-18.75c38.68 0 72.245-26.206 81.625-63.732l67.619-270.49c5.149-20.582 17.181-37.933 33.267-49.885-32.163-30.573-24.963-86.531 13.235-108.272-33.853-44.282-0.906-110.637 55.299-110.115 50.832-0.688 85.155 55.773 61.331 100.416h98.25c-23.818-44.65 10.493-101.104 61.334-100.416 91.35 3.462 91.334 134.461-0.003 137.914h-240.998c-41.686 1.587-41.654 61.347 0 62.918h256.413c40.934 0 76.458 27.731 86.384 67.443l46.934 187.757c1.402 5.6 0.144 11.536-3.411 16.086zM682.707 228.419c17.347 0 31.459-14.112 31.459-31.456-1.581-41.677-61.341-41.667-62.915 0 0 17.344 14.112 31.456 31.456 31.456zM461.792 228.419c17.347 0 31.459-14.112 31.459-31.456-1.581-41.677-61.341-41.667-62.918 0 0 17.344 14.112 31.456 31.459 31.456zM748.125 405.373c-5.747-22.982-26.307-39.037-50.003-39.037h-251.744c-23.696 0-44.256 16.054-50.003 39.037l-41.11 164.461h433.971l-41.11-164.461z" />
<glyph unicode="&#xe925;" glyph-name="hearth" d="M515.712 160c-9.216 0-18.102 3.338-25.027 9.405-26.154 22.87-51.37 44.362-73.619 63.318l-0.112 0.099c-65.226 55.584-121.551 103.584-160.741 150.87-43.808 52.864-64.213 102.982-64.213 157.738 0 53.197 18.241 102.276 51.36 138.201 33.514 36.349 79.5 56.369 129.504 56.369 37.37 0 71.597-11.815 101.722-35.115 15.203-11.761 28.986-26.155 41.126-42.944 12.147 16.789 25.923 31.183 41.13 42.944 30.128 23.3 64.352 35.115 101.725 35.115 49.997 0 95.987-20.020 129.504-56.369 33.117-35.925 51.354-85.004 51.354-138.201 0-54.755-20.4-104.874-64.208-157.731-39.19-47.293-95.507-95.29-160.723-150.867-22.288-18.986-47.542-40.512-73.757-63.437-6.922-6.058-15.811-9.395-25.024-9.395zM372.864 698.075c-39.283 0-75.372-15.678-101.625-44.149-26.644-28.902-41.318-68.851-41.318-112.496 0-46.051 17.115-87.235 55.49-133.539 37.089-44.755 92.26-91.77 156.136-146.208l0.118-0.099c22.333-19.030 47.648-40.605 73.994-63.645 26.506 23.082 51.859 44.694 74.237 63.754 63.872 54.438 119.034 101.443 156.125 146.198 38.371 46.304 55.485 87.488 55.485 133.539 0 43.645-14.675 83.594-41.318 112.496-26.25 28.471-62.339 44.149-101.619 44.149-28.778 0-55.2-9.148-78.528-27.187-20.79-16.083-35.274-36.414-43.763-50.638-4.368-7.315-12.051-11.683-20.563-11.683s-16.195 4.368-20.563 11.683c-8.486 14.224-22.966 34.556-43.763 50.638-23.328 18.039-49.75 27.187-78.522 27.187z" />
<glyph unicode="&#xe926;" glyph-name="user" d="M512 736c-83.744 0-151.875-68.131-151.875-151.875s68.131-151.875 151.875-151.875c83.744 0 151.875 68.131 151.875 151.875s-68.131 151.875-151.875 151.875zM512 466c-65.133 0-118.125 52.992-118.125 118.125s52.992 118.125 118.125 118.125 118.125-52.991 118.125-118.125c0-65.133-52.992-118.125-118.125-118.125zM700.963 333.030c-41.581 42.221-96.704 65.469-155.213 65.469h-67.501c-58.509 0-113.632-23.248-155.213-65.469-41.375-42.013-64.162-97.469-64.162-156.157 0-9.318 7.556-16.874 16.875-16.874h472.5c9.318 0 16.877 7.555 16.877 16.874 0 58.688-22.787 114.144-64.163 156.157zM293.367 193.75c8.454 95.722 88.146 170.998 184.882 170.998h67.501c96.736 0 176.429-75.277 184.883-170.998h-437.266z" />
<glyph unicode="&#xe927;" glyph-name="search" d="M794.266 193.949l-155.568 155.568c-0.006 0.010-0.006 0.022 0 0.032 33.302 39.274 52.653 88.474 55.027 139.91 6.694 139.35-104.195 251.523-243.616 246.37-122.803-4.648-221.29-103.135-225.938-225.938-5.151-139.421 107.023-250.31 246.377-243.613 51.434 2.378 100.627 21.728 139.901 55.024 0.010 0.010 0.022 0.010 0.032 0l155.571-155.568c7.853-7.731 20.483-7.632 28.214 0.218 7.645 7.766 7.645 20.23 0 27.997zM268.973 455.738c-15.316 68.362 4.69 135.834 52.073 183.216 47.386 47.383 114.851 67.389 183.219 52.073 64.682-14.495 130.266-80.073 144.762-144.748 15.325-68.371-4.682-135.85-52.070-183.235-47.386-47.389-114.867-67.395-183.238-52.067-64.675 14.496-130.25 80.083-144.745 144.762z" />
<glyph unicode="&#xe928;" glyph-name="arrow-angle-down" d="M896 618.667l-383.787-345.472-383.872 345.472-85.675-95.147 469.547-422.528 469.461 422.528-85.675 95.147z" />
<glyph unicode="&#xe929;" glyph-name="snapchat" d="M787.763 611.159c-0.122-11.932-1.357-23.864-2.47-35.796-0.371-3.936-0.493-7.933-0.55-11.869-0.128-6.81 5.248-12.995 11.981-12.557 3.213 0.188 6.483 1.061 9.574 2.124 10.31 3.686 20.506 7.622 30.752 11.558 9.267 3.623 18.72 6.872 28.294 9.496 10.432 2.874 20.87 4.998 31.494 3.249 21.619-3.561 35.699-27.114 27.795-47.791-2.221-5.81-5.619-10.808-9.696-15.43-5.619-6.31-11.981-11.682-18.899-16.429-8.154-5.56-16.371-10.996-24.582-16.493-13.709-9.121-27.424-18.179-41.075-27.425-5.683-3.811-11.174-7.871-16.55-12.056-2.963-2.312-5.747-4.998-8.275-7.809-4.819-5.435-7.475-12.37-7.040-19.617 0.429-7.684 1.728-15.18 3.827-22.552 6.483-22.989 16.429-44.355 28.474-64.783 32.301-54.541 78.067-97.146 132.544-131.942 14.944-9.555 30.944-17.299 46.694-25.485 2.221-1.19 4.384-2.374 6.547-3.686 2.157-1.312 4.077-3.059 5.498-5.184 2.221-3.187 2.528-6.56 0.614-10.061-1.606-2.995-3.955-5.306-6.483-7.43-2.842-2.374-5.933-4.378-9.146-6.189-18.4-10.554-38.17-18.426-58.611-23.923-9.882-2.688-19.763-5.498-29.587-8.435-6.048-1.811-11.731-4.499-17.35-7.437-9.453-4.934-14.822-12.864-16.8-23.174-1.114-5.747-1.792-11.622-2.842-17.37-2.598-14.554-7.782-19.866-21.862-22.362-4.941-0.877-10.010-1.376-15.014-1.69-12.595-0.685-25.197-1.062-37.798-1.747-0.371 0-0.742 0-1.050-0.064-50.336-2.995-99.008-19.302-142.176-45.664-2.285-1.376-4.57-2.81-6.918-4.186-17.48-10.682-35.268-20.864-54.353-28.365-21.308-8.371-43.296-13.37-66.086-15.43-19.209-1.747-38.356-1.498-57.441 0.685-28.596 3.251-55.711 11.686-81.343 24.928-11.921 6.189-23.409 13.056-34.773 20.115-0.618 0.378-1.235 0.755-1.914 1.19-45.334 27.923-96.907 44.851-149.962 47.040-0.371 0-0.741 0-1.112 0-11.117 0.435-22.173 0.877-33.29 1.562-6.485 0.378-12.97 1.248-19.332 3.002-8.092 2.246-13.959 9.427-15.503 17.741-0.865 4.557-1.544 9.12-2.348 13.677-0.185 0.998-0.186 2.067-0.371 3.066-1.853 13.37-8.4 23.174-20.815 28.858-7.597 3.501-15.379 6.31-23.407 8.563-13.835 3.872-27.794 7.309-41.32 12.243-11.92 4.307-23.408 9.434-34.464 15.552-3.335 1.818-6.547 3.878-9.636 6.003-2.1 1.434-4.076 3.059-5.805 4.87-5.559 5.869-5.003 13.555 1.297 18.554 3.644 2.938 7.905 4.87 12.044 6.931 28.844 14.31 56.205 31.053 81.652 50.918 38.417 29.92 70.966 65.344 95.61 108.013 8.77 15.243 16.058 31.423 22.049 48.040 3.953 10.995 7.165 21.989 7.967 33.546 0.556 8.496-2.285 16.931-8.029 23.116-4.138 4.436-8.956 7.996-13.835 11.556-7.288 5.248-14.637 10.433-22.049 15.368-15.935 10.62-31.932 21.053-47.867 31.612-6.979 4.623-13.712 9.62-19.764 15.43-4.385 4.248-8.338 8.809-11.488 14.119-6.547 11.12-7.041 22.552-2.162 34.297 2.903 6.996 8.339 12.932 15.133 16.118 9.697 4.498 19.826 5.060 30.017 3.374 10.994-1.812 21.555-5.247 31.994-9.059 10.685-3.873 21.185-8.122 31.808-12.12 4.941-1.874 9.944-3.748 15.194-4.561 1.235-0.187 2.471-0.561 3.706-0.499 6.115 0.188 11.179 2.186 11.117 10.495 0 3.998-0.124 8.059-0.308 12.057-0.927 19.991-2.1 39.982-2.595 59.973-1.112 47.603-0.927 95.394 11.364 141.623 7.535 28.3 20.568 54.6 38.17 77.964 36.502 48.54 84.677 79.34 142.302 95.77 31.5 8.996 63.679 11.932 96.29 10.933 30.82-0.937 61.516-6.186 90.669-16.493 34.585-12.244 66.028-29.985 92.767-55.162 30.387-28.612 53.798-62.035 66.522-102.516 5.741-18.305 9.389-37.046 11.61-56.037 4.634-39.295 3.334-78.839 2.963-118.321l-0.186-0.125z" />
<glyph unicode="&#xe92a;" glyph-name="x" horiz-adv-x="1092" d="M2.635 960l421.709-563.983-424.336-458.556h95.529l371.542 401.452 300.17-401.452h325.024l-445.414 595.706 394.992 426.833h-95.526l-342.138-369.73-276.462 369.73h-325.092zM143.077 889.629h149.283l659.345-881.798h-149.286l-659.343 881.798z" />
<glyph unicode="&#xe92b;" glyph-name="instagram" horiz-adv-x="1092" d="M795.525 960h-530.010c-146.424 0-265.544-119.155-265.544-265.622v-485.024c0-146.466 119.12-265.619 265.544-265.619h530.010c146.425 0 265.544 119.153 265.544 265.619v485.024c0 146.467-119.119 265.622-265.544 265.622zM93.646 694.378c0 94.783 77.113 171.92 171.869 171.92h530.010c94.754 0 171.868-77.137 171.868-171.92v-485.024c0-94.781-77.114-171.916-171.868-171.916h-530.010c-94.755 0-171.869 77.135-171.869 171.916v485.024zM530.547 204.889c136.162 0 247.003 110.808 247.003 247.071s-110.781 247.073-247.003 247.073c-136.223 0-247.002-110.81-247.002-247.073s110.779-247.071 247.002-247.071zM530.547 605.271c84.554 0 153.328-68.792 153.328-153.371s-68.774-153.371-153.328-153.371c-84.554 0-153.326 68.792-153.326 153.371s68.771 153.371 153.326 153.371zM800.358 659.226c36.666 0 66.546 29.833 66.546 66.57s-29.826 66.571-66.546 66.571c-36.727 0-66.553-29.834-66.553-66.571s29.826-66.57 66.553-66.57z" />
<glyph unicode="&#xe92c;" glyph-name="facebook" horiz-adv-x="512" d="M343.176 729.261v-144.368h168.78l-26.726-194.473h-142.054v-448.059c-28.481-4.179-57.62-6.362-87.198-6.362-34.142 0-67.67 2.88-100.32 8.454v445.966h-155.658v194.473h155.658v176.641c0 109.588 83.951 198.466 187.562 198.466v-0.093c0.307 0 0.57 0.093 0.877 0.093h167.902v-168.19h-109.711c-32.606 0-59.068-28.001-59.068-62.502l-0.044-0.046z" />
<glyph unicode="&#xe92d;" glyph-name="headphone" horiz-adv-x="1000" d="M842.233 605.953c0 188.959-153.181 342.14-342.14 342.14s-342.139-153.181-342.139-342.14c-48.85-6.082-95.039-38.014-95.039-112.145v-178.671c0-83.635 58.544-114.047 114.046-114.047h55.122c10.496 0 19.008 8.511 19.008 19.008v367.99c0 10.495-8.511 19.006-19.008 19.006h-36.115c0 167.962 136.161 304.124 304.123 304.124s304.123-136.162 304.123-304.124h-36.114c-10.497 0-19.008-8.511-19.008-19.006v-367.421c0-10.497 8.511-19.008 19.008-19.008h36.114c-5.322-130.581-68.048-161.185-193.307-166.698v12.736c0 20.997-17.020 38.017-38.017 38.017h-119.558c-20.997 0-38.017-17.020-38.017-38.017v-61.773c0-20.997 17.020-38.017 38.017-38.017h119.939c20.997 0 38.014 17.020 38.014 38.017v11.023c120.511 5.513 224.673 30.413 230.945 205.853 48.85 6.084 95.037 38.017 95.037 112.147v178.671c0 74.511-45.997 106.253-95.037 112.335zM213.077 570.408v-330.733h-37.065c-28.131 0-76.031 9.883-76.031 76.031v178.671c0 65.579 47.329 76.031 76.031 76.031h37.065zM573.273 14.624v-28.891h-119.939v61.773h119.939v-32.882zM899.255 315.137c0-65.579-47.33-76.031-76.031-76.031h-36.114v329.973h37.064c28.131 0 76.031-9.885 76.031-76.031l-0.95-177.912z" />
<glyph unicode="&#xe92e;" d="M985.335 537.063l-417.681 0.020c-18.445 0-33.395-14.95-33.395-33.391v-133.431c0-18.441 14.95-33.391 33.395-33.391h235.209c-25.754-66.842-73.826-122.82-135.159-158.387l100.297-173.619c160.883 93.047 256 256.303 256 439.061 0 26.018-1.92 44.621-5.756 65.57-2.914 15.91-16.734 27.568-32.909 27.568z" />
<glyph unicode="&#xe92f;" d="M512 136.375c-115.107 0-215.595 62.891-269.565 155.959l-173.612-100.070c88.35-153.122 253.858-256.239 443.177-256.239 92.877 0 180.51 25.007 256 68.587v0.239l-100.292 173.619c-45.875-26.611-98.965-42.095-155.708-42.095z" />
<glyph unicode="&#xe930;" d="M768 4.557v0.239l-100.292 173.619c-45.879-26.603-98.961-42.091-155.708-42.091v-200.35c92.873 0 180.514 25.007 256 68.582z" />
<glyph unicode="&#xe931;" d="M200.348 447.987c0 56.738 15.484 109.821 42.086 155.695l-173.612 100.068c-43.818-75.254-68.822-162.65-68.822-255.763 0-93.111 25.004-180.506 68.822-255.761l173.612 100.066c-26.602 45.875-42.086 98.957-42.086 155.695z" />
<glyph unicode="&#xe932;" d="M512 759.652c75.063 0 144.013-26.672 197.867-71.038 13.286-10.944 32.593-10.154 44.766 2.016l94.537 94.54c13.811 13.808 12.826 36.41-1.924 49.206-90.231 78.278-207.629 125.624-335.245 125.624-189.319 0-354.827-103.114-443.177-256.238l173.612-100.068c53.97 93.066 154.458 155.958 269.565 155.958z" />
<glyph unicode="&#xe933;" d="M709.862 688.614c13.286-10.944 32.602-10.154 44.766 2.016l94.541 94.54c13.807 13.808 12.821 36.41-1.924 49.206-90.231 78.28-207.629 125.624-335.245 125.624v-200.348c75.059 0 144.009-26.672 197.862-71.038z" />
<glyph unicode="&#xe934;" d="M1024 448c0-282.77-229.23-512-512-512s-512 229.23-512 512c0 282.77 229.23 512 512 512s512-229.23 512-512z" />
<glyph unicode="&#xe935;" d="M644.962 619.008l-48.196-0.032c-37.79 0-45.116-17.952-45.116-44.288v-58.11h90.142l-11.746-91.042h-78.396v-233.536h-93.986v233.536h-78.592v91.042h78.592v67.102c0 77.92 47.582 120.32 117.056 120.32 33.28 0 61.888-2.464 70.242-3.584v-81.408zM512 960c-282.752 0-512-229.216-512-512 0-282.752 229.248-512 512-512 282.786 0 512 229.248 512 512 0 282.784-229.214 512-512 512z" />
<glyph unicode="&#xe936;" glyph-name="close" d="M1024 857.6l-102.4 102.4-409.6-409.6-409.6 409.6-102.4-102.4 409.6-409.6-409.6-409.6 102.4-102.4 409.6 409.6 409.6-409.6 102.4 102.4-409.6 409.6 409.6 409.6z" />
<glyph unicode="&#xe937;" glyph-name="headphone-2" d="M960 415.999v-95.999c0-42.432-16.858-83.13-46.861-113.139-30.010-30.003-70.707-46.861-113.139-46.861h-32c-25.459 0-49.882 10.112-67.885 28.115s-28.115 42.426-28.115 67.885v223.999c0 25.461 10.112 49.879 28.115 67.882s42.426 28.118 67.885 28.118h30.080c-8.141 70.163-41.786 134.886-94.528 181.865-52.749 46.979-120.918 72.935-191.552 72.935s-138.804-25.956-191.549-72.935c-52.746-46.979-86.388-111.702-94.531-181.865h30.080c25.461 0 49.879-10.114 67.882-28.118s28.118-42.421 28.118-67.882v-223.999c-0.056-19.808-6.236-39.11-17.694-55.264-11.458-16.16-27.632-28.378-46.306-34.976v-37.76c0-8.486 3.372-16.627 9.373-22.63 6.001-5.997 14.14-9.37 22.627-9.37h136.96c7.044 12.198 17.918 21.734 30.934 27.13 13.016 5.389 27.448 6.336 41.057 2.688s25.633-11.68 34.21-22.854c8.577-11.181 13.226-24.877 13.226-38.963s-4.649-27.782-13.226-38.963c-8.577-11.174-20.602-19.213-34.21-22.854-13.609-3.648-28.040-2.701-41.057 2.688-13.016 5.395-23.889 14.931-30.934 27.13h-136.96c-25.46 0-49.878 10.112-67.882 28.115s-28.118 42.426-28.118 67.885v32c-42.435 0-83.131 16.858-113.137 46.861-30.006 30.010-46.863 70.707-46.863 113.139v95.999c-0.046 31.173 9.015 61.681 26.070 87.774s41.36 46.637 69.93 59.106c6.558 88.617 46.389 171.475 111.5 231.944s150.682 94.077 239.54 94.077c88.86 0 174.432-33.607 239.539-94.077 65.114-60.47 104.941-143.327 111.501-231.944 28.928-12.179 53.638-32.597 71.046-58.714 17.414-26.117 26.758-56.778 26.874-88.166z" />
<glyph unicode="&#xe938;" glyph-name="sidebar" d="M360.727-52.364h279.273c252.742 0 360.727 107.985 360.727 360.727v279.273c0 252.742-107.985 360.727-360.727 360.727h-279.273c-252.742 0-360.727-107.985-360.727-360.727v-279.273c0-252.742 107.52-360.727 360.727-360.727zM640 878.545c214.575 0 290.909-76.335 290.909-290.909v-279.273c0-214.575-76.335-290.909-290.909-290.909h-279.273c-214.575 0-290.909 76.335-290.909 290.909v279.273c0 214.575 76.335 290.909 290.909 290.909h279.273zM686.545-52.364c19.084 0 34.909 15.825 34.909 34.909v930.909c0 19.084-15.825 34.909-34.909 34.909s-34.909-15.825-34.909-34.909v-930.909c0-19.084 15.36-34.909 34.909-34.909zM360.778 293.939c8.844 0 17.687 3.258 24.669 10.24l119.156 119.156c13.498 13.498 13.498 35.84 0 49.338l-119.156 119.157c-13.498 13.498-35.84 13.498-49.338 0s-13.498-35.84 0-49.338l94.022-94.488-94.487-94.487c-13.498-13.498-13.498-35.84 0-49.338 6.982-6.982 15.825-10.24 25.135-10.24z" />
<glyph unicode="&#xe939;" glyph-name="comment" d="M511.997 917.333c-82.816 0.037-164.167-21.85-235.783-63.437s-130.95-101.391-171.967-173.336c-41.017-71.945-62.258-153.466-61.564-236.279s23.299-163.966 65.517-235.214l-62.933-173.141c-2.345-6.446-3.103-13.358-2.209-20.156s3.413-13.278 7.344-18.898c3.931-5.615 9.158-10.206 15.238-13.375s12.834-4.824 19.691-4.83c4.974 0.011 9.91 0.876 14.592 2.56l173.141 62.976c62.139-36.813 131.935-58.783 203.955-64.21s144.322 5.842 211.275 32.933c66.953 27.085 126.748 69.257 174.734 123.233 47.991 53.976 82.87 118.3 101.934 187.961 19.063 69.665 21.794 142.787 7.976 213.677s-43.81 137.634-87.643 195.036c-43.833 57.403-100.318 103.915-165.069 135.916-64.745 32.001-136.004 48.628-208.228 48.585z" />
<glyph unicode="&#xe93a;" glyph-name="tag1" d="M993.792 469.505l-460.543 460.543c-18.689 18.432-44.29 29.952-72.449 29.952h-358.399c-56.577 0-102.401-45.823-102.401-102.401v-358.399c0-28.416 11.52-54.017 30.209-72.449l460.8-460.799c18.432-18.432 44.033-29.952 72.192-29.952s54.017 11.52 72.449 29.952l358.399 358.399c18.432 18.689 29.952 44.287 29.952 72.449 0 28.416-11.52 54.017-30.208 72.706zM179.201 703.999c-42.497 0-76.8 34.303-76.8 76.8s34.303 76.8 76.8 76.8c42.497 0 76.8-34.303 76.8-76.8s-34.306-76.8-76.8-76.8z" />
<glyph unicode="&#xe93b;" glyph-name="author" d="M505.453 466.74c67.763 0 126.444 24.306 174.389 72.26 47.947 47.944 72.248 106.607 72.248 174.379 0 67.752-24.301 126.422-72.256 174.383-47.953 47.938-106.625 72.242-174.381 72.242-67.774 0-126.44-24.304-174.383-72.25s-72.258-106.618-72.258-174.376c0-67.772 24.312-126.443 72.266-174.389 47.954-47.938 106.626-72.25 174.376-72.25zM937.005 172.602c-1.382 19.949-4.179 41.722-8.301 64.704-4.154 23.155-9.504 45.043-15.91 65.056-6.618 20.676-15.616 41.097-26.739 60.669-11.552 20.312-25.114 38-40.333 52.554-15.91 15.226-35.398 27.468-57.926 36.4-22.451 8.88-47.341 13.38-73.952 13.38-10.456 0-20.563-4.288-40.087-17-13.878-9.037-27.798-18.011-41.758-26.92-13.414-8.548-31.586-16.556-54.032-23.805-21.898-7.086-44.132-10.68-66.077-10.68-21.944 0-44.172 3.594-66.094 10.68-22.42 7.244-40.591 15.25-53.992 23.798-15.54 9.93-29.6 18.992-41.796 26.938-19.5 12.71-29.618 17-40.070 17-26.626 0-51.5-4.508-73.946-13.4-22.516-8.914-42.008-21.156-57.938-36.397-15.21-14.562-28.78-32.24-40.312-52.546-11.116-19.57-20.116-39.984-26.742-60.682-6.4-20.006-11.75-41.888-15.906-65.043-4.118-22.957-6.914-44.73-8.298-64.73-1.377-20.128-2.059-40.294-2.046-60.467 0-53.453 16.992-96.723 50.5-128.64 33.094-31.494 76.882-47.469 130.132-47.469h493.063c53.248 0 97.018 15.968 130.125 47.469 33.51 31.891 50.502 75.168 50.502 128.646-0.006 20.634-0.698 40.986-2.067 60.486z" />
<glyph unicode="&#xe93c;" glyph-name="linkin" d="M998.159-38.4l0.241 0.041v356.772c0 174.539-37.576 308.988-241.618 308.988-98.094 0-163.917-53.829-190.792-104.86h-2.836v88.566h-193.466v-649.465h201.448v321.592c0 84.675 16.051 166.55 120.914 166.55 103.316 0 104.858-96.631 104.858-171.982v-316.201h201.252zM41.651 611.065h201.694v-649.465h-201.694v649.465zM142.417 934.4c-64.488 0-116.817-52.328-116.817-116.817s52.328-117.912 116.817-117.912c64.489 0 116.817 53.423 116.817 117.912-0.022 30.975-12.336 60.676-34.239 82.578s-51.603 34.217-82.578 34.238z" />
<glyph unicode="&#xe93d;" glyph-name="pinterest" horiz-adv-x="819" d="M422.812 934.4c-266.62 0-408.412-170.855-408.412-357.155 0-86.401 48.278-194.141 125.558-228.312 11.735-5.294 18.119-3.041 20.733 7.839 2.311 8.274 12.465 48.097 17.39 66.888 1.52 6.016 0.73 11.249-4.134 16.901-25.659 29.671-46.028 83.725-46.028 134.434 0 129.935 103.304 256.101 279.085 256.101 152.009 0 258.351-98.744 258.351-239.989 0-159.609-84.454-270.022-194.204-270.022-60.742 0-105.979 47.667-91.63 106.644 17.329 70.228 51.317 145.745 51.317 196.394 0 45.42-25.658 82.996-78.071 82.996-61.836 0-111.998-61.229-111.998-143.434 0-52.23 18.484-87.495 18.484-87.495s-61.168-247.101-72.538-293.253c-19.214-78.131 2.614-204.662 4.499-215.542 1.155-6.021 7.904-7.905 11.674-2.98 6.019 7.9 79.955 113.398 100.689 189.64 7.54 27.791 38.489 140.457 38.489 140.457 20.369-36.787 79.165-67.615 141.792-67.615 186.299 0 320.919 163.743 320.919 366.946-0.671 194.812-167.393 340.556-381.965 340.556z" />
<glyph unicode="&#xe93e;" glyph-name="calender" d="M942.16 591.361v102.4c0 16.295-6.474 31.923-17.994 43.445-11.526 11.522-27.153 17.995-43.446 17.995h-737.279c-16.295 0-31.923-6.473-43.445-17.995s-17.995-27.15-17.995-43.445v-102.4h860.159zM82 550.401v-471.041c0-16.293 6.473-31.92 17.995-43.44 11.522-11.526 27.15-18 43.445-18h737.279c16.293 0 31.92 6.474 43.446 18 11.52 11.52 17.994 27.147 17.994 43.44v471.041h-860.159zM266.258 714.24c-5.432 0-10.64 2.158-14.482 5.998s-5.998 9.050-5.998 14.482v122.88c0 5.432 2.158 10.64 5.998 14.482s9.050 5.998 14.482 5.998c5.432 0 10.641-2.158 14.482-5.998s5.998-9.050 5.998-14.482v-122.88c0-5.432-2.158-10.641-5.998-14.482s-9.050-5.998-14.482-5.998zM757.777 714.24c-5.433 0-10.638 2.158-14.478 5.998-3.846 3.841-6.002 9.050-6.002 14.482v122.88c0 5.432 2.156 10.64 6.002 14.482 3.84 3.841 9.045 5.998 14.478 5.998s10.644-2.158 14.484-5.998c3.84-3.841 5.996-9.050 5.996-14.482v-122.88c0-5.432-2.156-10.641-5.996-14.482s-9.051-5.998-14.484-5.998z" />
<glyph unicode="&#xe93f;" glyph-name="heart-2" horiz-adv-x="1252" d="M625.823-64c-16.39 0-32.182 5.934-44.498 16.72-46.494 40.658-91.323 78.865-130.873 112.566l-0.202 0.176c-115.957 98.816-216.089 184.149-285.76 268.214-77.881 93.978-114.156 183.081-114.156 280.421 0 94.574 32.429 181.825 91.307 245.691 59.581 64.621 141.334 100.211 230.227 100.211 66.439 0 127.284-21.005 180.841-62.426 27.028-20.908 51.531-46.497 73.114-76.344 21.589 29.847 46.080 55.436 73.119 76.344 53.555 41.421 114.404 62.426 180.844 62.426 88.883 0 170.644-35.59 230.224-100.211 58.88-63.866 91.301-151.117 91.301-245.691 0-97.34-36.267-186.444-114.148-280.41-69.672-84.076-169.796-169.404-285.736-268.208-39.617-33.752-84.52-72.021-131.118-112.777-12.305-10.769-28.109-16.703-44.487-16.703zM371.868 892.578c-69.837 0-133.993-27.872-180.665-78.487-47.366-51.379-73.456-122.402-73.456-199.993 0-81.868 30.427-155.086 98.649-237.402 65.938-79.565 164.016-163.146 277.576-259.925l0.21-0.176c39.7-33.832 84.702-72.186 131.545-113.146 47.121 41.034 92.194 79.457 131.971 113.34 113.55 96.779 211.621 180.343 277.561 259.908 68.21 82.316 98.64 155.534 98.64 237.402 0 77.591-26.089 148.614-73.455 199.993-46.666 50.615-110.831 78.487-180.656 78.487-51.16 0-98.133-16.263-139.605-48.332-36.961-28.592-62.709-64.736-77.801-90.026-7.765-13.005-21.43-20.767-36.557-20.767-15.132 0-28.797 7.762-36.557 20.767-15.087 25.29-40.834 61.434-77.803 90.026-41.474 32.069-88.445 48.332-139.596 48.332z" />
<glyph unicode="&#xe940;" glyph-name="retangle" horiz-adv-x="931" d="M171.28 937.422c-92.32 52.956-167.166 9.574-167.166-96.819v-785.13c0-106.501 74.847-149.825 167.166-96.922l686.241 393.556c92.351 52.978 92.351 138.803 0 191.765l-686.241 393.55z" />
<glyph unicode="&#xe941;" glyph-name="arrow-right-3" horiz-adv-x="964" d="M699.44 712.323l-42.93-42.931 191.036-191.036h-847.547v-60.714h847.547l-191.036-191.031 42.93-42.936 264.325 264.326-264.325 264.322z" />
<glyph unicode="&#xe942;" glyph-name="plus" d="M575.887 511.887v448.113h-127.775v-448.113h-448.113v-127.775h448.113v-448.113h127.775v448.113h448.113v127.775h-448.113z" />
<glyph unicode="&#xe943;" glyph-name="minus" d="M0 521.146h1024v-146.287h-1024v146.287z" />
<glyph unicode="&#xe944;" glyph-name="check-2" horiz-adv-x="1229" d="M437.435 162.968l-353.96 372.916-83.475-87.884 437.435-460.8 791.365 833.716-83.476 87.884-707.888-745.832z" />
<glyph unicode="&#xe945;" glyph-name="arrow-right-down" d="M278.543-38.106l0.021 56.947c0.003 6.869 2.732 13.453 7.587 18.308s11.44 7.586 18.306 7.586l533.909-0.009-830.789 830.794c-4.853 4.859-7.579 11.447-7.577 18.314s2.731 13.454 7.587 18.31l40.276 40.277c10.106 10.106 26.508 10.106 36.623-0.010l830.786-830.795-0.017 533.943c0 6.867 2.731 13.451 7.586 18.307s11.439 7.584 18.304 7.587h56.951c6.865-0.003 13.449-2.732 18.304-7.587s7.586-11.44 7.59-18.307l0.009-693.666c-0.004-6.869-2.731-13.453-7.586-18.308s-11.439-7.582-18.308-7.586h-693.67c-6.867 0.004-13.451 2.731-18.307 7.586s-7.584 11.439-7.587 18.308z" />
<glyph unicode="&#xe946;" glyph-name="delivery-2" d="M879.186 164.521c-17.352-0.010-34.319 5.125-48.753 14.756s-25.687 23.327-32.338 39.352c-6.651 16.031-8.397 33.669-5.018 50.693 3.379 17.019 11.725 32.655 23.992 44.928 12.268 12.278 27.899 20.639 44.918 24.028 17.014 3.389 34.657 1.659 50.688-4.982 16.036-6.636 29.737-17.879 39.383-32.307 9.641-14.428 14.787-31.391 14.787-48.742-0.010-23.25-9.247-45.548-25.682-61.993-16.435-16.451-38.728-25.702-61.978-25.733zM879.186 307.968c-11.023 0.015-21.801-3.246-30.976-9.359-9.17-6.113-16.323-14.812-20.552-24.996-4.224-10.179-5.34-21.386-3.195-32.2 2.14-10.813 7.444-20.746 15.237-28.544 7.788-7.803 17.715-13.117 28.529-15.268 10.808-2.156 22.016-1.060 32.205 3.159 10.184 4.214 18.893 11.356 25.016 20.521s9.395 19.942 9.395 30.966c-0.005 14.766-5.868 28.923-16.302 39.373-10.44 10.445-24.591 16.328-39.357 16.348zM416.808 164.521c-17.353-0.015-34.322 5.115-48.759 14.746s-25.694 23.322-32.347 39.352c-6.652 16.026-8.402 33.664-5.027 50.688s11.723 32.66 23.988 44.938c12.264 12.278 27.895 20.639 44.914 24.033 17.019 3.389 34.661 1.659 50.695-4.977 16.034-6.641 29.74-17.884 39.383-32.312s14.79-31.391 14.79-48.742c-0.017-23.245-9.253-45.537-25.682-61.983s-38.71-25.702-61.956-25.743zM416.808 307.968c-11.024 0.015-21.806-3.236-30.981-9.349s-16.33-14.807-20.56-24.991c-4.231-10.179-5.346-21.386-3.206-32.2s7.441-20.751 15.23-28.554c7.79-7.803 17.718-13.117 28.53-15.273s22.020-1.060 32.207 3.154c10.187 4.219 18.894 11.361 25.021 20.526s9.397 19.942 9.397 30.966c-0.011 14.761-5.874 28.913-16.303 39.357s-24.574 16.333-39.334 16.364zM994.55 236.247h-43.75c-4.244 0-8.315 1.684-11.315 4.685s-4.685 7.071-4.685 11.315c0 4.244 1.684 8.315 4.685 11.315s7.071 4.685 11.315 4.685h39.229v84.844c-0.010 11.469-2.949 22.748-8.535 32.768l-86.61 155.284c-0.742 1.325-1.823 2.429-3.128 3.197-1.311 0.769-2.801 1.175-4.316 1.176h-118.042v-277.335h38.103c4.244 0 8.315-1.684 11.315-4.685s4.685-7.071 4.685-11.315c0-4.239-1.684-8.31-4.685-11.31s-7.071-4.69-11.315-4.69h-54.103c-4.239 0-8.31 1.69-11.31 4.69s-4.69 7.071-4.69 11.31v309.335c0 4.243 1.69 8.313 4.69 11.314s7.071 4.686 11.31 4.686h134.042c7.214 0.004 14.305-1.921 20.531-5.574s11.361-8.902 14.879-15.205l86.595-155.309c8.233-14.781 12.554-31.421 12.564-48.338v-89.39c-0.010-7.276-2.908-14.254-8.054-19.4s-12.124-8.044-19.405-8.054zM345.208 236.247h-153.408c-4.243 0-8.313 1.684-11.314 4.685s-4.686 7.071-4.686 11.315v123.049c0 4.244 1.686 8.315 4.686 11.315s7.070 4.685 11.314 4.685c4.243 0 8.313-1.684 11.314-4.685s4.686-7.071 4.686-11.315v-107.049h137.408c4.243 0 8.313-1.684 11.314-4.685s4.686-7.071 4.686-11.315c0-4.244-1.686-8.315-4.686-11.315s-7.070-4.685-11.314-4.685zM191.8 432.067c-4.243 0-8.313 1.684-11.314 4.685s-4.686 7.071-4.686 11.314v107.434c0 4.243 1.686 8.313 4.686 11.314s7.070 4.686 11.314 4.686c4.243 0 8.313-1.686 11.314-4.686s4.686-7.070 4.686-11.314v-107.498c-0.017-4.231-1.71-8.286-4.709-11.271-2.999-2.99-7.058-4.664-11.291-4.664zM753.398 236.247h-264.894c-4.243 0-8.313 1.684-11.314 4.685s-4.686 7.071-4.686 11.315c0 4.244 1.686 8.315 4.686 11.315s7.070 4.685 11.314 4.685h248.894v418.581h-529.598v-65.898c0-4.243-1.686-8.313-4.686-11.314s-7.070-4.686-11.314-4.686c-4.243 0-8.313 1.686-11.314 4.686s-4.686 7.070-4.686 11.314v68.842c0.011 7.707 3.079 15.094 8.53 20.541s12.841 8.509 20.547 8.515h535.464c7.706-0.011 15.089-3.076 20.536-8.523s8.509-12.831 8.52-20.533v-437.525c0-4.244-1.684-8.315-4.685-11.315s-7.071-4.685-11.315-4.685zM255.072 359.296h-203.072c-4.243 0-8.313 1.684-11.313 4.685-3.001 3.005-4.686 7.071-4.686 11.315s1.686 8.315 4.686 11.315c3.001 3 7.070 4.685 11.313 4.685h203.072c4.243 0 8.313-1.684 11.314-4.685s4.686-7.071 4.686-11.315c0-4.244-1.686-8.31-4.686-11.315-3.001-3-7.071-4.685-11.314-4.685zM416.971 432.061h-283.37c-4.244 0-8.313 1.684-11.314 4.685-3 3.005-4.686 7.071-4.686 11.316 0 4.243 1.686 8.313 4.686 11.314s7.070 4.686 11.314 4.686h283.37c4.243 0 8.313-1.686 11.314-4.686s4.686-7.070 4.686-11.314c0-4.246-1.686-8.311-4.686-11.316-3.001-3-7.070-4.685-11.314-4.685zM124.656 516.544h-110.656c-4.244 0-8.313 1.686-11.314 4.686s-4.686 7.070-4.686 11.314c0 4.243 1.686 8.313 4.686 11.314s7.070 4.686 11.314 4.686h110.656c4.243 0 8.313-1.686 11.314-4.686s4.686-7.070 4.686-11.314c0-4.244-1.686-8.313-4.686-11.314s-7.070-4.686-11.314-4.686zM302.128 604.928h-195.328c-4.243 0-8.313 1.686-11.314 4.686s-4.686 7.070-4.686 11.314c0 4.243 1.686 8.313 4.686 11.314s7.070 4.686 11.314 4.686h195.328c4.243 0 8.313-1.686 11.314-4.686s4.686-7.070 4.686-11.314c0-4.243-1.686-8.313-4.686-11.314s-7.070-4.686-11.314-4.686z" />
<glyph unicode="&#xe947;" glyph-name="description" d="M512 582.737c-29.75 0-53.895 24.199-53.895 53.895s24.144 53.895 53.895 53.895c29.75 0 53.895-24.199 53.895-53.895s-24.144-53.895-53.895-53.895zM565.895 205.473h-107.789c-14.875 0-26.947 12.076-26.947 26.948 0 14.875 12.072 26.947 26.947 26.947h26.947v215.579h-26.947c-14.875 0-26.947 12.072-26.947 26.947s12.072 26.947 26.947 26.947h53.895c14.875 0 26.947-12.072 26.947-26.947v-242.526h26.947c14.875 0 26.947-12.072 26.947-26.947 0-14.872-12.072-26.948-26.947-26.948zM512 906.105c-252.605 0-458.105-205.501-458.105-458.105 0-252.606 205.501-458.108 458.105-458.108 252.606 0 458.108 205.502 458.108 458.108 0 252.605-205.502 458.105-458.108 458.105zM512-64c-282.301 0-512 229.698-512 512 0 282.301 229.699 512 512 512 282.302 0 512-229.699 512-512 0-282.302-229.698-512-512-512z" />
<glyph unicode="&#xe948;" glyph-name="ask" d="M512 960c-282.982 0-512-228.992-512-512 0-282.977 228.992-512 512-512 282.982 0 512 228.995 512 512 0 282.982-228.995 512-512 512zM512 7.441c-242.924 0-440.558 197.632-440.558 440.559s197.634 440.558 440.558 440.558c242.927 0 440.559-197.632 440.559-440.558s-197.632-440.559-440.559-440.559zM496.775 312.155c-28.306 0-51.22-23.592-51.22-51.894 0-27.637 22.24-51.894 51.22-51.894s51.892 24.257 51.892 51.894c0 28.302-23.588 51.894-51.892 51.894zM505.657 705.063c-90.984 0-132.768-53.918-132.768-90.31 0-26.284 22.24-38.416 40.436-38.416 36.394 0 21.568 51.896 90.31 51.896 33.696 0 60.656-14.828 60.656-45.83 0-36.392-37.742-57.284-59.983-76.154-19.546-16.846-45.154-44.48-45.154-102.44 0-35.044 9.436-45.153 37.066-45.153 33.022 0 39.762 14.825 39.762 27.631 0 35.046 0.674 55.264 37.742 84.243 18.199 14.152 75.48 59.983 75.48 123.332s-57.281 111.2-143.548 111.2z" />
<glyph unicode="&#xe949;" glyph-name="gift" d="M1001.741 693.461h-313.344c27.78 14.114 54.626 31.476 76.267 53.114 48.883 48.884 48.883 128.4 0 177.286-47.373 47.372-129.916 47.416-177.289 0-34.906-34.904-59.524-82.9-75.375-127.51-15.851 44.61-40.469 92.606-75.375 127.51-47.417 47.416-130.005 47.372-177.287 0-48.884-48.884-48.884-128.4 0-177.286 21.638-21.638 48.484-39 76.266-53.114h-313.344c-12.288 0-22.26-9.972-22.26-22.26v-178.085c0-12.288 9.972-22.259 22.26-22.259h22.26v-512c0-12.288 9.972-22.263 22.26-22.263h890.434c12.288 0 22.259 9.975 22.259 22.263v512h22.259c12.288 0 22.263 9.971 22.263 22.259v178.085c0.004 12.288-9.967 22.26-22.255 22.26zM400.696-18.889h-311.652v489.741h311.652v-489.741zM400.696 515.375h-356.174v133.564h356.174v-133.564zM290.816 778.053c-31.522 31.522-31.522 82.81 0 114.332 15.27 15.316 35.572 23.686 57.166 23.686s41.85-8.37 57.166-23.686c57.209-57.21 84.102-163.394 84.725-198.21 0-0.222-0.047-0.534-0.047-0.712h-2.445c-36.198 1.244-140.067 28.136-196.565 84.59zM578.782-18.889h-133.568v489.741h133.568v-489.741zM578.782 515.375h-133.568v133.564h133.568v-133.564zM536.619 693.461h-2.445c0 0.178-0.047 0.49-0.047 0.712 0.623 34.816 27.516 141 84.723 198.21 15.317 15.316 35.575 23.686 57.169 23.686s41.894-8.37 57.165-23.686c31.522-31.522 31.522-82.81 0-114.332-56.499-56.452-160.367-83.344-196.565-84.59zM934.955-18.889h-311.65v489.741h311.65v-489.741zM979.477 515.375h-356.173v133.564h356.173v-133.564z" />
<glyph unicode="&#xe94a;" glyph-name="engrave" d="M512 960c-283.006 0-512-229.014-512-512 0-283.008 229.014-512 512-512 283.008 0 512 229.011 512 512 0 283.006-229.018 512-512 512zM512 16c-238.786 0-432 193.229-432 432 0 238.786 193.23 432 432 432 238.784 0 432-193.23 432-432 0-238.784-193.229-432-432-432zM512 531.34c-22.092 0-40-17.908-40-40v-257.587c0-22.093 17.908-40 40-40s40 17.907 40 40v257.587c0 22.092-17.908 40-40 40zM512 580.32c29.823 0 54 24.177 54 54s-24.177 54-54 54c-29.823 0-54-24.176-54-54s24.177-54 54-54z" />
<glyph unicode="&#xe94b;" glyph-name="shield" d="M914.091 807.974l-394.381 132.772c-4.971 1.672-10.351 1.672-15.317 0l-394.384-132.772c-9.766-3.288-16.342-12.442-16.342-22.746v-329.65c0-244.16 174.044-454.925 413.841-501.146 1.498-0.286 3.021-0.431 4.54-0.431 1.523 0 3.042 0.145 4.544 0.431 239.795 46.221 413.841 256.986 413.841 501.146v329.65c0 10.306-6.575 19.46-16.341 22.746zM882.432 455.578c0-219.657-155.477-409.472-370.381-453.111-214.906 43.639-370.383 233.455-370.383 453.111v312.406l370.383 124.692 370.381-124.692v-312.406zM467.499 360.875l252.548 241.799c9.574 9.166 24.764 8.836 33.933-0.738 9.165-9.574 8.836-24.766-0.738-33.934l-268.804-257.367c-4.634-4.437-10.615-6.665-16.597-6.665-5.815 0-11.639 2.108-16.235 6.323l-149.913 137.677c-9.762 8.964-10.408 24.149-1.444 33.911 8.966 9.762 24.15 10.406 33.912 1.446l133.338-122.453z" />
<glyph unicode="&#xe94c;" glyph-name="filter" d="M398.222 106.662h227.556v113.779h-227.556v-113.779zM0 789.332v-113.777h1024v113.777h-1024zM170.667 391.11h682.664v113.778h-682.664v-113.778z" />
<glyph unicode="&#xe94d;" glyph-name="clip-board" horiz-adv-x="981" d="M329.973 135.266h269.865c44.646 0 80.96 36.318 80.96 80.96v377.814c0 44.644-36.314 80.96-80.96 80.96h-269.865c-44.644 0-80.96-36.316-80.96-80.96v-377.814c0-44.642 36.316-80.96 80.96-80.96zM302.986 594.040c0 14.877 12.097 26.987 26.987 26.987h269.865c14.891 0 26.987-12.11 26.987-26.987v-377.814c0-14.878-12.096-26.987-26.987-26.987h-269.865c-14.89 0-26.987 12.109-26.987 26.987v377.814zM788.745 432.090v269.867c0 44.644-36.314 80.96-80.96 80.96h-269.867c-14.902 0-26.985-12.084-26.985-26.987s12.083-26.987 26.985-26.987h269.867c14.891 0 26.987-12.11 26.987-26.987v-269.867c0-14.903 12.083-26.987 26.987-26.987s26.987 12.083 26.987 26.987z" />
<glyph unicode="&#xe94e;" glyph-name="delivery-3" d="M694.010 251.347h-401.421c-11.502 0-20.815 9.322-20.815 20.82s9.313 20.82 20.815 20.82h380.605v353.63c0 36.514-29.712 66.222-66.232 66.222h-454.059c-36.519 0-66.232-29.708-66.232-66.222v-331.885c0-11.993 9.759-21.746 21.755-21.746h44.477c11.502 0 20.815-9.322 20.815-20.82s-9.314-20.82-20.815-20.82h-44.477c-34.951 0-63.386 28.434-63.386 63.386v331.885c0 59.474 48.389 107.863 107.863 107.863h454.059c59.474 0 107.86-48.389 107.86-107.863v-374.45c0-11.497-9.31-20.82-20.812-20.82zM931.373 251.384h-20.169c-11.502 0-20.816 9.322-20.816 20.82s9.314 20.82 20.816 20.82h20.169c3.26 0 5.915 2.65 5.915 5.906v164.25c0 7.86-2.216 15.54-6.39 22.2l-72.659 115.742c-7.688 12.247-20.906 19.557-35.361 19.557h-107.966v-327.656h56.513c11.502 0 20.812-9.322 20.812-20.82s-9.31-20.82-20.812-20.82h-77.328c-11.502 0-20.816 9.322-20.816 20.82v369.296c0 11.497 9.314 20.82 20.816 20.82h128.782c28.873 0 55.276-14.605 70.619-39.060l72.663-115.745c8.352-13.308 12.759-28.635 12.759-44.335v-164.25c0-26.218-21.328-47.546-47.546-47.546zM222.75 141.607c-53.995 0-97.91 43.926-97.91 97.915 0 53.993 43.916 97.919 97.91 97.919s97.91-43.926 97.91-97.919c0-53.989-43.916-97.915-97.91-97.915zM222.75 295.801c-31.030 0-56.279-25.248-56.279-56.279s25.25-56.275 56.279-56.275c31.029 0 56.279 25.244 56.279 56.275s-25.25 56.279-56.279 56.279zM841.351 141.607c-53.993 0-97.911 43.926-97.911 97.915 0 53.993 43.917 97.919 97.911 97.919s97.919-43.926 97.919-97.919c0-53.989-43.926-97.915-97.919-97.915zM841.351 295.801c-31.031 0-56.279-25.248-56.279-56.279s25.248-56.275 56.279-56.275c31.039 0 56.287 25.244 56.287 56.275s-25.248 56.279-56.287 56.279z" />
<glyph unicode="&#xe94f;" glyph-name="note" d="M856.453 870.299h-707.791c-15.643 0-30.645-6.214-41.707-17.275s-17.276-26.064-17.276-41.707v-707.79c0-15.643 6.214-30.642 17.276-41.705s26.064-17.277 41.707-17.277h540.281l228.065 228.065v538.707c0 7.88-1.577 15.681-4.637 22.941-3.064 7.261-7.549 13.834-13.193 19.332s-12.333 9.81-19.673 12.679c-7.336 2.87-15.176 4.24-23.052 4.030zM679.899 92.516v150.602c0 4.854 0.954 9.662 2.81 14.148 1.86 4.485 4.583 8.557 8.016 11.989s7.504 6.156 11.989 8.012c4.485 1.86 9.29 2.814 14.148 2.814h150.602l-187.564-187.564zM716.861 319.402c-20.234 0-39.637-8.036-53.944-22.344-14.303-14.303-22.34-33.706-22.34-53.94v-159.252h-491.915c-5.214 0-10.215 2.073-13.902 5.759s-5.759 8.688-5.759 13.902v707.79c0 5.215 2.071 10.215 5.759 13.903s8.688 5.758 13.902 5.758h707.791c5.214 0 10.211-2.071 13.902-5.758 3.686-3.687 5.759-8.688 5.759-13.903v-491.914h-159.252z" />
<glyph unicode="&#xe950;" glyph-name="quote-4" horiz-adv-x="1040" d="M8 374.856h219.429l-146.287-292.57h219.428l146.286 292.57v438.857h-438.856v-438.857zM593.125 813.713v-438.857h219.429l-146.286-292.57h219.427l146.286 292.57v438.857h-438.856z" />
<glyph unicode="&#xe951;" glyph-name="video" d="M512 960c-282.768 0-512-229.232-512-512s229.232-512 512-512c282.788 0 512 229.233 512 512s-229.212 512-512 512zM512 38.4c-225.854 0-409.6 183.747-409.6 409.6s183.746 409.6 409.6 409.6c225.853 0 409.6-183.746 409.6-409.6s-183.747-409.6-409.6-409.6zM698.225 483.84l-248.301 143.36c-34.14 19.702-62.074 3.584-62.074-35.84v-286.72c0-39.424 27.934-55.562 62.074-35.84l248.301 143.36c34.14 19.702 34.14 51.978 0 71.68z" />
<glyph unicode="&#xe952;" glyph-name="user-2" d="M512 908.8c-133.99 0-243-109.010-243-243s109.009-243.001 243-243.001c133.99 0 243 109.010 243 243.001s-109.010 243-243 243zM512 476.8c-104.215 0-189 84.785-189 189s84.786 189 189 189c104.212 0 189-84.785 189-189s-84.787-189-189-189zM814.341 264.049c-66.529 67.553-154.726 104.75-248.34 104.75h-108.001c-93.614 0-181.811-37.197-248.338-104.75-66.203-67.22-102.662-155.95-102.662-249.851 0-14.909 12.089-26.998 27-26.998h755.999c14.909 0 27.003 12.088 27.003 26.998 0 93.901-36.46 182.63-102.661 249.851zM162.188 41.201c13.527 153.155 141.032 273.597 295.812 273.597h108.001c154.778 0 282.286-120.443 295.813-273.597h-699.626z" />
<glyph unicode="&#xe953;" glyph-name="search-2" d="M963.625 41.518l-248.909 248.909c-0.010 0.015-0.010 0.036 0 0.051 53.284 62.838 84.244 141.558 88.044 223.854 10.711 222.964-166.712 402.439-389.785 394.195-196.488-7.437-354.065-165.015-361.502-361.502-8.242-223.072 171.234-400.496 394.2-389.779 82.296 3.804 161.006 34.765 223.844 88.038 0.015 0.015 0.036 0.015 0.051 0l248.914-248.909c12.564-12.37 32.773-12.211 45.143 0.348 12.232 12.426 12.232 32.369 0 44.795zM123.158 460.378c-24.505 109.384 7.504 217.336 83.318 293.149s183.763 107.823 293.151 83.316c103.49-23.192 208.424-128.116 231.618-231.597 24.52-109.396-7.491-217.36-83.313-293.177-75.817-75.822-183.786-107.832-293.182-83.308-103.48 23.194-208.399 128.133-231.591 231.616z" />
<glyph unicode="&#xe954;" glyph-name="menu-home" d="M416 384h-320c-17.672 0-32-14.326-32-32v-320c0-17.674 14.328-32 32-32h320c17.672 0 32 14.326 32 32v320c0 17.674-14.328 32-32 32zM384 64h-256v256h256v-256zM928 384h-320c-17.674 0-32-14.326-32-32v-320c0-17.674 14.326-32 32-32h320c17.674 0 32 14.326 32 32v320c0 17.674-14.326 32-32 32zM896 64h-256v256h256v-256zM416 896h-320c-17.672 0-32-14.328-32-32v-320c0-17.672 14.328-32 32-32h320c17.672 0 32 14.328 32 32v320c0 17.672-14.328 32-32 32zM384 576h-256v256h256v-256zM928 896h-320c-17.674 0-32-14.328-32-32v-320c0-17.672 14.326-32 32-32h320c17.674 0 32 14.328 32 32v320c0 17.672-14.326 32-32 32zM896 576h-256v256h256v-256z" />
<glyph unicode="&#xe955;" glyph-name="cart-2" d="M1017.646 691.398c-5.688 7.282-14.408 11.538-23.644 11.538h-747.778c-6.284 25.136-16.912 67.652-27.416 109.647-21.696 86.796-99.336 147.417-188.808 147.417-16.568 0-30-13.432-30-30s13.432-30 30-30c61.888 0 115.592-41.929 130.6-101.971l108.192-432.784c8.234-32.932 27.486-60.692 53.226-79.816-51.464-48.916-39.944-138.45 21.178-173.235-54.168-70.851-1.452-177.019 88.474-176.184 81.333-1.101 136.25 89.236 98.132 160.666h157.199c-38.108-71.439 16.788-161.766 98.135-160.666 146.161 5.54 146.135 215.137-0.005 220.662h-385.597c-66.698 2.54-66.648 98.156 0 100.669h410.26c65.495 0 122.332 44.37 138.214 107.909l75.095 300.412c2.243 8.96 0.23 18.456-5.458 25.736zM785.132 96.671c27.756 0 50.335-22.579 50.335-50.33-2.529-66.683-98.145-66.668-100.664 0 0 27.75 22.579 50.33 50.33 50.33zM431.668 96.671c27.754 0 50.334-22.579 50.334-50.33-2.53-66.683-98.146-66.668-100.668 0 0 27.75 22.58 50.33 50.334 50.33zM889.8 379.796c-9.196-36.772-42.092-62.459-80.005-62.459h-402.79c-37.912 0-70.81 25.687-80.004 62.459l-65.778 263.138h694.354l-65.777-263.138z" />
<glyph unicode="&#xe956;" glyph-name="hearth-3" d="M512 38.4c-13.121 0-25.769 4.751-35.628 13.373-37.23 32.527-73.125 63.094-104.794 90.056l-0.162 0.138c-92.848 79.053-173.025 147.323-228.811 214.574-62.36 75.182-91.406 146.464-91.406 224.336 0 75.659 25.967 145.46 73.111 196.553 47.707 51.697 113.168 80.169 184.345 80.169 53.198 0 101.918-16.804 144.802-49.941 21.642-16.727 41.26-37.197 58.542-61.075 17.29 23.878 36.9 44.348 58.547 61.075 42.885 33.137 91.607 49.941 144.804 49.941 71.168 0 136.637-28.472 184.346-80.169 47.145-51.093 73.103-120.893 73.103-196.553 0-77.872-29.041-149.154-91.397-224.331-55.788-67.256-135.956-135.516-228.792-214.564-31.724-27.003-67.676-57.62-104.991-90.22-9.851-8.612-22.508-13.363-35.62-13.363zM308.656 803.662c-55.92 0-107.29-22.297-144.661-62.789-37.926-41.103-58.816-97.922-58.816-159.995 0-65.494 24.363-124.068 78.989-189.92 52.797-63.657 131.33-130.519 222.258-207.944l0.169-0.138c31.788-27.069 67.824-57.754 105.328-90.516 37.73 32.829 73.821 63.56 105.672 90.67 90.921 77.425 169.446 144.271 222.244 207.928 54.62 65.851 78.981 124.426 78.981 189.92 0 62.073-20.89 118.892-58.813 159.995-37.366 40.492-88.745 62.789-144.655 62.789-40.965 0-78.577-13.010-111.785-38.665-29.594-22.874-50.207-51.789-62.295-72.020-6.216-10.404-17.157-16.614-29.271-16.614-12.115 0-23.055 6.21-29.271 16.614-12.080 20.232-32.695 49.147-62.297 72.020-33.208 25.655-70.819 38.665-111.776 38.665z" />
<glyph unicode="&#xe957;" glyph-name="gift1" d="M982.151 683.652h-300.81c26.669 13.55 52.441 30.217 73.216 50.989 46.928 46.929 46.928 123.264 0 170.195-45.478 45.477-124.719 45.519-170.197 0-33.509-33.508-57.143-79.584-72.36-122.41-15.217 42.826-38.851 88.902-72.36 122.41-45.52 45.519-124.805 45.477-170.196 0-46.928-46.929-46.928-123.264 0-170.195 20.772-20.772 46.545-37.44 73.216-50.989h-300.81c-11.797 0-21.37-9.573-21.37-21.37v-170.963c0-11.796 9.573-21.369 21.37-21.369h21.37v-491.52c0-11.796 9.573-21.369 21.37-21.369h854.816c11.796 0 21.369 9.572 21.369 21.369v491.52h21.369c11.796 0 21.373 9.572 21.373 21.369v170.963c0.004 11.796-9.568 21.37-21.365 21.37zM405.148-0.201h-299.186v470.151h299.186v-470.151zM405.148 512.688h-341.927v128.223h341.927v-128.223zM299.663 764.861c-30.261 30.261-30.261 79.497 0 109.758 14.659 14.703 34.149 22.739 54.879 22.739s40.176-8.035 54.879-22.739c54.921-54.922 80.738-156.858 81.336-190.282 0-0.213-0.045-0.512-0.045-0.683h-2.347c-34.75 1.194-134.465 27.010-188.703 81.206zM576.111-0.201h-128.225v470.151h128.225v-470.151zM576.111 512.688h-128.225v128.223h128.225v-128.223zM535.634 683.652h-2.347c0 0.171-0.045 0.471-0.045 0.684 0.598 33.423 26.415 135.36 81.334 190.281 14.705 14.703 34.152 22.739 54.882 22.739s40.219-8.036 54.878-22.739c30.261-30.261 30.261-79.497 0-109.758-54.239-54.194-153.952-80.010-188.703-81.206zM918.036-0.201h-299.184v470.151h299.184v-470.151zM960.778 512.688h-341.926v128.223h341.926v-128.223z" />
<glyph unicode="&#xe958;" glyph-name="show-password" d="M639.127 439.374l58.159 58.16c4.23-15.832 6.714-32.384 6.714-49.536 0-105.872-86.129-191.998-192.001-191.998-17.152 0-33.704 2.477-49.536 6.707l58.16 58.163c30.741 2.088 59.685 15.244 81.473 37.031s34.943 50.732 37.031 81.473zM1019.968 463.542c-3.936 7.080-59.763 104.896-168.883 187.792l-46.566-46.568c79.571-58.504 129.984-126.736 149.83-156.816-37.926-57.752-186.707-255.95-442.349-255.95-38.336 0-73.984 4.902-107.528 12.723l-52.584-52.582c48.344-14.822 101.48-24.141 160.112-24.141 334.983 0 501.063 292.030 507.969 304.454 2.643 4.754 4.032 10.104 4.032 15.544s-1.389 10.79-4.032 15.544zM886.624 777.374l-704.001-703.998c-6.248-6.253-14.44-9.376-22.624-9.376s-16.376 3.123-22.624 9.376c-2.973 2.97-5.332 6.496-6.941 10.374-1.61 3.885-2.438 8.045-2.438 12.25 0 4.198 0.828 8.358 2.438 12.243s3.968 7.411 6.941 10.381l89.568 89.568c-144.8 87.411-218.376 216.094-222.912 224.262-2.644 4.756-4.031 10.107-4.031 15.548s1.387 10.792 4.031 15.548c6.904 12.416 172.984 304.448 507.968 304.448 86.616 0 161.639-19.76 225.773-48.976l103.603 103.6c12.506 12.504 32.749 12.504 45.248 0 12.493-12.504 12.506-32.752 0-45.248zM274.663 255.91l81.016 81.016c-22.376 31.392-35.68 69.672-35.68 111.072 0 105.872 86.128 192 192 192 41.4 0 79.68-13.304 111.072-35.672l65.511 65.512c-51.759 20.728-110.575 34.16-176.583 34.16-255.64 0-404.424-198.2-442.344-255.952 24.080-36.496 93.296-128.878 205.008-192.136zM402.135 383.39l174.472 174.472c-19.032 11.24-40.944 18.136-64.608 18.136-70.576 0-128-57.424-128-128 0-23.664 6.896-45.576 18.136-64.608z" />
<glyph unicode="&#xe971;" glyph-name="btn3d" horiz-adv-x="878" d="M374.58-45.909l-312.074 190.464c-19.203 11.927-35.028 28.584-45.956 48.372-10.928 19.792-16.595 42.052-16.461 64.658v380.832c-0.116 22.591 5.551 44.835 16.458 64.619s26.695 36.45 45.86 48.411l312.074 190.17c19.372 11.976 41.689 18.341 64.465 18.384 22.762 0.006 45.079-6.308 64.464-18.238v0l312.076-190.17c19.227-11.989 35.055-28.715 45.968-48.574s16.54-42.186 16.35-64.846v-380.783c0.127-22.601-5.539-44.856-16.457-64.644s-26.722-36.445-45.909-48.386l-312.076-190.464c-19.425-11.761-41.708-17.954-64.415-17.896-22.709 0.010-44.977 6.271-64.366 18.091v0zM425.487 858.673l-312.077-190.173c-4.922-3.243-8.938-7.679-11.676-12.898s-4.106-11.051-3.976-16.944v-380.829c-0.133-5.876 1.229-11.683 3.958-16.886s6.738-9.63 11.646-12.859l276.822-169.204v368.689c0.056 15.57 4.316 30.832 12.333 44.183 8.016 13.345 19.493 24.278 33.211 31.641l317.537 171.789-300.665 183.393c-4.090 2.567-8.826 3.92-13.654 3.902-4.753 0.014-9.415-1.304-13.459-3.803v0z" />
<glyph unicode="&#xe975;" glyph-name="trash" d="M880.003 672h-736.003c-17.664 0-32 14.336-32 32s14.336 32 32 32h736.003c17.664 0 31.994-14.336 31.994-32s-14.33-32-31.994-32zM709.78 0h-395.613c-17.664 0-32 14.336-32 32s14.336 32 32 32h395.63c17.664 0 32-14.336 32-32s-14.336-32-32.017-32zM709.831 0c-17.664 0-32 14.336-32 32s14.336 32 32 32c16.577 0 30.288 12.447 31.841 28.962 1.667 17.596 17.203 30.447 34.896 28.831 17.601-1.684 30.498-17.3 28.831-34.896-4.716-49.539-45.79-86.898-95.568-86.898zM773.535 57.936c-1.013 0-2.037 0.051-3.061 0.142-17.596 1.684-30.492 17.3-28.831 34.901l58.482 614.062c1.661 17.6 17.232 30.464 34.896 28.832 17.601-1.68 30.498-17.296 28.831-34.896l-58.482-614.062c-1.599-16.577-15.536-28.979-31.835-28.979zM314.213 0c-49.76 0-90.848 37.359-95.568 86.898-1.664 17.601 11.232 33.217 28.832 34.896 17.808 1.678 33.216-11.247 34.896-28.831 1.568-16.515 15.264-28.962 31.84-28.962 17.664 0 32-14.336 32-32s-14.336-32-32-32zM250.449 57.936c-16.32 0-30.256 12.402-31.824 28.974l-58.48 614.067c-1.664 17.6 11.232 33.216 28.832 34.896 17.536 1.648 33.216-11.232 34.896-28.832l58.48-614.066c1.664-17.596-11.232-33.212-28.832-34.896-1.040-0.097-2.048-0.142-3.072-0.142zM608 832h-192c-17.664 0-32 14.336-32 32s14.336 32 32 32h192c17.664 0 32-14.336 32-32s-14.336-32-32-32zM672 768c-17.664 0-32 14.336-32 32 0 17.648-14.353 32-32 32-17.664 0-32 14.336-32 32s14.336 32 32 32c52.946 0 96-43.056 96-96 0-17.664-14.336-32-32-32zM672 672c-17.664 0-32 14.336-32 32v96c0 17.664 14.336 32 32 32s32-14.336 32-32v-96c0-17.664-14.336-32-32-32zM352 768c-17.664 0-32 14.336-32 32 0 52.944 43.056 96 96 96 17.664 0 32-14.336 32-32s-14.336-32-32-32c-17.648 0-32-14.352-32-32 0-17.664-14.336-32-32-32zM352 672c-17.664 0-32 14.336-32 32v96c0 17.664 14.336 32 32 32s32-14.336 32-32v-96c0-17.664-14.336-32-32-32zM512 199.999c-17.664 0-32 14.336-32 32v272.002c0 17.663 14.336 32 32 32s32-14.337 32-32v-272.002c0-17.664-14.336-32-32-32zM649.591 199.999c-0.512 0-1.024 0-1.553 0.034-17.664 0.831-31.278 15.821-30.447 33.485l12.942 272.003c0.836 17.664 15.889 31.68 33.49 30.432 17.664-0.832 31.278-15.824 30.447-33.488l-12.942-272.002c-0.819-17.118-14.979-30.464-31.937-30.464zM374.416 199.999c-16.976 0-31.12 13.346-31.936 30.481l-12.944 272c-0.832 17.664 12.8 32.656 30.448 33.488 17.488 1.248 32.64-12.768 33.488-30.432l12.944-272.001c0.832-17.664-12.8-32.654-30.448-33.485-0.512-0.051-1.024-0.051-1.552-0.051z" />
</font>
</defs>
</svg>
