<svg width="72" height="72" viewBox="0 0 72 72" fill="none" xmlns="http://www.w3.org/2000/svg">
<g clip-path="url(#clip0_527_2660)">
<path d="M39.4229 18.8364L49.2577 8.73563C49.4225 8.5609 49.5203 8.33351 49.5337 8.09367C49.5471 7.85383 49.4752 7.61698 49.3308 7.425L43.7058 0.370687C43.6122 0.256841 43.4949 0.16472 43.3622 0.100711C43.2294 0.0367025 43.0843 0.00233785 42.9369 0L29.0623 0C28.9149 0.00233785 28.7698 0.0367025 28.637 0.100711C28.5042 0.16472 28.3869 0.256841 28.2933 0.370687L22.6683 7.425C22.5242 7.617 22.4525 7.85377 22.466 8.09348C22.4795 8.3332 22.5772 8.56044 22.742 8.73506L32.5762 18.8364C25.8492 19.7064 19.7056 23.1045 15.3934 28.3404C11.0813 33.5764 8.92403 40.2575 9.3599 47.0265C9.79576 53.7955 12.7921 60.1448 17.7401 64.7844C22.6881 69.4241 29.2168 72.0062 35.9999 72.0062C42.7829 72.0062 49.3116 69.4241 54.2596 64.7844C59.2077 60.1448 62.2039 53.7955 62.6398 47.0265C63.0757 40.2575 60.9184 33.5764 56.6063 28.3404C52.2941 23.1045 46.15 19.7064 39.4229 18.8364ZM29.1371 2.46656L33.6489 7.05487H25.4808L29.1371 2.46656ZM46.5183 7.05487H38.348L42.8621 2.46656L46.5183 7.05487ZM38.6242 9.02362L35.9996 16.5898L33.3749 9.02362H38.6242ZM40.7054 9.02362H46.2275L37.6522 17.8313L40.7054 9.02362ZM35.9996 6.6375L31.4107 1.96875H40.5884L35.9996 6.6375ZM31.2914 9.02588L34.3469 17.8313L25.7694 9.02362L31.2914 9.02588ZM35.9996 70.0312C31.1092 70.0312 26.3286 68.5811 22.2623 65.8641C18.1961 63.1471 15.0269 59.2854 13.1554 54.7673C11.2839 50.2491 10.7942 45.2774 11.7483 40.481C12.7024 35.6846 15.0573 31.2787 18.5154 27.8207C21.9734 24.3626 26.3792 22.0077 31.1757 21.0536C35.9721 20.0995 40.9438 20.5892 45.4619 22.4607C49.9801 24.3322 53.8418 27.5014 56.5588 31.5676C59.2758 35.6339 60.7259 40.4145 60.7259 45.3049C60.7185 51.8604 58.111 58.1454 53.4755 62.7808C48.8401 67.4163 42.5551 70.0238 35.9996 70.0312Z" fill="#AE873E"/>
<path d="M35.9996 22.9624C31.5808 22.9625 27.2613 24.2729 23.5873 26.7279C19.9133 29.1829 17.0497 32.6723 15.3588 36.7547C13.6678 40.8371 13.2254 45.3293 14.0875 49.6632C14.9496 53.997 17.0775 57.9779 20.202 61.1025C23.3266 64.227 27.3075 66.3549 31.6413 67.217C35.9752 68.079 40.4673 67.6366 44.5498 65.9457C48.6322 64.2548 52.1216 61.3912 54.5766 57.7172C57.0316 54.0432 58.342 49.7237 58.3421 45.3049C58.3354 39.3814 55.9793 33.7023 51.7907 29.5138C47.6021 25.3252 41.9231 22.9691 35.9996 22.9624ZM35.9996 65.6775C31.9702 65.6774 28.0313 64.4825 24.681 62.2438C21.3307 60.0051 18.7195 56.8232 17.1776 53.1004C15.6357 49.3777 15.2323 45.2814 16.0185 41.3294C16.8047 37.3774 18.7451 33.7473 21.5943 30.8981C24.4436 28.0489 28.0737 26.1086 32.0257 25.3226C35.9777 24.5365 40.0741 24.94 43.7968 26.482C47.5194 28.024 50.7013 30.6353 52.9399 33.9857C55.1785 37.336 56.3733 41.2749 56.3733 45.3043C56.3674 50.706 54.219 55.8847 50.3994 59.7042C46.5799 63.5237 41.4012 65.6716 35.9996 65.6775Z" fill="#AE873E"/>
</g>
<defs>
<clipPath id="clip0_527_2660">
<rect width="72" height="72" fill="white"/>
</clipPath>
</defs>
</svg>
