<svg width="72" height="72" viewBox="0 0 72 72" fill="none" xmlns="http://www.w3.org/2000/svg">
<g clip-path="url(#clip0_527_2665)">
<path d="M71.7213 19.6323L59.7215 5.23249C59.6088 5.09767 59.4678 4.98922 59.3085 4.9148C59.1493 4.84038 58.9757 4.80179 58.7999 4.80176H13.2005C13.0247 4.80157 12.851 4.84006 12.6917 4.9145C12.5324 4.98893 12.3915 5.0975 12.2788 5.23249L0.279038 19.6323C0.132658 19.8072 0.0392985 20.0203 0.0099509 20.2465C-0.0193967 20.4727 0.0164894 20.7025 0.113384 20.909C0.210365 21.1155 0.36408 21.2901 0.556582 21.4125C0.749084 21.5349 0.97243 21.6 1.20054 21.6002H70.7996C71.0277 21.6 71.251 21.5349 71.4435 21.4125C71.636 21.2901 71.7897 21.1155 71.8867 20.909C71.9833 20.7025 72.0191 20.4727 71.9898 20.2466C71.9605 20.0205 71.8674 19.8074 71.7213 19.6323ZM3.76269 19.2003L13.7621 7.20051H58.2371L68.2366 19.2003H3.76269Z" fill="#AE873E"/>
<path d="M37.1099 5.54067C37.019 5.32147 36.8652 5.13414 36.6678 5.00236C36.4704 4.87057 36.2384 4.80026 36.0011 4.80029H13.2015C12.7719 4.80029 12.3759 5.02951 12.1612 5.40272C11.9464 5.77594 11.9475 6.2331 12.1648 6.60505L20.5646 21.0049C20.6572 21.1634 20.7848 21.2985 20.9376 21.4C21.0905 21.5016 21.2647 21.5667 21.4466 21.5904C21.4982 21.5965 21.5499 21.6 21.6002 21.6C21.758 21.6001 21.9142 21.5691 22.06 21.5087C22.2058 21.4484 22.3383 21.36 22.4498 21.2484L36.8496 6.84861C37.0176 6.6808 37.1319 6.46696 37.1782 6.23414C37.2246 6.00131 37.2008 5.75998 37.1099 5.54067ZM21.8522 18.4513L15.2895 7.20031H33.1032L21.8522 18.4513Z" fill="#AE873E"/>
<path d="M71.8734 19.8671C71.7744 19.6665 71.6212 19.4976 71.4312 19.3795C71.2412 19.2613 71.022 19.1987 70.7982 19.1987H1.19923C0.975528 19.1989 0.756325 19.2615 0.566343 19.3796C0.376361 19.4977 0.22316 19.6666 0.124022 19.8671C0.0250121 20.0677 -0.0159964 20.2919 0.00562009 20.5145C0.0272366 20.7372 0.110618 20.9493 0.246364 21.1271L35.0459 66.7265C35.2728 67.0241 35.6256 67.1993 35.9999 67.1993C36.3743 67.1993 36.7271 67.0241 36.9515 66.7265L71.7511 21.1271C71.8868 20.9493 71.9701 20.7371 71.9918 20.5145C72.0134 20.2919 71.9724 20.0677 71.8734 19.8671ZM35.9999 64.0218L3.62554 21.6H68.3743L35.9999 64.0218Z" fill="#AE873E"/>
<path d="M37.1446 65.6371L22.7448 20.0376C22.6679 19.7943 22.5154 19.5818 22.3096 19.431C22.1037 19.2801 21.8552 19.1988 21.6 19.1988H1.2002C0.976505 19.199 0.757302 19.2616 0.56732 19.3797C0.377338 19.4978 0.224137 19.6667 0.124998 19.8672C0.0259887 20.0678 -0.0150199 20.292 0.00659665 20.5146C0.0282132 20.7373 0.111595 20.9494 0.24734 21.1272L35.0469 66.7266C35.1587 66.8737 35.303 66.9928 35.4685 67.0748C35.634 67.1569 35.8162 67.1995 36.0009 67.1994C36.1933 67.2 36.383 67.153 36.5528 67.0626C36.8035 66.9326 37.0002 66.7184 37.1084 66.4576C37.2167 66.1969 37.2295 65.9063 37.1446 65.6371ZM3.62539 21.6001H20.7204L32.7874 59.8125L3.62539 21.6001ZM59.8399 5.40272C59.7349 5.21956 59.5834 5.06737 59.4007 4.96158C59.2181 4.85579 59.0107 4.80015 58.7996 4.80029H35.9998C35.7624 4.80013 35.5303 4.87041 35.3329 5.00223C35.1355 5.13405 34.9816 5.32148 34.8907 5.5408C34.7999 5.76012 34.7762 6.00146 34.8226 6.23426C34.869 6.46707 34.9834 6.68087 35.1514 6.84861L49.5512 21.2484C49.6625 21.36 49.7947 21.4486 49.9403 21.5089C50.0859 21.5692 50.242 21.6002 50.3996 21.6C50.4512 21.6 50.5028 21.5963 50.5544 21.5904C50.7364 21.5668 50.9106 21.5017 51.0635 21.4002C51.2164 21.2987 51.344 21.1634 51.4364 21.0049L59.8362 6.60505C59.9423 6.42259 59.9985 6.21543 59.9991 6.00438C59.9998 5.79332 59.9449 5.58582 59.8399 5.40272ZM50.1476 18.4513L38.8965 7.20031H56.7102L50.1476 18.4513Z" fill="#AE873E"/>
<path d="M71.8757 19.8696C71.7767 19.6689 71.6235 19.5 71.4335 19.3819C71.2435 19.2638 71.0242 19.2012 70.8005 19.2012H50.4007C50.1455 19.201 49.8968 19.2822 49.6909 19.4331C49.485 19.584 49.3326 19.7966 49.2559 20.04L34.8561 65.6394C34.7714 65.9087 34.7843 66.1992 34.8925 66.4599C35.0007 66.7206 35.1972 66.9348 35.4477 67.065C35.6182 67.1536 35.8075 67.1997 35.9996 67.1995C36.184 67.1993 36.3659 67.1567 36.5313 67.0752C36.6967 66.9936 36.8412 66.8752 36.9536 66.7291L71.7532 21.1297C71.8889 20.9519 71.9723 20.7397 71.994 20.5171C72.0156 20.2944 71.9747 20.0702 71.8757 19.8696ZM39.2122 59.8121L51.2792 21.5998H68.3742L39.2122 59.8121Z" fill="#AE873E"/>
</g>
<defs>
<clipPath id="clip0_527_2665">
<rect width="72" height="72" fill="white"/>
</clipPath>
</defs>
</svg>
