<svg width="296" height="81" viewBox="0 0 296 81" fill="none" xmlns="http://www.w3.org/2000/svg">
<g clip-path="url(#clip0_598_920)">
<path d="M130.777 35.8979C132.037 35.1759 133.119 34.5578 134.198 33.9327C135.921 32.9395 137.542 32.6948 139.206 34.1774C140.238 35.0931 141.659 35.028 142.969 34.9505C145.983 34.7638 148.996 34.5631 151.998 34.2602C157.889 33.6668 163.756 32.8937 169.55 31.6576C169.718 31.6189 169.885 31.5731 170.053 31.5537C170.55 31.4885 171.008 31.5537 171.091 32.1471C171.157 32.6173 170.814 32.8814 170.407 32.9906C169.808 33.1579 169.187 33.2811 168.575 33.4026C160.405 34.9751 152.178 36.0775 143.872 36.6445C141.626 36.7994 139.413 36.7413 137.568 35.1565C137.066 34.718 136.515 34.8607 135.967 35.079C134.696 35.595 133.548 36.3363 132.379 37.0513C131.798 37.4122 131.224 37.7926 130.598 38.0497C129.326 38.5709 128.739 38.1782 128.564 36.7871C128.545 36.6322 128.506 36.4842 128.436 36.1426C127.565 36.7484 126.784 37.289 125.997 37.8313C124.59 38.7981 123.17 39.7525 121.603 40.448C121.086 40.6805 120.532 40.8214 119.982 40.964C118.014 41.4923 116.336 40.2931 116.6 38.187C116.627 37.9687 116.6 37.7415 116.6 37.5302C116.001 37.3559 115.729 37.8137 115.375 38.0391C114.181 38.8069 113.013 39.631 111.813 40.3846C111.09 40.8425 110.316 41.2088 109.464 41.3778C107.947 41.6877 106.882 40.9464 106.688 39.4197C106.572 38.504 106.688 37.6024 106.965 36.7255C107.12 36.243 107.261 35.7464 107.424 35.2622C107.559 34.836 107.708 34.4187 107.836 34.0436C107.552 33.702 107.378 33.9397 107.21 34.0436C103.481 36.3627 99.7107 38.5868 95.3552 39.5605C94.7875 39.6891 94.664 40.0888 94.5423 40.5202C94.3043 41.3584 93.9093 42.1051 93.3292 42.7443C92.7296 43.4011 92.0648 43.9434 91.0967 43.4469C90.6841 43.2338 90.3279 43.4345 89.9488 43.5437C85.6833 44.8063 81.3278 45.6374 76.9458 46.3665C75.507 46.6042 74.5512 47.2099 73.733 48.4795C69.0989 55.6464 64.2797 62.683 58.9931 69.3974C57.3021 71.5439 55.5722 73.657 53.6114 75.5641C52.1408 77.001 50.5467 78.2829 48.7516 79.2954C45.5705 81.081 42.176 81.3504 38.6582 80.6355C34.3538 79.7586 30.2364 78.2583 26.0943 76.8214C20.7196 74.9583 15.3748 73.0196 10.1994 70.6282C7.97228 69.6034 5.79102 68.5011 3.77903 67.0906C2.60464 66.2665 1.53957 65.3314 0.772514 64.1006C-0.472414 62.1037 -0.195567 59.9959 1.53428 58.3917C2.8568 57.1679 4.48261 56.4846 6.16837 55.9176C9.31772 54.8664 12.5764 54.3328 15.8474 53.9137C27.3656 52.4381 38.9103 51.2001 50.3915 49.4357C57.8699 48.2894 65.35 47.1219 72.8302 45.9685C73.539 45.8593 74.0822 45.5952 74.4895 44.9436C78.0197 39.3052 81.5235 33.6474 84.8474 27.8787C84.9321 27.736 84.9638 27.5635 85.0149 27.4085C84.7892 27.28 84.5688 27.3117 84.3502 27.3821C78.7356 29.1923 72.966 29.5287 67.1275 29.1025C65.075 28.9546 63.0224 28.9546 60.991 29.2628C59.4816 29.4952 57.9122 29.6044 56.9388 31.08C56.7008 31.441 56.2811 31.5255 55.8685 31.3177C55.3589 31.0606 55.3395 30.5887 55.4947 30.1379C55.8367 29.1395 56.6373 28.6165 57.5595 28.2432C59.3282 27.5283 61.192 27.2765 63.0771 27.2571C65.4135 27.2377 67.75 27.2835 70.0793 27.3733C75.3765 27.5723 80.5202 26.8521 85.5087 25.0154C86.4644 24.6615 87.1345 24.1191 87.6635 23.2299C89.4321 20.2469 91.2766 17.3009 93.4579 14.5944C94.1667 13.7122 94.962 12.8863 95.7485 12.0675C96.1029 11.6995 96.5173 11.3843 96.9352 11.1008C97.8716 10.4686 98.8908 10.0055 99.9364 10.7521C100.936 11.4741 100.982 12.5887 100.769 13.6963C100.531 14.9395 99.9558 16.0542 99.284 17.1178C97.0639 20.6484 93.9216 23.1683 90.1974 24.8957C88.2736 25.792 87.0358 27.0863 86.0095 28.8789C83.1246 33.9116 80.0405 38.8227 76.8841 43.6952C76.5808 44.1583 76.1541 44.5721 76.0906 45.2289C76.8524 45.442 77.5419 45.1127 78.2454 44.9912C81.8921 44.359 85.5246 43.6828 89.0936 42.6844C90.0352 42.4203 90.6559 42.0329 90.9716 41.0098C91.3842 39.6433 92.1724 38.4318 93.204 37.4263C94.1791 36.479 94.5018 36.4279 95.6497 37.3101C96.1329 37.6834 96.5085 37.5232 96.8947 37.3753C98.0567 36.9174 99.217 36.4473 100.34 35.8996C103.322 34.4557 106.103 32.6965 108.769 30.7314C109.524 30.1767 110.079 29.5128 110.518 28.6887C112.557 24.8746 114.835 21.1996 117.378 17.7006C118.314 16.4116 119.333 15.1878 120.345 13.9622C120.887 13.3054 121.5 12.6997 122.231 12.2348C122.946 11.7769 123.696 11.2557 124.586 11.8157C125.412 12.3369 125.29 13.1892 125.205 13.9746C125.045 15.4766 124.366 16.8043 123.611 18.0739C122.211 20.4318 120.435 22.515 118.552 24.4995C116.397 26.7746 114.08 28.8824 111.603 30.8018C110.86 31.3811 110.3 32.045 109.97 32.929C109.538 34.1017 109.028 35.2428 108.633 36.4279C108.408 37.1234 108.272 37.8648 108.233 38.5991C108.187 39.5588 108.614 39.8757 109.497 39.5271C110.284 39.2172 111.046 38.8051 111.763 38.3473C113.486 37.2379 115.158 36.0458 116.873 34.9382C117.499 34.5314 118.145 33.6879 118.977 34.3395C119.841 35.0227 119.101 35.7764 118.81 36.479C118.572 37.053 118.3 37.613 118.274 38.2645C118.247 39.0059 118.584 39.3087 119.305 39.2313C120.183 39.1414 120.938 38.7417 121.686 38.342C123.646 37.2978 125.454 35.9965 127.307 34.7779C127.785 34.4627 128.244 34.1211 128.753 33.8693C130.122 33.1861 130.772 33.6175 130.748 35.1512V35.9049L130.779 35.8996L130.777 35.8979ZM73.0788 47.187C72.0137 47.3226 71.3437 47.386 70.6789 47.497C64.7875 48.4567 58.8962 49.4551 52.9977 50.3972C40.5238 52.3764 27.9916 53.9348 15.4718 55.5778C12.3736 55.9845 9.28246 56.5058 6.32179 57.5623C5.08215 58.0078 3.88307 58.522 2.86914 59.3866C1.46198 60.5911 1.29447 61.9329 2.32779 63.4525C2.77921 64.1164 3.35406 64.664 3.973 65.173C5.16679 66.152 6.48401 66.9391 7.83122 67.6734C11.5413 69.6774 15.426 71.2956 19.3759 72.7519C25.5124 75.0147 31.6506 77.2493 37.9863 78.9133C42.929 80.2146 47.318 79.2866 51.215 75.955C53.2146 74.2469 55.0027 72.3469 56.6814 70.3359C60.8059 65.3931 64.516 60.1544 68.085 54.8047C69.6914 52.4011 71.2537 49.971 73.0735 47.1818L73.0806 47.1888L73.0788 47.187ZM113.451 26.7922C116.568 24.1949 119.414 21.3792 121.763 18.0863C122.486 17.0685 123.112 15.9926 123.537 14.8127C123.743 14.2387 124.04 13.6717 123.705 13.0466C121.22 14.0767 114.839 22.5449 113.456 26.7992L113.449 26.7922H113.451ZM90.0564 22.6611C92.9606 21.2946 95.3993 19.4193 97.2844 16.8554C97.9227 15.9785 98.5099 15.0698 98.8661 14.045C99.0653 13.4657 99.4533 12.7437 98.9119 12.2982C98.293 11.7893 97.8081 12.5306 97.3055 12.8388C97.1115 12.955 96.9511 13.1223 96.7836 13.2772C93.9763 15.9837 91.982 19.2837 90.0528 22.6594H90.0599L90.0564 22.6611Z" fill="#AE873E"/>
<path d="M252.799 20.2698C253.658 19.7926 254.128 19.4703 254.645 19.252C255.851 18.736 256.671 19.2643 256.678 20.592C256.678 21.2682 256.518 21.9444 256.446 22.6223C256.193 25.0718 256.904 25.8888 259.343 25.8642C261.808 25.8378 264.188 25.239 266.576 24.6914C274.894 22.7896 283.199 20.8509 291.512 18.9368C292.395 18.7307 293.305 18.6075 294.202 18.4983C294.777 18.4279 295.345 18.5247 295.777 18.9685C295.983 19.1868 296.068 19.458 295.938 19.7485C295.809 20.0444 295.53 20.194 295.246 20.1025C293.439 19.5161 291.75 20.2257 290.064 20.6237C281.268 22.7245 272.492 24.9098 263.709 27.0493C262.044 27.456 260.36 27.7254 258.637 27.655C255.823 27.5388 254.513 26.0896 254.682 23.2668C254.721 22.654 254.811 22.043 254.888 21.3457C253.966 21.4425 253.495 22.1962 252.785 22.4991C252.236 22.7368 251.714 22.9375 251.184 22.5255C250.674 22.1328 250.558 21.5711 250.732 20.9917C251.023 20.0127 251.327 19.0336 251.707 18.0845C253.056 14.7652 254.65 11.5568 256.206 8.33433C256.444 7.83775 256.805 7.37463 256.844 6.67732C254.998 6.58751 253.224 6.98724 251.443 7.17917C250.856 7.24433 250.727 7.86241 250.501 8.30087C248.939 11.3296 247.364 14.3584 245.842 17.4065C242.035 25.0365 238.253 32.6736 234.756 40.4515C234.453 41.1224 234.104 41.7722 233.737 42.4167C233.589 42.6738 233.298 42.8164 233.014 42.6421C232.73 42.4748 232.723 42.1649 232.84 41.8884C232.949 41.6313 233.116 41.3919 233.24 41.1348C237.821 31.5466 242.358 21.9373 247.126 12.439C247.172 12.3492 247.165 12.2259 247.236 11.8209C246.661 12.4971 246.236 12.9743 245.835 13.4639C242.679 17.3502 239.537 21.2488 236.001 24.8059C234.917 25.8941 233.774 26.926 232.529 27.8276C231.838 28.3294 231.117 28.782 230.263 28.988C228.482 29.4071 227.366 28.6006 227.243 26.7834C227.172 25.7656 227.366 24.753 227.475 23.7423C226.842 23.6331 226.597 24.0962 226.269 24.3604C224.843 25.4873 223.455 26.6742 222.016 27.7888C220.842 28.6975 219.551 29.4194 218.093 29.7998C216.144 30.3017 215.001 29.8315 214.247 28.009C213.737 26.7781 213.795 26.3784 211.988 27.2799C211.071 27.7378 210.175 28.2344 209.278 28.7168C206.883 29.9988 206.509 29.916 204.915 27.7043C203.399 28.2907 202.379 29.5339 201.191 30.5658C200.764 30.9391 200.371 31.3512 199.927 31.6998C199.655 31.9129 199.32 31.9956 198.971 31.7896C198.629 31.5836 198.505 31.2543 198.597 30.9127C199.004 29.3666 199.65 27.9156 200.417 26.5175C200.597 26.1882 200.953 26.1107 201.314 26.1952C202.018 26.3555 201.741 26.9947 201.894 27.5494C202.501 27.1567 203.037 26.764 203.61 26.4417C204.92 25.7127 205.629 25.7902 206.546 26.9964C207.063 27.6726 207.463 27.6409 208.108 27.2923C209.309 26.6407 210.523 26.0033 211.767 25.4556C213.839 24.547 214.613 24.8569 215.569 26.8221C216.285 28.2977 216.557 28.414 218.073 27.891C219.216 27.4983 220.228 26.8538 221.171 26.1195C222.882 24.7918 224.546 23.413 226.269 22.1117C227.005 21.557 227.793 20.629 228.824 21.3122C229.761 21.9303 229.256 22.9551 229.159 23.8391C229.062 24.6826 228.965 25.5402 228.972 26.3854C228.985 27.243 229.385 27.4877 230.193 27.1461C230.709 26.9278 231.187 26.5914 231.639 26.2569C233.071 25.2126 234.33 23.9765 235.55 22.6998C240.002 18.0528 244.01 13.0272 248.036 8.0385C247.772 7.45212 247.325 7.70393 246.978 7.75499C241.681 8.47696 236.375 9.1602 231.083 9.95965C221.577 11.3965 212.085 12.9233 202.617 14.5926C199.875 15.0751 197.126 15.547 194.435 16.2936C194.164 16.3711 193.887 16.4486 193.61 16.4873C193.307 16.5261 193.03 16.4222 192.914 16.1263C192.753 15.7266 192.998 15.4625 193.333 15.3269C193.811 15.1402 194.301 14.9923 194.792 14.8691C199.489 13.6963 204.278 12.9937 209.054 12.24C216.869 11.0091 224.684 9.82406 232.504 8.67595C237.287 7.97334 242.081 7.31652 246.888 6.76888C248.604 6.57518 249.889 6.03987 250.753 4.48851C251.411 3.30342 252.243 2.20813 253.012 1.07939C253.231 0.7501 253.464 0.427853 253.735 0.144347C253.89 -0.0158954 254.148 -0.0493527 254.368 0.0739109C254.582 0.197174 254.679 0.396157 254.684 0.63388C254.696 1.18152 254.381 1.60766 254.123 2.03908C253.381 3.29637 252.614 4.53957 251.658 6.11206C253.716 5.88667 255.433 5.69297 257.149 5.49927C257.685 5.44116 257.872 5.00974 258.085 4.60297C258.537 3.7454 258.983 2.8896 259.461 2.05141C259.784 1.4844 260.08 0.588096 260.931 1.05298C261.829 1.53546 261.157 2.19933 260.842 2.78043C260.441 3.5024 259.886 4.16626 259.718 5.20344C262.448 4.99037 265.042 4.79667 267.63 4.57127C270.586 4.31418 273.541 4.25607 276.504 4.38461C276.788 4.39694 277.071 4.39694 277.355 4.4304C277.697 4.46914 278.103 4.54662 278.04 4.97804C277.981 5.42355 277.535 5.36544 277.214 5.33903C271.67 4.89352 266.192 5.66831 260.688 6.08037C259.424 6.17722 258.662 6.60864 258.094 7.82014C256.488 11.275 254.855 14.7159 253.467 18.2606C253.268 18.7765 253.099 19.3118 252.771 20.2574L252.802 20.2698H252.799Z" fill="#AE873E"/>
<path d="M157.793 12.0798C159.091 12.7437 160.457 12.911 161.768 13.2332C166.188 14.3356 170.583 15.5083 174.751 17.389C178.842 19.2379 182.528 21.668 185.437 25.1475C188.315 28.5884 189.902 32.5064 189.722 37.0566C189.664 38.5445 189.22 39.9638 188.929 41.5028C190.336 41.8515 191.755 41.6772 193.143 41.8709C193.66 41.9413 194.589 41.6719 194.555 42.3921C194.517 43.2937 193.58 42.8552 193.032 42.8623C191.78 42.8746 190.528 42.8165 189.276 42.7584C188.624 42.7267 188.257 43.0031 187.959 43.5966C185.21 49.1452 180.905 53.3467 176.021 56.9742C164.367 65.622 151.337 70.9769 136.92 72.8664C131.415 73.5884 125.898 73.6588 120.452 72.2994C118.788 71.8873 117.187 71.3062 115.741 70.3536C112.669 68.3232 112.089 65.2822 114.217 62.2851C115.287 60.7777 116.695 59.6296 118.225 58.6189C121.426 56.4917 124.936 55.0161 128.569 53.831C139.345 50.3056 150.329 47.5868 161.434 45.3434C168.301 43.9576 175.199 42.7848 182.175 42.0963C183.42 41.973 184.672 41.9219 185.924 41.8198C187.253 41.7159 187.278 41.7036 187.634 40.39C188.486 37.2133 188.338 34.0947 187.098 31.0325C185.621 27.3716 183.065 24.6069 179.948 22.3002C175.811 19.245 171.087 17.4471 166.202 16.0243C163.582 15.2636 160.923 14.6332 158.29 13.9165C157.58 13.7228 156.851 13.5291 156.199 13.1945C155.199 12.6785 155.16 11.6924 156.07 11.0233C156.67 10.5848 157.387 10.3665 158.103 10.1657C161.91 9.10919 165.802 8.61261 169.738 8.50344C172.868 8.41363 176.01 8.34848 179.07 9.19371C180.567 9.60577 181.986 10.1798 183.058 11.372C183.362 11.7065 183.639 12.0746 183.859 12.4672C184.065 12.8406 184.058 13.272 183.672 13.5361C183.303 13.7879 182.847 13.7492 182.602 13.3812C180.697 10.5073 177.652 10.3718 174.716 10.1851C169.514 9.85053 164.365 10.3137 159.294 11.5392C158.964 11.6167 158.636 11.7065 158.313 11.8157C158.158 11.8668 158.022 11.9636 157.797 12.0922L157.791 12.0798H157.793ZM186.691 42.8376C185.271 42.9274 184.136 42.9662 183.013 43.0824C175.534 43.829 168.144 45.1708 160.801 46.7239C149.779 49.0624 138.886 51.8799 128.232 55.5531C125.16 56.6097 122.186 57.8793 119.444 59.6578C118.102 60.5277 116.837 61.4874 115.836 62.757C113.841 65.3033 114.229 67.4991 116.978 69.1632C118.405 70.026 119.966 70.549 121.579 70.9223C127.613 72.3275 133.684 72.0951 139.731 71.1477C151.314 69.3375 161.942 65.0004 171.713 58.5819C176.301 55.5725 180.443 52.0208 183.806 47.6467C184.876 46.2555 185.852 44.8046 186.684 42.8323L186.691 42.8394V42.8376Z" fill="#AE873E"/>
<path d="M230.658 12.5113C231.587 12.4796 232.026 13.0466 231.665 13.9411C231.213 15.0628 230.444 15.9838 229.445 16.66C228.457 17.3309 227.535 16.7692 227.508 15.5524C227.477 13.8513 228.787 12.5817 230.658 12.5166V12.5095V12.5113Z" fill="#AE873E"/>
</g>
<defs>
<clipPath id="clip0_598_920">
<rect width="296" height="81" fill="white"/>
</clipPath>
</defs>
</svg>
