<svg width="45" height="32" viewBox="0 0 45 32" fill="none" xmlns="http://www.w3.org/2000/svg">
<rect x="0.5" y="0.847839" width="44" height="30.3043" rx="2" fill="white" stroke="#D9D9D9"/>
<path fill-rule="evenodd" clip-rule="evenodd" d="M10.7319 11.9995C11.3363 12.0512 11.9406 11.6892 12.3183 11.2302C12.6897 10.7583 12.9352 10.1247 12.8723 9.47827C12.3372 9.50413 11.6762 9.8403 11.2985 10.3122C10.9523 10.7195 10.6564 11.3789 10.7319 11.9995ZM17.9211 20.3261V10.2476H21.6038C23.5049 10.2476 24.8332 11.5922 24.8332 13.5575C24.8332 15.5228 23.4797 16.8804 21.5534 16.8804H19.4445V20.3261H17.9211ZM12.866 12.1224C12.3336 12.0909 11.8478 12.2868 11.4554 12.445C11.2029 12.5469 10.989 12.6331 10.8263 12.6331C10.6438 12.6331 10.4211 12.5423 10.1711 12.4403C9.84353 12.3066 9.46901 12.1538 9.07627 12.1612C8.17606 12.1741 7.3388 12.6977 6.87925 13.5317C5.93497 15.1996 6.63374 17.6691 7.54654 19.0267C7.9935 19.699 8.52859 20.436 9.23365 20.4102C9.54384 20.3981 9.76696 20.3009 9.99788 20.2003C10.2637 20.0844 10.5399 19.9641 10.9711 19.9641C11.3874 19.9641 11.6515 20.0813 11.905 20.1938C12.1461 20.3008 12.3775 20.4035 12.7212 20.3972C13.4514 20.3843 13.911 19.7249 14.3579 19.0526C14.8403 18.331 15.0522 17.6267 15.0844 17.5199L15.0882 17.5075C15.0874 17.5067 15.0814 17.5039 15.0709 17.499C14.9097 17.4232 13.6773 16.8438 13.6655 15.2901C13.6536 13.986 14.643 13.3253 14.7987 13.2213C14.8082 13.2149 14.8146 13.2107 14.8175 13.2085C14.188 12.2517 13.2059 12.1482 12.866 12.1224ZM27.6157 20.4036C28.5726 20.4036 29.4602 19.9059 29.8631 19.1172H29.8946V20.3261H31.3047V15.3094C31.3047 13.8549 30.1716 12.9175 28.4278 12.9175C26.8099 12.9175 25.6138 13.8678 25.5698 15.1737H26.9421C27.0554 14.5531 27.6157 14.1458 28.3837 14.1458C29.3154 14.1458 29.8379 14.5918 29.8379 15.4129V15.9688L27.9368 16.0852C26.1678 16.1951 25.211 16.9385 25.211 18.2315C25.211 19.5374 26.1993 20.4036 27.6157 20.4036ZM28.0248 19.2077C27.2127 19.2077 26.6965 18.8069 26.6965 18.1927C26.6965 17.5592 27.1939 17.1907 28.1444 17.1325L29.8378 17.0226V17.5915C29.8378 18.5354 29.0572 19.2077 28.0248 19.2077ZM35.982 20.7204C35.3714 22.4853 34.6726 23.0671 33.1869 23.0671C33.0736 23.0671 32.6959 23.0542 32.6078 23.0284V21.8194C32.7022 21.8324 32.9351 21.8453 33.0547 21.8453C33.7283 21.8453 34.106 21.5544 34.339 20.798L34.4775 20.352L31.8964 13.0145H33.4891L35.2832 18.9685H35.3147L37.1088 13.0145H38.6575L35.982 20.7204ZM19.4444 11.5664H21.2007C22.5227 11.5664 23.2781 12.2904 23.2781 13.564C23.2781 14.8376 22.5227 15.5681 21.1944 15.5681H19.4444V11.5664Z" fill="#101828"/>
</svg>
