<svg width="40" height="25" viewBox="0 0 40 25" fill="none" xmlns="http://www.w3.org/2000/svg">
<path d="M35.5074 0H3.49259C3.35923 0 3.22563 0 3.09251 0.000707788C2.98012 0.0016515 2.86796 0.00283115 2.75557 0.00589823C2.51076 0.0125042 2.26383 0.0271319 2.02209 0.0705428C1.77965 0.112135 1.54475 0.189663 1.32512 0.300574C0.883612 0.525433 0.524743 0.884773 0.300179 1.32687C0.189216 1.54686 0.111781 1.78225 0.0704503 2.02522C0.026625 2.26752 0.0122522 2.51453 0.00565487 2.75943C0.00278328 2.87187 0.00105531 2.98433 0.000471239 3.09681C0 3.22987 0 3.36341 0 3.49718V21.5028C0 21.6366 0 21.7699 0.000471239 21.9037C0.0011781 22.016 0.00259182 22.1285 0.00565487 22.241C0.0122522 22.4855 0.0268606 22.7327 0.0704503 22.9748C0.111696 23.2177 0.189052 23.4531 0.299944 23.6731C0.411435 23.8929 0.556965 24.0935 0.731128 24.2677C0.904993 24.4421 1.10541 24.5879 1.32489 24.6994C1.54802 24.8134 1.77657 24.8858 2.02232 24.9299C2.26383 24.9731 2.51076 24.9877 2.75557 24.9943C2.86796 24.9969 2.98012 24.9983 3.09251 24.9991C3.22563 25 3.35923 25 3.49259 25H35.5074C35.6405 25 35.7741 25 35.9073 24.9991C36.0194 24.9986 36.1316 24.9969 36.2444 24.9943C36.4888 24.9877 36.7357 24.9731 36.9779 24.9299C37.2204 24.8883 37.4553 24.8106 37.6749 24.6994C38.1162 24.4743 38.4749 24.115 38.6998 23.6731C38.8136 23.4497 38.8857 23.2209 38.9293 22.9748C38.9731 22.7327 38.9873 22.4855 38.9939 22.241C38.9969 22.1285 38.9986 22.016 38.9991 21.9037C39 21.7699 39 21.6366 39 21.5028V3.49741C39 3.36364 39 3.23011 38.9991 3.09657C38.9986 2.98417 38.9969 2.87179 38.9939 2.75943C38.9873 2.51453 38.9731 2.26752 38.9293 2.02522C38.8883 1.78221 38.8109 1.54679 38.6998 1.32687C38.4751 0.884851 38.1163 0.525539 37.6749 0.300574C37.4552 0.189777 37.2203 0.11233 36.9779 0.0707788C36.7357 0.0271319 36.4888 0.0127402 36.2444 0.00613416C36.1321 0.00327642 36.0197 0.00154618 35.9073 0.000943717C35.7741 0 35.6405 0 35.5074 0Z" fill="white"/>
<path d="M35.3635 1L35.7539 1.0007C35.8595 1.0014 35.9653 1.00256 36.0715 1.00535C36.2567 1.01047 36.4729 1.02046 36.6746 1.05651C36.8498 1.08791 36.9969 1.13558 37.1379 1.20721C37.4202 1.35013 37.6495 1.57874 37.7927 1.85999C37.8641 1.99952 37.9117 2.1451 37.9433 2.32115C37.9792 2.51975 37.9893 2.7358 37.9942 2.92114C37.9972 3.02579 37.9986 3.13044 37.9988 3.23742C38 3.36695 38 3.49625 38 3.62602V21.3742C38 21.504 38 21.6333 37.9991 21.7654C37.9986 21.87 37.9972 21.9747 37.9944 22.0793C37.9893 22.2644 37.9792 22.4805 37.9428 22.6814C37.9163 22.8412 37.8655 22.9961 37.7922 23.1407C37.6487 23.4221 37.4191 23.6507 37.1365 23.7935C36.9964 23.8647 36.8498 23.9123 36.6763 23.9435C36.4706 23.98 36.245 23.99 36.0752 23.9947C35.9685 23.997 35.8623 23.9986 35.7532 23.9991C35.6237 24 35.4934 24 35.3635 24H3.63133C3.50291 24 3.37448 24 3.24372 23.9991C3.13863 23.9986 3.03355 23.9972 2.92849 23.9949C2.75477 23.9902 2.5292 23.98 2.32512 23.9437C2.16377 23.9169 2.00742 23.866 1.86139 23.7926C1.72131 23.7217 1.59347 23.6291 1.48265 23.5181C1.37148 23.4076 1.27864 23.2802 1.20758 23.1407C1.1342 22.9953 1.08335 22.8397 1.05674 22.6791C1.02031 22.4784 1.01004 22.2633 1.00537 22.0796C1.00273 21.9745 1.00118 21.8695 1.0007 21.7644L1 21.4558V3.54463L1.00047 3.23649C1.00095 3.13128 1.00251 3.02609 1.00514 2.92091C1.01027 2.73673 1.02031 2.52161 1.05697 2.31929C1.08363 2.15903 1.13449 2.0037 1.20782 1.8586C1.2788 1.71953 1.37127 1.59255 1.48335 1.48116C1.59443 1.37035 1.72242 1.27773 1.86256 1.20674C2.00823 1.13385 2.16408 1.08321 2.32489 1.05651C2.52687 1.02046 2.74332 1.01047 2.92873 1.00535C3.03427 1.00256 3.14004 1.0014 3.24489 1.0007L3.63647 1H35.3635Z" fill="white"/>
<path d="M36.6746 1.05651C36.8498 1.08791 36.9969 1.13558 37.1379 1.20721C37.4202 1.35013 37.6495 1.57874 37.7927 1.85999C37.8641 1.99952 37.9117 2.1451 37.9433 2.32115C37.9792 2.51975 37.9893 2.7358 37.9942 2.92114C37.9972 3.02579 37.9986 3.13044 37.9988 3.23742C38 3.36695 38 3.49625 38 3.62602V21.3742C38 21.504 38 21.6333 37.9991 21.7654C37.9986 21.87 37.9972 21.9747 37.9944 22.0793M36.6746 1.05651C36.4729 1.02046 36.2567 1.01047 36.0715 1.00535M36.6746 1.05651L36.5867 1.54872M36.6746 1.05651L36.5864 1.54867C36.5865 1.54868 36.5866 1.5487 36.5867 1.54872M36.0715 1.00535C35.9653 1.00256 35.8595 1.0014 35.7539 1.0007M36.0715 1.00535L36.0584 1.50518C36.0583 1.50517 36.0582 1.50517 36.058 1.50517M36.0715 1.00535L36.0577 1.50516C36.0578 1.50516 36.0579 1.50516 36.058 1.50517M35.7539 1.0007L35.3635 1M35.7539 1.0007L35.7531 1.5007L35.7518 1.50069C35.8556 1.50138 35.9571 1.50252 36.058 1.50517M35.7539 1.0007L35.7506 1.50069L35.3635 1.5V1M35.3635 1H3.63647M35.3635 1L35.3626 1.5L35.3631 1.5H3.63691L3.63736 1.5L3.63647 1M3.63647 1L3.24489 1.0007M3.63647 1V1.5L3.24699 1.50069M3.24489 1.0007C3.14004 1.0014 3.03427 1.00256 2.92873 1.00535M3.24489 1.0007L3.24821 1.50069C3.24781 1.50069 3.2474 1.50069 3.24699 1.50069M3.24489 1.0007L3.24578 1.5007L3.24699 1.50069M2.92873 1.00535C2.74332 1.01047 2.52687 1.02046 2.32489 1.05651C2.16408 1.08321 2.00823 1.13385 1.86256 1.20674C1.72242 1.27773 1.59443 1.37035 1.48335 1.48116C1.37127 1.59255 1.2788 1.71953 1.20782 1.8586M2.92873 1.00535L2.94194 1.50517C3.04221 1.50252 3.14377 1.50139 3.24699 1.50069M2.92873 1.00535L2.94252 1.50516C2.76004 1.51019 2.57542 1.5197 2.41273 1.54873L2.40679 1.54979L2.40678 1.54976C2.29568 1.56821 2.18802 1.60313 2.08741 1.65333C1.99462 1.70048 1.90994 1.76186 1.83646 1.83515L1.83581 1.8358L1.83581 1.8358C1.76143 1.90972 1.70048 1.99343 1.65361 2.08502M1.20782 1.8586C1.13449 2.0037 1.08363 2.15903 1.05697 2.31929C1.02031 2.52161 1.01027 2.73673 1.00514 2.92091M1.20782 1.8586L1.65408 2.0841C1.65392 2.08441 1.65377 2.08471 1.65361 2.08502M1.20782 1.8586L1.65316 2.08591C1.65331 2.08561 1.65346 2.08531 1.65361 2.08502M1.00514 2.92091C1.00251 3.02609 1.00095 3.13128 1.00047 3.23649M1.00514 2.92091L1.50498 2.93342C1.50497 2.93366 1.50497 2.93389 1.50496 2.93413M1.00514 2.92091L1.50494 2.93485C1.50495 2.93461 1.50496 2.93437 1.50496 2.93413M1.00047 3.23649L1 3.54463M1.00047 3.23649L1.50047 3.23725L1.50047 3.23801C1.50093 3.1367 1.50243 3.03541 1.50496 2.93413M1.00047 3.23649L1.50046 3.23878L1.5 3.54463H1M1 3.54463V21.4558M1 3.54463L1.5 3.54538L1.5 3.54501V21.4553L1.5 21.4547L1 21.4558M1 21.4558L1.0007 21.7644M1 21.4558H1.5L1.5007 21.7622L1.0007 21.7644M1.0007 21.7644C1.00118 21.8695 1.00273 21.9745 1.00537 22.0796M1.0007 21.7644L1.5007 21.7633L1.5007 21.7627C1.50116 21.8641 1.50266 21.9655 1.50521 22.0669L1.00537 22.0796M1.00537 22.0796C1.01004 22.2633 1.02031 22.4784 1.05674 22.6791C1.08335 22.8397 1.1342 22.9953 1.20758 23.1407M1.00537 22.0796L1.50521 22.067C1.50977 22.2461 1.51953 22.4291 1.5487 22.5898L1.55007 22.5973L1.55002 22.5973C1.56828 22.7076 1.60316 22.8145 1.65349 22.9145M1.20758 23.1407C1.27864 23.2802 1.37148 23.4076 1.48265 23.5181C1.59347 23.6291 1.72131 23.7217 1.86139 23.7926M1.20758 23.1407L1.65313 22.9138C1.65325 22.914 1.65337 22.9143 1.65349 22.9145M1.20758 23.1407L1.65397 22.9155C1.65381 22.9151 1.65365 22.9148 1.65349 22.9145M1.86139 23.7926C2.00742 23.866 2.16377 23.9169 2.32512 23.9437C2.5292 23.98 2.75477 23.9902 2.92849 23.9949M1.86139 23.7926L2.08598 23.3458C2.08619 23.3459 2.08641 23.3461 2.08663 23.3462M1.86139 23.7926L2.0871 23.3464C2.08695 23.3463 2.08678 23.3462 2.08663 23.3462M2.92849 23.9949C3.03355 23.9972 3.13863 23.9986 3.24372 23.9991C3.37421 24 3.50238 24 3.63055 24H3.63133H35.3635H35.3643C35.4939 24 35.6239 24 35.7532 23.9991C35.8623 23.9986 35.9685 23.997 36.0752 23.9947M2.92849 23.9949L2.93962 23.495C2.93999 23.495 2.94036 23.495 2.94073 23.495M2.92849 23.9949L2.94187 23.4951C2.94149 23.4951 2.94111 23.495 2.94073 23.495M36.0752 23.9947C36.245 23.99 36.4706 23.98 36.6763 23.9435M36.0752 23.9947L36.0615 23.4948C36.062 23.4948 36.0624 23.4948 36.0629 23.4948M36.0752 23.9947L36.0644 23.4948C36.0639 23.4948 36.0634 23.4948 36.0629 23.4948M36.6763 23.9435C36.8498 23.9123 36.9964 23.8647 37.1365 23.7935C37.4191 23.6507 37.6487 23.4221 37.7922 23.1407M36.6763 23.9435L36.5879 23.4514C36.588 23.4513 36.5881 23.4513 36.5882 23.4513M36.6763 23.9435L36.5889 23.4512C36.5887 23.4512 36.5884 23.4513 36.5882 23.4513M37.7922 23.1407C37.8655 22.9961 37.9163 22.8412 37.9428 22.6814C37.9792 22.4805 37.9893 22.2644 37.9944 22.0793M37.7922 23.1407L37.3463 22.9145C37.3464 22.9143 37.3464 22.9142 37.3465 22.914M37.7922 23.1407L37.3468 22.9135C37.3467 22.9137 37.3466 22.9139 37.3465 22.914M37.9944 22.0793L37.4946 22.0654M37.9944 22.0793L37.4946 22.0659C37.4946 22.0658 37.4946 22.0656 37.4946 22.0654M37.4946 22.0654C37.4973 21.9654 37.4986 21.8647 37.4991 21.7631L37.4991 21.7618C37.5 21.6318 37.5 21.5042 37.5 21.3742V3.62602C37.5 3.49588 37.5 3.36883 37.4989 3.24193L37.4988 3.23851C37.4986 3.13519 37.4973 3.03508 37.4944 2.93565L37.4943 2.93436C37.4895 2.75211 37.4799 2.56864 37.4513 2.41024L37.4511 2.40927C37.4271 2.27545 37.3937 2.17795 37.3476 2.08788L37.3471 2.08685C37.2521 1.90037 37.0999 1.7484 36.912 1.65328L36.9115 1.65301C36.8196 1.60631 36.7201 1.57265 36.5867 1.54872M37.4946 22.0654C37.4895 22.2478 37.48 22.4313 37.4508 22.5922L37.4508 22.5922L37.4495 22.5997C37.4314 22.709 37.3967 22.815 37.3465 22.914M36.5867 1.54872C36.4244 1.51972 36.2402 1.51021 36.058 1.50517M1.65361 2.08502C1.60334 2.18473 1.56849 2.29137 1.5502 2.40134L1.54901 2.40844L1.54896 2.40843C1.51956 2.57071 1.51002 2.7533 1.50496 2.93413M1.65349 22.9145C1.70042 23.0065 1.76172 23.0905 1.83517 23.1636L1.83636 23.1647C1.90953 23.238 1.99399 23.2992 2.08663 23.3462M2.08663 23.3462C2.18748 23.3968 2.29549 23.432 2.40699 23.4505L2.41264 23.4514L2.41263 23.4514C2.57712 23.4807 2.77047 23.4905 2.94073 23.495M2.94073 23.495C3.04243 23.4973 3.14415 23.4986 3.24588 23.4991L3.24728 23.4991C3.37597 23.5 3.50263 23.5 3.63133 23.5H35.3635C35.4937 23.5 35.6222 23.5 35.7497 23.4991L35.7511 23.4991C35.8561 23.4986 35.9588 23.4971 36.0629 23.4948M36.0629 23.4948C36.2293 23.4902 36.4222 23.4807 36.5882 23.4513M36.5882 23.4513C36.7196 23.4277 36.8188 23.3941 36.9101 23.3477L36.9109 23.3473C37.0989 23.2522 37.2513 23.1004 37.3465 22.914" stroke="#111111" stroke-opacity="0.15"/>
<path d="M10.4803 7.38758C10.8205 7.01408 11.0511 6.51247 10.9903 6C10.4927 6.02171 9.88564 6.28837 9.5339 6.66229C9.21826 6.98237 8.93895 7.50484 9.01163 7.99582C9.57024 8.03838 10.1284 7.75065 10.4803 7.38758Z" fill="#1F1F1F"/>
<path d="M10.9469 9.00348C10.1372 8.95164 9.44933 9.49593 9.06284 9.49593C8.67611 9.49593 8.08417 9.0294 7.44389 9.0421C6.61073 9.05506 5.83775 9.56047 5.41476 10.3639C4.5451 11.9709 5.18514 14.3554 6.03111 15.6643C6.44177 16.3122 6.93679 17.025 7.58891 16.9993C8.20526 16.9734 8.44673 16.5717 9.19554 16.5717C9.9441 16.5717 10.1616 16.9993 10.814 16.9864C11.4903 16.9734 11.9133 16.3384 12.3239 15.6904C12.7953 14.9518 12.9879 14.239 13 14.2001C12.9879 14.1872 11.6958 13.6556 11.6837 12.0616C11.6716 10.7268 12.6983 10.0918 12.7467 10.0527C12.1668 9.13307 11.2609 9.0294 10.9467 9.00348" fill="#1F1F1F"/>
<path d="M18.1948 8C19.8483 8 21 9.20376 21 10.9563C21 12.715 19.8247 13.925 18.1535 13.925H16.3227V17H15V8H18.1948ZM16.3227 12.7524H17.8404C18.9923 12.7524 19.6475 12.0976 19.6475 10.9625C19.6475 9.82759 18.992 9.17881 17.8463 9.17881H16.3227V12.7524Z" fill="#1F1F1F"/>
<path d="M22 14.2635C22 13.227 22.9452 12.6332 24.6882 12.5435L26.5585 12.4482V11.9999C26.5585 11.3447 26.0425 10.9861 25.1241 10.9861C24.3663 10.9861 23.8165 11.3109 23.703 11.8094H22.3484C22.3889 10.7619 23.5686 10 25.1643 10C26.8804 10 28 10.7507 28 11.9161V15.9386H26.6124V14.9693H26.5789C26.1833 15.6023 25.3116 16 24.3663 16C22.9721 16 22 15.3056 22 14.2635ZM26.5585 13.7425V13.2886L24.8894 13.3783C23.9506 13.4287 23.4616 13.7199 23.4616 14.2296C23.4616 14.7228 23.9709 15.0422 24.7687 15.0422C25.7874 15.0422 26.5585 14.4986 26.5585 13.7425Z" fill="#1F1F1F"/>
<path d="M28.6273 18.9622V17.8804C28.7117 17.8927 28.9166 17.9052 29.0251 17.9052C29.622 17.9052 29.9598 17.643 30.1649 16.9671L30.2855 16.567L28 10H29.4109L31.003 15.3285H31.0332L32.625 10H34L31.6301 16.8983C31.0872 18.4808 30.4662 19 29.1518 19C29.0493 19 28.7175 18.9875 28.6273 18.9622Z" fill="#1F1F1F"/>
</svg>
