<svg width="40" height="25" viewBox="0 0 40 25" fill="none" xmlns="http://www.w3.org/2000/svg">
<path opacity="0.07" d="M36.8421 0H3.15789C1.36842 0 0 1.35417 0 3.125V21.875C0 23.6458 1.47368 25 3.15789 25H36.8421C38.6316 25 40 23.6458 40 21.875V3.125C40 1.35417 38.5263 0 36.8421 0Z" fill="white"/>
<path d="M36.8889 1C38.05 1 39 1.94091 39 3.09091V21.9091C39 23.0591 38.05 24 36.8889 24H3.11111C1.95 24 1 23.0591 1 21.9091V3.09091C1 1.94091 1.95 1 3.11111 1H36.8889Z" fill="white"/>
<path d="M36.8889 1.5C37.7784 1.5 38.5 2.22157 38.5 3.09091V21.9091C38.5 22.7784 37.7784 23.5 36.8889 23.5H3.11111C2.2216 23.5 1.5 22.7784 1.5 21.9091V3.09091C1.5 2.22157 2.2216 1.5 3.11111 1.5H36.8889Z" stroke="#111111" stroke-opacity="0.15"/>
<path d="M13.1687 12.5V16.4643C13.1687 16.7857 12.9583 16.7857 12.6427 16.6786C10.644 15.8214 9.48684 13.1429 10.2232 10.8929C10.644 9.71429 11.4856 8.75 12.6427 8.32143C13.0635 8.10714 13.1687 8.21429 13.1687 8.53571V12.5ZM15.2726 12.5V8.53571C15.2726 8.21429 15.2726 8.21429 15.5882 8.32143C17.7973 9.17857 18.9545 11.8571 18.1129 14.1071C17.6921 15.2857 16.8505 16.25 15.6934 16.6786C15.2726 16.8929 15.2726 16.7857 15.2726 16.4643V12.5ZM22.8467 5H14.2206C18.2181 5 21.374 8.32143 21.374 12.5C21.374 16.6786 18.2181 20 14.2206 20H22.8467C26.8441 20 30 16.6786 30 12.5C30 8.32143 26.8441 5 22.8467 5Z" fill="#3086C8"/>
</svg>
