<svg width="45" height="32" viewBox="0 0 45 32" fill="none" xmlns="http://www.w3.org/2000/svg">
<rect x="0.5" y="0.847839" width="44" height="30.3043" rx="2" fill="white" stroke="#D9D9D9"/>
<path d="M24.7219 25.7825C29.9452 25.8081 34.7128 21.4212 34.7128 16.0846C34.7128 10.2493 29.9452 6.21523 24.7219 6.21741H20.2265C14.9409 6.21523 10.5898 10.2503 10.5898 16.0846C10.5898 21.4223 14.9409 25.8081 20.2265 25.7825H24.7219Z" fill="#0079BE"/>
<path d="M20.2495 7.02606C15.4191 7.0277 11.5055 11.0356 11.5039 15.9823C11.5055 20.9284 15.4191 24.9363 20.2495 24.9379C25.0804 24.9363 28.9956 20.9284 28.9962 15.9823C28.9956 11.0356 25.081 7.0277 20.2495 7.02606ZM14.7063 15.9823C14.7053 14.8385 15.0444 13.7211 15.6793 12.776C16.3142 11.8309 17.2154 11.1021 18.2651 10.6849V21.2791C17.2153 20.8621 16.314 20.1335 15.6791 19.1884C15.0441 18.2434 14.7051 17.126 14.7063 15.9823ZM22.2334 21.2813V10.6843C23.2839 11.101 24.1858 11.8297 24.8212 12.7751C25.4566 13.7206 25.7958 14.8386 25.7943 15.9828C25.7955 17.127 25.4563 18.2449 24.8209 19.1903C24.1856 20.1356 23.2837 20.8644 22.2334 21.2813Z" fill="white"/>
<path d="M24.7219 25.7825C29.9452 25.8081 34.7128 21.4212 34.7128 16.0846C34.7128 10.2493 29.9452 6.21523 24.7219 6.21741H20.2265C14.9409 6.21523 10.5898 10.2503 10.5898 16.0846C10.5898 21.4223 14.9409 25.8081 20.2265 25.7825H24.7219Z" fill="#0079BE"/>
<path d="M20.2495 7.02606C15.4191 7.0277 11.5055 11.0356 11.5039 15.9823C11.5055 20.9284 15.4191 24.9363 20.2495 24.9379C25.0804 24.9363 28.9956 20.9284 28.9962 15.9823C28.9956 11.0356 25.081 7.0277 20.2495 7.02606ZM14.7063 15.9823C14.7053 14.8385 15.0444 13.7211 15.6793 12.776C16.3142 11.8309 17.2154 11.1021 18.2651 10.6849V21.2791C17.2153 20.8621 16.314 20.1335 15.6791 19.1884C15.0441 18.2434 14.7051 17.126 14.7063 15.9823ZM22.2334 21.2813V10.6843C23.2839 11.101 24.1858 11.8297 24.8212 12.7751C25.4566 13.7206 25.7958 14.8386 25.7943 15.9828C25.7955 17.127 25.4563 18.2449 24.8209 19.1903C24.1856 20.1356 23.2837 20.8644 22.2334 21.2813Z" fill="white"/>
</svg>
