<svg width="40" height="25" viewBox="0 0 40 25" fill="none" xmlns="http://www.w3.org/2000/svg">
<path opacity="0.07" d="M36.8421 0H3.15789C1.36842 0 0 1.35417 0 3.125V21.875C0 23.6458 1.47368 25 3.15789 25H36.8421C38.6316 25 40 23.6458 40 21.875V3.125C40 1.35417 38.5263 0 36.8421 0Z" fill="white"/>
<path d="M36.8889 1C38.05 1 39 1.94091 39 3.09091V21.9091C39 23.0591 38.05 24 36.8889 24H3.11111C1.95 24 1 23.0591 1 21.9091V3.09091C1 1.94091 1.95 1 3.11111 1H36.8889Z" fill="white"/>
<path d="M3.64877 7.12457H2V12.8339H3.64877C4.52042 12.8339 5.15053 12.6263 5.70712 12.1799C6.36873 11.6401 6.75729 10.8305 6.75729 9.98962C6.74679 8.29758 5.47608 7.12457 3.64877 7.12457ZM4.972 11.4221C4.61494 11.7336 4.16336 11.8789 3.42824 11.8789H3.12369V8.10035H3.42824C4.15286 8.10035 4.59393 8.22491 4.972 8.55709C5.36056 8.89965 5.5916 9.42907 5.5916 9.97924C5.5916 10.5294 5.36056 11.0796 4.972 11.4221ZM7.27188 7.12457H8.39557V12.8339H7.27188V7.12457ZM11.147 9.31488C10.4749 9.06574 10.2754 8.89965 10.2754 8.59862C10.2754 8.23529 10.6324 7.9654 11.1155 7.9654C11.4516 7.9654 11.7351 8.10035 12.0187 8.43253L12.6068 7.67474C12.1237 7.25952 11.5461 7.04152 10.9055 7.04152C9.88681 7.04152 9.09918 7.7474 9.09918 8.68166C9.09918 9.47059 9.46674 9.87543 10.5169 10.2491C10.958 10.4048 11.1785 10.5087 11.2941 10.5709C11.5146 10.7163 11.6301 10.9239 11.6301 11.1626C11.6301 11.6298 11.2625 11.9723 10.7585 11.9723C10.2229 11.9723 9.7923 11.7024 9.52976 11.2145L8.80513 11.91C9.31972 12.6678 9.94983 13 10.8005 13C11.9662 13 12.7958 12.2318 12.7958 11.1211C12.8168 10.1972 12.4282 9.78201 11.147 9.31488ZM13.1634 9.98962C13.1634 11.6713 14.4971 12.9689 16.2089 12.9689C16.6919 12.9689 17.112 12.8754 17.6161 12.6367V11.3287C17.1645 11.7751 16.7655 11.9516 16.2614 11.9516C15.1272 11.9516 14.3186 11.1419 14.3186 9.97924C14.3186 8.87889 15.1482 8.0173 16.2089 8.0173C16.7445 8.0173 17.154 8.20415 17.6161 8.6609V7.35294C17.1225 7.10381 16.713 7 16.2299 7C14.5391 7 13.1634 8.32872 13.1634 9.98962ZM26.5636 10.9654L25.0198 7.12457H23.7911L26.238 12.9792H26.8471L29.3361 7.12457H28.1179L26.5636 10.9654ZM29.8506 12.8339H33.0432V11.8685H30.9743V10.3322H32.9697V9.36678H30.9743V8.10035H33.0432V7.12457H29.8506V12.8339ZM37.5064 8.81661C37.5064 7.7474 36.7608 7.13495 35.4586 7.13495H33.7888V12.8443H34.9125V10.5502H35.0595L36.6138 12.8443H38L36.1832 10.436C37.0338 10.2595 37.5064 9.68858 37.5064 8.81661ZM35.238 9.76125H34.9125V8.02768H35.259C35.9627 8.02768 36.3407 8.31834 36.3407 8.87889C36.3407 9.44983 35.9627 9.76125 35.238 9.76125Z" fill="#1F1F1F"/>
<path d="M21 13C21.7956 13 22.5587 12.6839 23.1213 12.1213C23.6839 11.5587 24 10.7956 24 10C24 9.20435 23.6839 8.44129 23.1213 7.87868C22.5587 7.31607 21.7956 7 21 7C20.2044 7 19.4413 7.31607 18.8787 7.87868C18.3161 8.44129 18 9.20435 18 10C18 10.7956 18.3161 11.5587 18.8787 12.1213C19.4413 12.6839 20.2044 13 21 13Z" fill="url(#paint0_linear_376_417)"/>
<path opacity="0.65" d="M21 13C21.7956 13 22.5587 12.6839 23.1213 12.1213C23.6839 11.5587 24 10.7956 24 10C24 9.20435 23.6839 8.44129 23.1213 7.87868C22.5587 7.31607 21.7956 7 21 7C20.2044 7 19.4413 7.31607 18.8787 7.87868C18.3161 8.44129 18 9.20435 18 10C18 10.7956 18.3161 11.5587 18.8787 12.1213C19.4413 12.6839 20.2044 13 21 13Z" fill="url(#paint1_linear_376_417)"/>
<path d="M38.3542 8.3125C38.3542 8.10417 38.2812 8 38.1667 8H38V9H38.125V8.60417L38.2708 9H38.4167L38.25 8.58333C38.3125 8.5625 38.3542 8.45833 38.3542 8.3125ZM38.1458 8.45833H38.125V8.1875H38.1458C38.2083 8.1875 38.2396 8.22917 38.2396 8.3125C38.2396 8.41667 38.2083 8.45833 38.1458 8.45833Z" fill="#1F1F1F"/>
<path d="M38.5 7C38.2262 7 38 7.22619 38 7.5C38 7.77381 38.2262 8 38.5 8C38.7738 8 39 7.77381 39 7.5C39 7.22619 38.7738 7 38.5 7ZM38.5 7.91667C38.2857 7.91667 38.0952 7.7381 38.0952 7.5C38.0952 7.27381 38.2738 7.08333 38.5 7.08333C38.7143 7.08333 38.8929 7.27381 38.8929 7.5C38.8929 7.72619 38.7143 7.91667 38.5 7.91667Z" fill="#1F1F1F"/>
<path d="M38.9762 14C38.9762 14 28.7295 20.878 10 24H36.9072C37.4528 24 37.9763 23.7918 38.3637 23.4208C38.751 23.0498 38.9708 22.546 38.9752 22.0192L39 19.004L38.9762 14Z" fill="#F48120"/>
<defs>
<linearGradient id="paint0_linear_376_417" x1="22.5322" y1="12.4012" x2="20.4596" y2="9.15558" gradientUnits="userSpaceOnUse">
<stop stop-color="#F89F20"/>
<stop offset="0.25" stop-color="#F79A20"/>
<stop offset="0.533" stop-color="#F68D20"/>
<stop offset="0.62" stop-color="#F58720"/>
<stop offset="0.723" stop-color="#F48120"/>
<stop offset="1" stop-color="#F37521"/>
</linearGradient>
<linearGradient id="paint1_linear_376_417" x1="22.2057" y1="12.3572" x2="19.176" y2="6.43501" gradientUnits="userSpaceOnUse">
<stop stop-color="#F58720"/>
<stop offset="0.359" stop-color="#E16F27"/>
<stop offset="0.703" stop-color="#D4602C"/>
<stop offset="0.982" stop-color="#D05B2E"/>
</linearGradient>
</defs>
</svg>
