<svg width="38" height="24" viewBox="0 0 38 24" fill="none" xmlns="http://www.w3.org/2000/svg">
<rect x="0.5" y="1" width="37" height="22" rx="1.5" fill="white"/>
<rect x="0.5" y="1" width="37" height="22" rx="1.5" stroke="#DBDBDB"/>
<path d="M18.1351 11.8609V14.8686H17.1807V7.44141H19.711C20.3524 7.44141 20.8992 7.6552 21.3466 8.08272C21.804 8.51025 22.0327 9.03223 22.0327 9.64866C22.0327 10.28 21.804 10.802 21.3466 11.2246C20.9041 11.6471 20.3573 11.8559 19.711 11.8559H18.1351V11.8609ZM18.1351 8.35613V10.9462H19.7309C20.1088 10.9462 20.427 10.8169 20.6755 10.5634C20.929 10.3098 21.0583 10.0016 21.0583 9.65364C21.0583 9.31061 20.929 9.00735 20.6755 8.75385C20.4269 8.49034 20.1137 8.36111 19.7309 8.36111H18.1351V8.35613Z" fill="#383E41"/>
<path d="M24.5282 9.61914C25.2342 9.61914 25.791 9.80805 26.1986 10.1859C26.6063 10.5637 26.8101 11.0807 26.8101 11.7369V14.8689H25.9003V14.1629H25.8605C25.4678 14.7446 24.9408 15.0329 24.2846 15.0329C23.7229 15.0329 23.2556 14.8689 22.8778 14.5358C22.4999 14.2027 22.311 13.7901 22.311 13.293C22.311 12.766 22.5099 12.3484 22.9076 12.0402C23.3053 11.727 23.8373 11.5729 24.4984 11.5729C25.0652 11.5729 25.5325 11.6773 25.8954 11.8861V11.6674C25.8954 11.3343 25.7661 11.0559 25.5026 10.8222C25.2391 10.5886 24.9309 10.4742 24.578 10.4742C24.046 10.4742 23.6235 10.6979 23.3152 11.1503L22.4751 10.6234C22.9374 9.95221 23.6235 9.61914 24.5282 9.61914ZM23.2954 13.3078C23.2954 13.5564 23.3998 13.7652 23.6135 13.9292C23.8223 14.0933 24.0709 14.1778 24.3543 14.1778C24.757 14.1778 25.1149 14.0287 25.4281 13.7304C25.7413 13.4321 25.9004 13.0841 25.9004 12.6815C25.6021 12.4478 25.1895 12.3285 24.6575 12.3285C24.2698 12.3285 23.9466 12.4229 23.6881 12.6069C23.4246 12.8007 23.2954 13.0344 23.2954 13.3078Z" fill="#383E41"/>
<path d="M32.0001 9.7832L28.8185 17.101H27.8342L29.0173 14.5407L26.9194 9.7832H27.9584L29.4697 13.4321H29.4896L30.9611 9.7832H32.0001Z" fill="#383E41"/>
<path d="M14.2587 10.3594H10.2578V11.9999L12.562 12.0004C12.4686 12.5463 12.1678 13.0116 11.707 13.3218V13.3221C11.7071 13.322 11.7073 13.3219 11.7075 13.3218L11.666 14.3023L13.0791 14.3857C13.0789 14.3858 13.0787 14.386 13.0785 14.3862C13.8794 13.645 14.3383 12.5493 14.3383 11.2547C14.3382 10.9435 14.3104 10.6457 14.2587 10.3594Z" fill="#0085F7"/>
<path d="M11.7076 13.3212C11.7074 13.3213 11.7072 13.3214 11.7071 13.3215C11.3253 13.5788 10.8338 13.7293 10.2589 13.7293C9.14783 13.7293 8.20528 12.9806 7.86774 11.9715H7.86759C7.86764 11.9716 7.86769 11.9718 7.86774 11.972L6.68804 11.7852L6.45312 13.0695C7.15416 14.4603 8.59472 15.4146 10.259 15.4146C11.409 15.4146 12.3752 15.0365 13.0787 14.3855C13.0789 14.3854 13.0791 14.3852 13.0792 14.385L11.7076 13.3212Z" fill="#00A94B"/>
<path d="M7.73448 11.1576C7.73448 10.8742 7.78171 10.6003 7.86773 10.3428L7.49937 9.24512H6.45287C6.16306 9.82032 6 10.4696 6 11.1576C6 11.8456 6.16357 12.4949 6.45287 13.0701L6.45307 13.0699L7.86773 11.9724C7.86768 11.9722 7.86763 11.9721 7.86758 11.9719C7.78166 11.7146 7.73448 11.4408 7.73448 11.1576Z" fill="#FFBB00"/>
<path d="M10.2587 6.89941C8.59479 6.89941 7.15362 7.8539 6.45264 9.2449L7.86745 10.3426C8.205 9.33341 9.14755 8.58474 10.2586 8.58474C10.8865 8.58474 11.4488 8.80102 11.8927 9.22357L13.1082 8.00909C12.37 7.32146 11.4076 6.89941 10.2587 6.89941Z" fill="#FF4031"/>
</svg>
