<svg width="45" height="32" viewBox="0 0 45 32" fill="none" xmlns="http://www.w3.org/2000/svg">
<rect x="0.5" y="0.847839" width="44" height="30.3043" rx="2" fill="white" stroke="#D9D9D9"/>
<path fill-rule="evenodd" clip-rule="evenodd" d="M21.2524 20.9018V16.9615H23.2571C24.0785 16.9615 24.7719 16.6822 25.3371 16.1315L25.4727 15.9919C26.5052 14.8517 26.4374 13.0754 25.3371 12.0205C24.7869 11.462 24.0333 11.1595 23.2571 11.175H20.0391V20.9018H21.2524ZM21.2525 15.767V12.3695H23.2877C23.7248 12.3695 24.1394 12.5402 24.4484 12.8505C25.1042 13.502 25.1193 14.5879 24.4861 15.2628C24.1771 15.5963 23.7399 15.7825 23.2877 15.767H21.2525ZM31.1325 14.7664C30.6125 14.2777 29.9041 14.0295 29.0073 14.0295C27.8542 14.0295 26.9876 14.4638 26.4148 15.3248L27.485 16.0152C27.8768 15.4257 28.4119 15.1309 29.0902 15.1309C29.5198 15.1309 29.9342 15.2938 30.2583 15.5886C30.5748 15.8678 30.7557 16.2711 30.7557 16.6978V16.9848C30.2885 16.721 29.7006 16.5814 28.9771 16.5814C28.1331 16.5814 27.4548 16.7831 26.9499 17.1942C26.4449 17.6053 26.1887 18.1483 26.1887 18.8386C26.1736 19.4669 26.4374 20.0641 26.9047 20.4675C27.3794 20.9019 27.9824 21.1191 28.6908 21.1191C29.5273 21.1191 30.1905 20.739 30.6954 19.9788H30.7482V20.9019H31.9088V16.7986C31.9088 15.9376 31.6525 15.255 31.1325 14.7664ZM27.8394 19.6762C27.5906 19.4901 27.4399 19.1876 27.4399 18.8618C27.4399 18.4972 27.6057 18.1947 27.9298 17.9543C28.2615 17.7138 28.676 17.5897 29.166 17.5897C29.8443 17.582 30.372 17.7371 30.7488 18.0474C30.7488 18.5748 30.5453 19.0324 30.1458 19.4203C29.784 19.7926 29.2941 20.002 28.7816 20.002C28.4424 20.0098 28.1107 19.8934 27.8394 19.6762ZM34.5163 23.8261L38.5708 14.2467H37.252L35.3755 19.0248H35.3528L33.4311 14.2467H32.1122L34.7726 20.4753L33.2653 23.8261H34.5163Z" fill="#3C4043"/>
<path d="M17.067 16.1082C17.067 15.7282 17.0368 15.3481 16.9765 14.9758H11.8594V17.1244H14.791C14.6704 17.8147 14.2785 18.4352 13.7058 18.8231V20.2193H15.4542C16.4791 19.2497 17.067 17.8147 17.067 16.1082Z" fill="#4285F4"/>
<path d="M11.8576 21.5689C13.3196 21.5689 14.5555 21.0724 15.4524 20.2192L13.7039 18.823C13.2141 19.1643 12.5886 19.3582 11.8576 19.3582C10.4407 19.3582 9.24246 18.3731 8.81289 17.0545H7.01172V18.4972C7.93115 20.3821 9.80768 21.5689 11.8576 21.5689Z" fill="#34A853"/>
<path d="M8.81342 17.0546C8.58729 16.3642 8.58729 15.6118 8.81342 14.9137V13.4788H7.01196C6.2356 15.0534 6.2356 16.915 7.01196 18.4896L8.81342 17.0546Z" fill="#FBBC04"/>
<path d="M11.8576 12.61C12.6338 12.5945 13.3799 12.897 13.9376 13.4477L15.49 11.8498C14.5028 10.9035 13.2065 10.3838 11.8576 10.3993C9.80768 10.3993 7.93115 11.5938 7.01172 13.4787L8.81289 14.9214C9.24246 13.5951 10.4407 12.61 11.8576 12.61Z" fill="#EA4335"/>
</svg>
