<svg width="45" height="32" viewBox="0 0 45 32" fill="none" xmlns="http://www.w3.org/2000/svg">
<rect x="0.5" y="0.847839" width="44" height="30.3043" rx="2" fill="white" stroke="#D9D9D9"/>
<path fill-rule="evenodd" clip-rule="evenodd" d="M22.9182 23.2341C21.2011 24.6747 18.9738 25.5443 16.54 25.5443C11.1094 25.5443 6.70703 21.2146 6.70703 15.8735C6.70703 10.5325 11.1094 6.2027 16.54 6.2027C18.9738 6.2027 21.2011 7.07236 22.9182 8.51296C24.6352 7.07238 26.8625 6.20273 29.2963 6.20273C34.7269 6.20273 39.1293 10.5325 39.1293 15.8735C39.1293 21.2146 34.7269 25.5444 29.2963 25.5444C26.8625 25.5444 24.6352 24.6747 22.9182 23.2341Z" fill="#ED0006"/>
<path fill-rule="evenodd" clip-rule="evenodd" d="M22.918 23.2341C25.0322 21.4603 26.3728 18.8209 26.3728 15.8735C26.3728 12.9261 25.0322 10.2867 22.918 8.51292C24.635 7.07234 26.8623 6.2027 29.2961 6.2027C34.7267 6.2027 39.1291 10.5325 39.1291 15.8735C39.1291 21.2146 34.7267 25.5443 29.2961 25.5443C26.8623 25.5443 24.635 24.6747 22.918 23.2341Z" fill="#F9A000"/>
<path fill-rule="evenodd" clip-rule="evenodd" d="M22.9196 23.2342C25.0338 21.4603 26.3744 18.821 26.3744 15.8736C26.3744 12.9263 25.0338 10.2869 22.9196 8.51306C20.8054 10.2869 19.4648 12.9263 19.4648 15.8736C19.4648 18.821 20.8054 21.4604 22.9196 23.2342Z" fill="#FF5E00"/>
</svg>
