<svg width="40" height="25" viewBox="0 0 40 25" fill="none" xmlns="http://www.w3.org/2000/svg">
<path opacity="0.07" d="M36.8421 0H3.15789C1.36842 0 0 1.35417 0 3.125V21.875C0 23.6458 1.47368 25 3.15789 25H36.8421C38.6316 25 40 23.6458 40 21.875V3.125C40 1.35417 38.5263 0 36.8421 0Z" fill="white"/>
<path d="M36.8889 1C38.05 1 39 1.94091 39 3.09091V21.9091C39 23.0591 38.05 24 36.8889 24H3.11111C1.95 24 1 23.0591 1 21.9091V3.09091C1 1.94091 1.95 1 3.11111 1H36.8889Z" fill="white"/>
<path d="M36.8889 1.5C37.7784 1.5 38.5 2.22157 38.5 3.09091V21.9091C38.5 22.7784 37.7784 23.5 36.8889 23.5H3.11111C2.2216 23.5 1.5 22.7784 1.5 21.9091V3.09091C1.5 2.22157 2.2216 1.5 3.11111 1.5H36.8889Z" stroke="#111111" stroke-opacity="0.15"/>
<path d="M16.5 20C20.6421 20 24 16.6421 24 12.5C24 8.35786 20.6421 5 16.5 5C12.3579 5 9 8.35786 9 12.5C9 16.6421 12.3579 20 16.5 20Z" fill="#EB001B"/>
<path d="M24.5 20C28.6421 20 32 16.6421 32 12.5C32 8.35786 28.6421 5 24.5 5C20.3579 5 17 8.35786 17 12.5C17 16.6421 20.3579 20 24.5 20Z" fill="#F79E1B"/>
<path d="M23 13C23 10.4737 21.8 8.26316 20 7C18.2 8.36842 17 10.5789 17 13C17 15.4211 18.2 17.7368 20 19C21.8 17.7368 23 15.5263 23 13Z" fill="#FF5F00"/>
</svg>
