<svg width="78" height="20" viewBox="0 0 78 20" fill="none" xmlns="http://www.w3.org/2000/svg">
<path d="M60.2952 5.23332H56.0857C55.8381 5.23332 55.5905 5.48094 55.4667 5.72856L53.7333 16.6238C53.7333 16.8714 53.8571 16.9952 54.1048 16.9952H56.3333C56.581 16.9952 56.7048 16.8714 56.7048 16.6238L57.2 13.5286C57.2 13.2809 57.4476 13.0333 57.819 13.0333H59.181C62.0286 13.0333 63.6381 11.6714 64.0095 8.94761C64.2571 7.83332 64.0095 6.84285 63.5143 6.2238C62.7714 5.60475 61.6571 5.23332 60.2952 5.23332ZM60.7905 9.31904C60.5429 10.8048 59.4286 10.8048 58.3143 10.8048H57.5714L58.0667 7.95713C58.0667 7.83332 58.1905 7.70951 58.4381 7.70951H58.6857C59.4286 7.70951 60.1714 7.70951 60.5429 8.20475C60.7905 8.32856 60.7905 8.69999 60.7905 9.31904Z" fill="#139AD6"/>
<path d="M29.9619 5.23332H25.7524C25.5048 5.23332 25.2571 5.48094 25.1333 5.72856L23.4 16.6238C23.4 16.8714 23.5238 16.9952 23.7714 16.9952H25.7524C26 16.9952 26.2476 16.7476 26.3714 16.5L26.8667 13.5286C26.8667 13.2809 27.1143 13.0333 27.4857 13.0333H28.8476C31.6952 13.0333 33.3048 11.6714 33.6762 8.94761C33.9238 7.83332 33.6762 6.84285 33.181 6.2238C32.4381 5.60475 31.4476 5.23332 29.9619 5.23332ZM30.4571 9.31904C30.2095 10.8048 29.0952 10.8048 27.981 10.8048H27.3619L27.8571 7.95713C27.8571 7.83332 27.981 7.70951 28.2286 7.70951H28.4762C29.2191 7.70951 29.9619 7.70951 30.3333 8.20475C30.4571 8.32856 30.581 8.69999 30.4571 9.31904Z" fill="#263B80"/>
<path d="M42.7143 9.19523H40.7333C40.6095 9.19523 40.3619 9.31903 40.3619 9.44284L40.2381 10.0619L40.1143 9.81427C39.619 9.19523 38.7524 8.94761 37.7619 8.94761C35.5333 8.94761 33.5524 10.6809 33.181 13.0333C32.9333 14.2714 33.3048 15.3857 33.9238 16.1286C34.5429 16.8714 35.4095 17.119 36.5238 17.119C38.381 17.119 39.3714 16.0047 39.3714 16.0047L39.2476 16.6238C39.2476 16.8714 39.3714 16.9952 39.619 16.9952H41.4762C41.7238 16.9952 41.9714 16.7476 42.0952 16.5L43.2095 9.56665C43.0857 9.44284 42.8381 9.19523 42.7143 9.19523ZM39.8667 13.1571C39.619 14.2714 38.7524 15.1381 37.5143 15.1381C36.8952 15.1381 36.4 14.8905 36.1524 14.6428C35.9048 14.2714 35.781 13.7762 35.781 13.1571C35.9048 12.0428 36.8952 11.1762 38.0095 11.1762C38.6286 11.1762 39 11.4238 39.3714 11.6714C39.7429 12.0428 39.8667 12.6619 39.8667 13.1571Z" fill="#263B80"/>
<path d="M72.9238 9.19523H70.9429C70.8191 9.19523 70.5714 9.31903 70.5714 9.44284L70.4476 10.0619L70.3238 9.81427C69.8286 9.19523 68.9619 8.94761 67.9714 8.94761C65.7429 8.94761 63.7619 10.6809 63.3905 13.0333C63.1429 14.2714 63.5143 15.3857 64.1333 16.1286C64.7524 16.8714 65.6191 17.119 66.7333 17.119C68.5905 17.119 69.581 16.0047 69.581 16.0047L69.4571 16.6238C69.4571 16.8714 69.581 16.9952 69.8286 16.9952H71.6857C71.9333 16.9952 72.181 16.7476 72.3048 16.5L73.4191 9.56665C73.2952 9.44284 73.1714 9.19523 72.9238 9.19523ZM70.0762 13.1571C69.8286 14.2714 68.9619 15.1381 67.7238 15.1381C67.1048 15.1381 66.6095 14.8905 66.3619 14.6428C66.1143 14.2714 65.9905 13.7762 65.9905 13.1571C66.1143 12.0428 67.1048 11.1762 68.2191 11.1762C68.8381 11.1762 69.2095 11.4238 69.581 11.6714C70.0762 12.0428 70.2 12.6619 70.0762 13.1571Z" fill="#139AD6"/>
<path d="M53.4857 9.19524H51.381C51.1333 9.19524 51.0095 9.31905 50.8857 9.44286L48.1619 13.6524L46.9238 9.69048C46.8 9.44286 46.6762 9.31905 46.3048 9.31905H44.3238C44.0762 9.31905 43.9524 9.56667 43.9524 9.81429L46.181 16.3762L44.0762 19.3476C43.9524 19.5952 44.0762 19.9667 44.3238 19.9667H46.3048C46.5524 19.9667 46.6762 19.8429 46.8 19.719L53.6095 9.9381C53.981 9.56667 53.7333 9.19524 53.4857 9.19524Z" fill="#263B80"/>
<path d="M75.2762 5.60476L73.5429 16.7476C73.5429 16.9952 73.6667 17.119 73.9143 17.119H75.6476C75.8952 17.119 76.1429 16.8714 76.2667 16.6238L78 5.72857C78 5.48095 77.8762 5.35714 77.6286 5.35714H75.6476C75.5238 5.23333 75.4 5.35714 75.2762 5.60476Z" fill="#139AD6"/>
<path d="M14.2381 1.51904C13.3714 0.528562 11.7619 0.0333252 9.53333 0.0333252H3.34286C2.97143 0.0333252 2.6 0.404752 2.47619 0.77618L0 16.9952C0 17.3667 0.247619 17.6143 0.495238 17.6143H4.33333L5.32381 11.5476V11.7952C5.44762 11.4238 5.81905 11.0524 6.19048 11.0524H8.04762C11.6381 11.0524 14.3619 9.56666 15.2286 5.48094C15.2286 5.35713 15.2286 5.23332 15.2286 5.10951C15.1048 5.10951 15.1048 5.10951 15.2286 5.10951C15.3524 3.49999 15.1048 2.50951 14.2381 1.51904Z" fill="#263B80"/>
<path d="M15.1048 5.10952C15.1048 5.23333 15.1048 5.35714 15.1048 5.48095C14.2381 9.69048 11.5143 11.0524 7.92381 11.0524H6.06667C5.69524 11.0524 5.32381 11.4238 5.2 11.7952L3.96191 19.3476C3.96191 19.5952 4.08572 19.8429 4.45714 19.8429H7.67619C8.04762 19.8429 8.41905 19.5952 8.41905 19.2238V19.1L9.0381 15.2619V15.0143C9.0381 14.6429 9.40952 14.3952 9.78095 14.3952H10.2762C13.3714 14.3952 15.8476 13.1571 16.4667 9.44286C16.7143 7.95714 16.5905 6.59524 15.8476 5.72857C15.7238 5.48095 15.4762 5.23333 15.1048 5.10952Z" fill="#139AD6"/>
<path d="M14.2381 4.73809C14.1143 4.73809 13.9905 4.61428 13.8667 4.61428C13.7429 4.61428 13.619 4.61428 13.4952 4.49047C13 4.36666 12.5048 4.36666 11.8857 4.36666H7.05714C6.93333 4.36666 6.80952 4.36666 6.68571 4.49047C6.43809 4.61428 6.31428 4.86189 6.31428 5.10951L5.32381 11.5476V11.7952C5.44762 11.4238 5.81905 11.0524 6.19048 11.0524H8.04762C11.6381 11.0524 14.3619 9.56666 15.2286 5.48094C15.2286 5.35713 15.2286 5.23332 15.3524 5.10951C15.1048 4.9857 14.981 4.8619 14.7333 4.8619C14.3619 4.73809 14.3619 4.73809 14.2381 4.73809Z" fill="#232C65"/>
</svg>
