<svg width="45" height="32" viewBox="0 0 45 32" fill="none" xmlns="http://www.w3.org/2000/svg">
<rect x="0.5" y="0.847839" width="44" height="30.3043" rx="2" fill="white" stroke="#D9D9D9"/>
<path fill-rule="evenodd" clip-rule="evenodd" d="M12.9117 20.2273H10.8826C10.7438 20.2273 10.6257 20.3282 10.604 20.4652L9.78338 25.6684C9.76707 25.7711 9.84658 25.8636 9.95072 25.8636H10.9194C11.0583 25.8636 11.1764 25.7627 11.198 25.6254L11.4194 24.222C11.4407 24.0846 11.5591 23.9838 11.6976 23.9838H12.34C13.6766 23.9838 14.4479 23.337 14.6495 22.0553C14.7403 21.4946 14.6533 21.054 14.3907 20.7453C14.1024 20.4066 13.5908 20.2273 12.9117 20.2273ZM13.1458 22.1277C13.0349 22.8558 12.4785 22.8558 11.9406 22.8558H11.6344L11.8493 21.4959C11.862 21.4138 11.9332 21.3533 12.0163 21.3533H12.1566C12.523 21.3533 12.8687 21.3533 13.0473 21.5621C13.1538 21.6868 13.1864 21.8719 13.1458 22.1277ZM18.9771 22.1043H18.0054C17.9226 22.1043 17.8511 22.1649 17.8383 22.2471L17.7953 22.5188L17.7274 22.4204C17.517 22.115 17.048 22.013 16.5798 22.013C15.506 22.013 14.589 22.8262 14.4103 23.9671C14.3175 24.536 14.4495 25.0802 14.7722 25.4597C15.0684 25.8085 15.4921 25.9539 15.9961 25.9539C16.8613 25.9539 17.3411 25.3976 17.3411 25.3976L17.2977 25.6677C17.2814 25.7709 17.3609 25.8635 17.4644 25.8635H18.3397C18.4789 25.8635 18.5963 25.7625 18.6183 25.6252L19.1435 22.2996C19.1601 22.1973 19.0809 22.1043 18.9771 22.1043ZM17.6226 23.9955C17.5288 24.5506 17.0882 24.9232 16.5264 24.9232C16.2442 24.9232 16.0187 24.8328 15.8739 24.6613C15.7303 24.491 15.6757 24.2485 15.7214 23.9786C15.809 23.4282 16.257 23.0435 16.8103 23.0435C17.0862 23.0435 17.3105 23.135 17.4582 23.308C17.6063 23.4828 17.665 23.7267 17.6226 23.9955ZM23.1756 22.1042H24.152C24.2888 22.1042 24.3686 22.2576 24.2909 22.3697L21.0433 27.0574C20.9907 27.1334 20.9041 27.1785 20.8115 27.1785H19.8363C19.699 27.1785 19.6188 27.0239 19.6983 26.9115L20.7095 25.4841L19.634 22.3278C19.5968 22.2181 19.6778 22.1042 19.7945 22.1042H20.754C20.8787 22.1042 20.9886 22.186 21.0246 22.3053L21.5954 24.2116L22.9422 22.2279C22.9949 22.1505 23.0825 22.1042 23.1756 22.1042Z" fill="#253B80"/>
<path fill-rule="evenodd" clip-rule="evenodd" d="M33.7619 25.6683L34.5946 20.3701C34.6074 20.2878 34.6786 20.2273 34.7614 20.227H35.6989C35.8024 20.227 35.8819 20.3198 35.8656 20.4225L35.0444 25.6254C35.023 25.7627 34.9049 25.8636 34.7658 25.8636H33.9286C33.825 25.8636 33.7455 25.771 33.7619 25.6683ZM27.3844 20.2273H25.355C25.2165 20.2273 25.0984 20.3282 25.0767 20.4652L24.256 25.6683C24.2397 25.771 24.3192 25.8636 24.4229 25.8636H25.4641C25.5609 25.8636 25.6437 25.793 25.6588 25.6969L25.8917 24.222C25.9131 24.0846 26.0315 23.9838 26.17 23.9838H26.812C28.1489 23.9838 28.9201 23.337 29.1218 22.0553C29.2129 21.4945 29.1254 21.0539 28.8629 20.7453C28.5747 20.4066 28.0635 20.2273 27.3844 20.2273ZM27.6185 22.1276C27.5079 22.8557 26.9515 22.8557 26.4133 22.8557H26.1074L26.3225 21.4959C26.3353 21.4138 26.4059 21.3533 26.4892 21.3533H26.6295C26.9957 21.3533 27.3417 21.3533 27.5202 21.5621C27.6268 21.6868 27.6592 21.8718 27.6185 22.1276ZM33.4492 22.1043H32.4783C32.3948 22.1043 32.3239 22.1648 32.3114 22.2471L32.2685 22.5188L32.2002 22.4204C31.9899 22.115 31.5211 22.013 31.0529 22.013C29.9791 22.013 29.0624 22.8262 28.8837 23.967C28.7912 24.536 28.9226 25.0801 29.2454 25.4596C29.5421 25.8085 29.9653 25.9539 30.4693 25.9539C31.3344 25.9539 31.8141 25.3976 31.8141 25.3976L31.7709 25.6676C31.7546 25.7709 31.834 25.8634 31.9383 25.8634H32.8131C32.9517 25.8634 33.0697 25.7625 33.0914 25.6252L33.6169 22.2995C33.633 22.1972 33.5535 22.1043 33.4492 22.1043ZM32.0949 23.9955C32.0017 24.5506 31.5605 24.9232 30.9986 24.9232C30.717 24.9232 30.491 24.8327 30.3461 24.6612C30.2025 24.491 30.1486 24.2485 30.1937 23.9786C30.2817 23.4281 30.7292 23.0434 31.2825 23.0434C31.5585 23.0434 31.7827 23.135 31.9306 23.308C32.0791 23.4828 32.1379 23.7266 32.0949 23.9955Z" fill="#179BD7"/>
<path d="M20.4204 18.3659L20.6699 16.7815L20.1143 16.7686H17.4609L19.3049 5.07662C19.3105 5.04132 19.3292 5.00841 19.3564 4.98504C19.3836 4.96167 19.4184 4.94879 19.4547 4.94879H23.9286C25.4139 4.94879 26.4389 5.25787 26.974 5.86791C27.2249 6.15409 27.3847 6.45315 27.462 6.78226C27.543 7.12759 27.5445 7.54017 27.4653 8.04337L27.4595 8.0801V8.40252L27.7105 8.54467C27.9218 8.65675 28.0896 8.78505 28.2184 8.93196C28.4331 9.17665 28.5719 9.48763 28.6306 9.85632C28.6911 10.2355 28.6711 10.6867 28.5719 11.1976C28.4574 11.7852 28.2724 12.297 28.0225 12.7158C27.7925 13.1016 27.4996 13.4216 27.152 13.6697C26.82 13.9053 26.4255 14.0842 25.9796 14.1987C25.5474 14.3112 25.0547 14.368 24.5143 14.368H24.1661C23.9172 14.368 23.6753 14.4577 23.4855 14.6185C23.2952 14.7825 23.1692 15.0066 23.1306 15.2518L23.1044 15.3945L22.6637 18.187L22.6436 18.2896C22.6384 18.3221 22.6293 18.3383 22.616 18.3493C22.6041 18.3592 22.5869 18.3659 22.5701 18.3659H20.4204Z" fill="#253B80"/>
<path d="M27.9478 8.11743C27.9345 8.2028 27.9192 8.29009 27.9021 8.37976C27.312 11.409 25.2935 12.4555 22.7154 12.4555H21.4028C21.0876 12.4555 20.8219 12.6844 20.7728 12.9954L20.1007 17.2576L19.9104 18.4657C19.8784 18.6699 20.0359 18.854 20.2418 18.854H22.57C22.8457 18.854 23.0798 18.6537 23.1232 18.3818L23.1461 18.2635L23.5845 15.4818L23.6127 15.3293C23.6555 15.0564 23.8902 14.8561 24.1659 14.8561H24.5141C26.7696 14.8561 28.5354 13.9403 29.0516 11.2902C29.2671 10.1832 29.1555 9.25882 28.585 8.60871C28.4124 8.41267 28.1982 8.25002 27.9478 8.11743Z" fill="#179BD7"/>
<path d="M27.3313 7.87156C27.2412 7.84532 27.1481 7.82147 27.0527 7.80001C26.9569 7.77904 26.8586 7.76043 26.7575 7.74422C26.4036 7.68698 26.0158 7.65979 25.6004 7.65979H22.0937C22.0074 7.65979 21.9254 7.67934 21.8519 7.71464C21.6902 7.79238 21.5701 7.9455 21.5409 8.13294L20.7949 12.8578L20.7734 12.9956C20.8226 12.6847 21.0883 12.4557 21.4035 12.4557H22.7161C25.2942 12.4557 27.3128 11.4088 27.9027 8.38001C27.9203 8.29034 27.9351 8.20306 27.9485 8.11769C27.7992 8.0385 27.6375 7.97077 27.4634 7.91305C27.4205 7.89875 27.3762 7.88492 27.3313 7.87156Z" fill="#222D65"/>
<path d="M21.5426 8.13282C21.5717 7.94536 21.6919 7.79226 21.8535 7.71499C21.9275 7.67969 22.0091 7.66014 22.0953 7.66014H25.6021C26.0176 7.66014 26.4053 7.68732 26.7591 7.74456C26.8603 7.76078 26.9586 7.77938 27.0545 7.80036C27.1499 7.82183 27.2428 7.84568 27.333 7.87191C27.3778 7.88527 27.4222 7.89909 27.4655 7.91293C27.6396 7.97064 27.8014 8.03885 27.9506 8.11755C28.1262 6.9981 27.9493 6.23591 27.344 5.54573C26.6768 4.78592 25.4724 4.46063 23.9313 4.46063H19.4572C19.1424 4.46063 18.874 4.68957 18.8252 5.00103L16.9618 16.8132C16.925 17.0469 17.1053 17.2578 17.3409 17.2578H20.1031L20.7966 12.8577L21.5426 8.13282Z" fill="#253B80"/>
</svg>
