<svg width="40" height="25" viewBox="0 0 40 25" fill="none" xmlns="http://www.w3.org/2000/svg">
<path opacity="0.07" d="M36.8421 0H3.15789C1.36842 0 0 1.35417 0 3.125V21.875C0 23.6458 1.47368 25 3.15789 25H36.8421C38.6316 25 40 23.6458 40 21.875V3.125C40 1.35417 38.5263 0 36.8421 0Z" fill="white"/>
<path d="M37.7779 0C39 0 40 1.02292 40 2.27292V22.7271C40 23.9771 39 25 37.7779 25H2.22105C1 25 0 23.9771 0 22.7271V2.27292C0 1.02292 1 0 2.22211 0H37.7779Z" fill="#5A31F4"/>
<path d="M10.0962 11.8374C9.0525 11.6038 8.58761 11.5127 8.58761 11.0989C8.58761 10.7093 8.90164 10.5144 9.53175 10.5144C10.0859 10.5144 10.4903 10.7637 10.7889 11.2519C10.7994 11.27 10.8163 11.2833 10.8362 11.2892C10.856 11.295 10.8773 11.2929 10.8956 11.2833L12.0717 10.6716C12.0817 10.6661 12.0906 10.6586 12.0977 10.6496C12.1048 10.6406 12.11 10.6302 12.1131 10.619C12.1162 10.6078 12.117 10.5962 12.1155 10.5847C12.1141 10.5732 12.1103 10.5621 12.1046 10.5521C11.6171 9.68165 10.716 9.20503 9.52868 9.20503C7.96878 9.20503 7 9.9959 7 11.254C7 12.5896 8.18019 12.9269 9.22696 13.1605C10.2737 13.393 10.7396 13.4852 10.7396 13.899C10.7396 14.3138 10.3989 14.5086 9.72058 14.5086C9.09252 14.5086 8.62763 14.2132 8.34541 13.6392C8.33553 13.6195 8.31846 13.6047 8.29789 13.5978C8.27733 13.5909 8.25495 13.5926 8.2356 13.6025L7.0626 14.1996C7.04269 14.2101 7.02765 14.2282 7.02073 14.25C7.01381 14.2718 7.01558 14.2954 7.02566 14.3159C7.49157 15.2796 8.44598 15.8212 9.72161 15.8212C11.3462 15.8212 12.3273 15.0439 12.3273 13.7471C12.3273 12.4502 11.1419 12.0731 10.0972 11.8406L10.0962 11.8374ZM16.3974 9.20503C15.7303 9.20503 15.1412 9.44805 14.7184 9.88172C14.7126 9.88799 14.7051 9.89228 14.6968 9.894C14.6885 9.89573 14.6799 9.89481 14.6722 9.89138C14.6645 9.88794 14.6579 9.88216 14.6535 9.87481C14.6491 9.86745 14.6471 9.8589 14.6476 9.8503V7.08485C14.6477 7.07376 14.6457 7.06275 14.6416 7.05246C14.6376 7.04217 14.6316 7.03281 14.6239 7.02491C14.6163 7.01702 14.6072 7.01075 14.5972 7.00648C14.5871 7.0022 14.5764 7 14.5655 7H13.0928C13.0819 7 13.071 7.00223 13.0609 7.00657C13.0508 7.01092 13.0417 7.01728 13.034 7.02528C13.0264 7.03329 13.0204 7.04277 13.0164 7.05318C13.0124 7.06359 13.0105 7.07472 13.0107 7.0859V15.6693C13.0105 15.6804 13.0124 15.6916 13.0164 15.702C13.0204 15.7124 13.0264 15.7219 13.034 15.7299C13.0417 15.7379 13.0508 15.7442 13.0609 15.7486C13.071 15.7529 13.0819 15.7552 13.0928 15.7552H14.5635C14.5745 15.7553 14.5855 15.7532 14.5957 15.7489C14.6059 15.7446 14.6151 15.7383 14.6229 15.7303C14.6307 15.7222 14.6368 15.7127 14.6408 15.7022C14.6449 15.6917 14.6469 15.6805 14.6466 15.6693V11.9045C14.6466 11.1765 15.1884 10.6192 15.9181 10.6192C16.6467 10.6192 17.1763 11.1649 17.1763 11.9045V15.6693C17.176 15.6805 17.178 15.6917 17.182 15.7022C17.1861 15.7127 17.1922 15.7222 17.1999 15.7303C17.2077 15.7383 17.217 15.7446 17.2272 15.7489C17.2374 15.7532 17.2484 15.7553 17.2594 15.7552H18.73C18.7411 15.7553 18.752 15.7532 18.7622 15.7489C18.7725 15.7446 18.7817 15.7383 18.7895 15.7303C18.7972 15.7222 18.8033 15.7127 18.8074 15.7022C18.8115 15.6917 18.8134 15.6805 18.8131 15.6693V11.9045C18.8131 10.3227 17.8074 9.20503 16.3974 9.20503ZM21.7985 8.95886C21.0001 8.95886 20.2519 9.21026 19.7152 9.5748C19.6972 9.58666 19.6844 9.60508 19.6792 9.62629C19.6741 9.6475 19.677 9.66992 19.6875 9.68898L20.3361 10.8287C20.3414 10.8384 20.3486 10.8469 20.3572 10.8537C20.3658 10.8606 20.3756 10.8656 20.3861 10.8685C20.3966 10.8714 20.4076 10.8722 20.4184 10.8708C20.4292 10.8693 20.4396 10.8657 20.449 10.8601C20.8562 10.6064 21.3246 10.4737 21.8016 10.4767C23.0844 10.4767 24.0285 11.4101 24.0285 12.643C24.0285 13.6936 23.2732 14.4709 22.3157 14.4709C21.5358 14.4709 20.9939 14.0037 20.9939 13.3427C20.9939 12.9646 21.1499 12.6545 21.5563 12.4356C21.5664 12.4303 21.5753 12.423 21.5825 12.4141C21.5897 12.4052 21.595 12.3948 21.5981 12.3837C21.6012 12.3726 21.602 12.361 21.6004 12.3495C21.5989 12.3381 21.595 12.3271 21.5891 12.3172L20.9775 11.2508C20.9678 11.2335 20.9523 11.2203 20.9339 11.2135C20.9154 11.2068 20.8952 11.207 20.8769 11.2142C20.057 11.5274 19.4823 12.2805 19.4823 13.2924C19.4823 14.8218 20.6645 15.9636 22.3147 15.9636C24.241 15.9636 25.6264 14.5882 25.6264 12.6168C25.6264 10.5029 24.0152 8.95886 21.7985 8.95886ZM29.9284 9.19246C29.1854 9.19246 28.5194 9.47529 28.035 9.97391C28.0083 10.0022 27.9642 9.98124 27.9642 9.94353V9.34435C27.9645 9.33317 27.9626 9.32204 27.9586 9.31163C27.9545 9.30122 27.9485 9.29174 27.9409 9.28373C27.9332 9.27573 27.9241 9.26937 27.914 9.26502C27.9039 9.26068 27.8931 9.25845 27.8821 9.25845H26.4484C26.4375 9.25845 26.4266 9.26068 26.4165 9.26502C26.4064 9.26937 26.3973 9.27573 26.3896 9.28373C26.382 9.29174 26.376 9.30122 26.372 9.31163C26.368 9.32204 26.3661 9.33317 26.3663 9.34435V17.9151C26.3662 17.9262 26.3682 17.9372 26.3723 17.9475C26.3764 17.9578 26.3824 17.9672 26.39 17.9751C26.3976 17.983 26.4067 17.9892 26.4168 17.9935C26.4268 17.9978 26.4376 18 26.4484 18H27.919C27.93 18.0001 27.9409 17.998 27.951 17.9938C27.9612 17.9896 27.9704 17.9834 27.9781 17.9755C27.9859 17.9675 27.992 17.9581 27.9961 17.9478C28.0003 17.9374 28.0023 17.9263 28.0022 17.9151V15.1047C28.0022 15.0669 28.0463 15.0481 28.073 15.0732C28.5757 15.5527 29.2405 15.8154 29.9284 15.8065C31.6546 15.8065 33 14.3682 33 12.4995C33 10.6307 31.6525 9.19246 29.9284 9.19246ZM29.6503 14.3557C28.6692 14.3557 27.9252 13.5512 27.9252 12.488C27.9252 11.4247 28.6672 10.6202 29.6503 10.6202C30.6335 10.6202 31.3744 11.4111 31.3744 12.488C31.3744 13.5638 30.6437 14.3557 29.6503 14.3557Z" fill="white"/>
</svg>
