<svg width="45" height="32" viewBox="0 0 45 32" fill="none" xmlns="http://www.w3.org/2000/svg">
<rect x="0.5" y="0.847839" width="44" height="30.3043" rx="2" fill="white" stroke="#D9D9D9"/>
<path fill-rule="evenodd" clip-rule="evenodd" d="M24.1796 10.9678L21.8937 11.4655V9.58534L24.1796 9.09686V10.9678ZM14.8901 10.166L12.668 10.6453L12.6589 18.0277C12.6589 19.3918 13.6698 20.3964 15.0176 20.3964C15.7644 20.3964 16.3109 20.2581 16.6114 20.0922V18.2213C16.32 18.3411 14.881 18.765 14.881 17.401V14.1291H16.6114V12.166H14.881L14.8901 10.166ZM9.50792 14.0093C9.02524 14.0093 8.73381 14.1476 8.73381 14.507C8.73381 14.8995 9.23536 15.0721 9.8576 15.2863C10.872 15.6354 12.2071 16.095 12.2128 17.7973C12.2128 19.4471 10.9104 20.3964 9.01613 20.3964C8.23291 20.3964 7.37683 20.2397 6.52987 19.8711V17.6775C7.29487 18.1015 8.26023 18.4148 9.01613 18.4148C9.52613 18.4148 9.89042 18.2766 9.89042 17.8526C9.89042 17.4179 9.34672 17.2192 8.69033 16.9793C7.6907 16.614 6.42969 16.1531 6.42969 14.6176C6.42969 12.9863 7.65916 12.0093 9.50792 12.0093C10.2638 12.0093 11.0106 12.1291 11.7665 12.4333V14.5992C11.0744 14.2213 10.2001 14.0093 9.50792 14.0093ZM35.9277 12.0093C38.0861 12.0093 39.2154 13.8711 39.2154 16.2305C39.2154 16.3574 39.2094 16.5691 39.2043 16.7493L39.2043 16.7498L39.2043 16.7505L39.2042 16.751L39.2042 16.7516C39.2004 16.8846 39.1972 17 39.1972 17.0508H34.7438C34.844 18.1383 35.6272 18.4517 36.5106 18.4517C37.4122 18.4517 38.1225 18.2582 38.7418 17.9448V19.7881C38.1225 20.1383 37.3029 20.3872 36.2191 20.3872C33.997 20.3872 32.4488 18.9863 32.4488 16.2121C32.4488 13.8711 33.7602 12.0093 35.9277 12.0093ZM35.9186 13.8803C35.3448 13.8803 34.7164 14.3135 34.7164 15.3549H37.0661C37.0661 14.3135 36.4741 13.8803 35.9186 13.8803ZM19.4439 12.848L19.2982 12.166H17.331V20.2305H19.6078V14.7651C20.1452 14.0554 21.0559 14.1844 21.3382 14.2858V12.166C21.0468 12.0554 19.9812 11.8526 19.4439 12.848ZM21.8935 12.166H24.1794V20.2305H21.8935V12.166ZM28.9333 12.0093C28.0408 12.0093 27.4671 12.4333 27.1483 12.7282L27.0299 12.1568H25.0263V22.9033L27.3031 22.4148L27.3122 19.8066C27.6401 20.0462 28.1228 20.3872 28.9242 20.3872C30.5544 20.3872 32.0389 19.06 32.0389 16.1384C32.0297 13.4655 30.5271 12.0093 28.9333 12.0093ZM28.3869 18.3595C27.8495 18.3595 27.5308 18.166 27.3122 17.9263L27.3031 14.507C27.5399 14.2397 27.8678 14.0554 28.3869 14.0554C29.2156 14.0554 29.7894 14.9955 29.7894 16.2028C29.7894 17.4379 29.2247 18.3595 28.3869 18.3595Z" fill="#6461FC"/>
</svg>
