<svg width="40" height="25" viewBox="0 0 40 25" fill="none" xmlns="http://www.w3.org/2000/svg">
<path d="M18.6931 0V25H11.0891C9.71617 25 8.87129 23.9583 9.18812 22.6042L13.835 2.39583C14.1518 1.04167 15.8416 0 17.2145 0H18.6931ZM32 0C30.6271 0 28.9373 1.04167 28.6205 2.39583L23.868 22.6042C23.5512 23.9583 24.396 25 25.769 25H20.5941V0H32Z" fill="#005B9A"/>
<path d="M17 0C15.6358 0 13.9568 1.14583 13.642 2.39583L9.02469 22.6042C8.70988 23.9583 9.54938 25 10.9136 25H1.57407C0.734568 25 0 24.375 0 23.5417V1.66667C0 0.833334 0.734568 0 1.57407 0H17Z" fill="#E9292D"/>
<path d="M32 0C30.6198 0 28.921 1.14583 28.6025 2.39583L23.9309 22.6042C23.6124 23.9583 24.4618 25 25.842 25H10.4471H10.978C9.59772 25 8.74835 23.9583 9.06686 22.6042L13.7384 2.39583C14.0569 1.04167 15.7557 0 17.1359 0H32Z" fill="#0E73B9"/>
<path d="M40 1.66667V23.5417C40 24.375 39.3792 25 38.4479 25H25.9277C24.5825 25 23.7547 23.8542 24.0652 22.6042L28.7214 2.39583C29.0319 1.04167 30.6874 0 32.0326 0H38.4479C39.3792 0 40 0.729167 40 1.66667Z" fill="#059DA4"/>
<path d="M15.9484 14.7225H16.0964C16.2444 14.7225 16.3924 14.6492 16.3924 14.5759L16.8363 13.9162H18.0942L17.8722 14.2827H19.352L19.13 14.9424H17.3543C17.1323 15.2356 16.9103 15.3822 16.6144 15.3822H15.7265L15.9484 14.7225ZM15.7265 15.6754H18.9081L18.6861 16.4084H17.4283L17.2063 17.1414H18.4641L18.2422 17.8743H16.9843L16.6883 18.9738C16.6144 19.1204 16.6883 19.267 16.9843 19.1937H18.0202L17.7982 19.9267H15.8005C15.4305 19.9267 15.2825 19.7068 15.4305 19.267L15.8005 17.8743H14.9865L15.2085 17.1414H16.0224L16.2444 16.4084H15.5045L15.7265 15.6754ZM20.8318 13.8429V14.2827C20.8318 14.2827 21.4238 13.8429 22.0157 13.8429H24.0874L23.2735 16.6283C23.1996 16.9215 22.9036 17.1414 22.4596 17.1414H20.0919L19.574 19.1204C19.574 19.1937 19.574 19.267 19.722 19.267H20.1659L20.0179 19.8534H18.8341C18.3901 19.8534 18.2422 19.7068 18.3161 19.4869L19.87 13.8429H20.8318ZM22.6076 14.6492H20.7578L20.5359 15.3822C20.5359 15.3822 20.8318 15.1623 21.3498 15.1623H22.4596L22.6076 14.6492ZM21.9417 16.4084C22.0897 16.4084 22.1637 16.4084 22.1637 16.2618L22.3117 15.8953H20.4619L20.3139 16.4817L21.9417 16.4084ZM20.6839 17.288H21.7197V17.7277H22.0157C22.1637 17.7277 22.2377 17.6544 22.2377 17.5812L22.3117 17.288H23.1996L23.0516 17.801C22.9776 18.1675 22.6816 18.3141 22.2377 18.3874H21.6457V19.1937C21.6457 19.3403 21.7197 19.4136 22.0157 19.4136H22.5336L22.3857 20H21.1278C20.7578 20 20.6099 19.8534 20.6099 19.4869L20.6839 17.288ZM25.1233 14.7225L25.3453 13.8429H26.6031L26.5292 14.1361C26.5292 14.1361 27.1211 13.8429 27.639 13.8429H29.1928L28.9709 14.7225H28.7489L27.565 18.7539H27.787L27.565 19.5602H27.3431L27.2691 19.9267H26.0112L26.0852 19.5602H23.7915L24.0135 18.7539H24.2354L25.4193 14.7225H25.1233ZM26.4552 14.7225L26.1592 15.822C26.1592 15.822 26.6771 15.6021 27.1211 15.5288C27.1951 15.1623 27.3431 14.7225 27.3431 14.7225H26.4552ZM25.9372 16.3351L25.6413 17.5079C25.6413 17.5079 26.2332 17.2147 26.6771 17.2147C26.8251 16.7749 26.8991 16.4084 26.8991 16.4084L25.9372 16.3351ZM26.1592 18.7539L26.3812 17.9476H25.4933L25.2713 18.7539H26.1592ZM29.1928 13.8429H30.3767L30.4507 14.2827C30.4507 14.356 30.5247 14.4293 30.6726 14.4293H30.8946L30.6726 15.1623H29.8587C29.5628 15.1623 29.3408 15.089 29.3408 14.7958L29.1928 13.8429ZM28.8229 15.3822H32.5964L32.3744 16.1885H31.1166L30.8946 16.9215H32.0785L31.8565 17.7277H30.5247L30.2287 18.1675H30.8946L31.0426 19.0471C31.0426 19.1204 31.1166 19.1937 31.2646 19.1937H31.4865L31.2646 19.9267H30.5247C30.1547 19.9267 29.9327 19.8534 29.9327 19.5602L29.7848 18.7539L29.1928 19.6335C29.0448 19.8534 28.8229 20 28.5269 20H27.417L27.639 19.267H28.009C28.157 19.267 28.2309 19.1937 28.3789 19.0471L29.2668 17.7277H28.157L28.3789 16.9215H29.6368L29.8587 16.1885H28.6009L28.8229 15.3822ZM7.9574 10.1047C7.80942 10.8377 7.51346 11.3508 6.99552 11.7173C6.47758 12.0838 5.81166 12.3037 4.99776 12.3037C4.25785 12.3037 3.66592 12.0838 3.36996 11.7173C3.14798 11.4241 3 11.1309 3 10.6911C3 10.5445 3 10.3246 3.07399 10.1047L3.96188 6H5.21973L4.40583 10.1047V10.3979C4.40583 10.6178 4.47982 10.7644 4.55381 10.911C4.70179 11.1309 4.92377 11.2042 5.29372 11.2042C5.66368 11.2042 6.03363 11.1309 6.25561 10.911C6.47758 10.6911 6.69955 10.4712 6.77354 10.1047L7.58745 6H8.84529L7.9574 10.1047ZM9.14126 8.49215H10.0291L9.95516 9.00524L10.1031 8.85864C10.3991 8.56544 10.7691 8.41885 11.213 8.41885C11.583 8.41885 11.8789 8.56544 12.0269 8.78534C12.1749 9.00523 12.2489 9.29843 12.1749 9.73822L11.657 12.2304H10.6951L11.139 9.95812C11.213 9.66492 11.213 9.44503 11.139 9.37173C11.065 9.22513 10.917 9.22513 10.7691 9.22513C10.5471 9.22513 10.3251 9.29843 10.1771 9.44502C10.0291 9.59162 9.88117 9.81152 9.88117 10.1047L9.43722 12.2304H8.47534L9.14126 8.49215ZM19.5 8.49215H20.3879L20.3139 9.00524L20.4619 8.85864C20.7578 8.56544 21.1278 8.41885 21.5718 8.41885C21.9417 8.41885 22.2377 8.56544 22.3857 8.78534C22.5336 9.00523 22.6076 9.29843 22.5336 9.73822L22.0157 12.2304H21.0538L21.4978 9.88482C21.5718 9.66492 21.4978 9.44503 21.4238 9.37173C21.3498 9.22513 21.2018 9.22513 21.0538 9.22513C20.8318 9.22513 20.6099 9.29843 20.4619 9.44502C20.3139 9.59162 20.1659 9.81152 20.1659 10.1047L19.722 12.2304H18.7601L19.5 8.49215ZM13.3587 8.49215H14.3946L13.5807 12.1571H12.5448L13.3587 8.49215ZM13.7287 7.09948H14.7646L14.5426 7.97906H13.5067L13.7287 7.09948ZM15.2085 11.8639C14.9865 11.644 14.8386 11.2775 14.8386 10.8377V10.6178C14.8386 10.5445 14.8386 10.3979 14.9126 10.3246C15.0605 9.73822 15.2825 9.22513 15.6525 8.93194C16.0224 8.56545 16.5404 8.41885 17.0583 8.41885C17.5022 8.41885 17.8722 8.56544 18.1682 8.78534C18.3901 9.00523 18.5381 9.37173 18.5381 9.81152V10.0314C18.5381 10.1047 18.5381 10.2513 18.4641 10.3246C18.3161 10.911 18.0942 11.3508 17.7242 11.7173C17.3543 12.0838 16.8363 12.2304 16.3184 12.2304C15.9484 12.2304 15.5785 12.0838 15.2085 11.8639ZM17.2063 11.1309C17.3543 10.911 17.5022 10.6178 17.5762 10.2513V9.88482C17.5762 9.66492 17.5022 9.51832 17.4283 9.37173C17.3632 9.30007 17.2831 9.2433 17.1937 9.20533C17.1043 9.16736 17.0076 9.14911 16.9103 9.15183C16.6144 9.15183 16.3924 9.22513 16.2444 9.44502C16.0964 9.66492 15.9484 9.95811 15.8744 10.3246V10.6178C15.8744 10.8377 15.9484 10.9843 16.0224 11.1309C16.1704 11.2775 16.3184 11.3508 16.5404 11.3508C16.8363 11.4241 16.9843 11.3508 17.2063 11.1309ZM24.0874 6.21989H26.7511C27.2691 6.21989 27.639 6.36649 27.935 6.58639C28.2309 6.80628 28.3049 7.17277 28.3049 7.53927V7.83246C28.3049 7.90576 28.3049 8.05236 28.2309 8.12565C28.157 8.63874 27.861 9.15183 27.491 9.44502C27.0471 9.81152 26.6031 9.95812 26.0112 9.95812H24.5314L24.0874 12.0838H22.8296L24.0874 6.21989ZM24.6794 8.93194H25.8632C26.1592 8.93194 26.3812 8.85864 26.6031 8.71204C26.7511 8.56544 26.8991 8.34555 26.9731 8.05236V7.75916C26.9731 7.53927 26.8991 7.39267 26.7511 7.31937C26.6031 7.24607 26.3812 7.17277 26.0112 7.17277H25.0493L24.6794 8.93194ZM33.8543 12.8168C33.4843 13.623 33.1144 14.1361 32.8924 14.356C32.6704 14.5759 32.2265 15.089 31.1906 15.089L31.2646 14.4293C32.1525 14.1361 32.5964 12.9633 32.8924 12.377L32.5964 8.41885H33.8543L33.9283 10.911L34.8901 8.49215H36L33.8543 12.8168ZM30.7466 8.78534L30.3027 9.07853C29.8587 8.71204 29.4148 8.49214 28.6749 8.85864C27.639 9.37173 26.6771 13.1832 29.6368 11.9372L29.7848 12.1571H30.9686L31.7085 8.71204L30.7466 8.78534ZM30.1547 10.6911C29.9327 11.2775 29.5628 11.5707 29.1928 11.4974C28.8969 11.3508 28.8229 10.8377 28.9709 10.2513C29.1928 9.66492 29.5628 9.37173 29.9327 9.44502C30.2287 9.59162 30.3027 10.1047 30.1547 10.6911Z" fill="white"/>
</svg>
