<svg width="41" height="12" viewBox="0 0 41 12" fill="none" xmlns="http://www.w3.org/2000/svg">
<path d="M15.0333 11.6859L17.1159 0.376962H20.3698L18.3524 11.6859H15.0333Z" fill="#3C58BF"/>
<path d="M15.0333 11.6859L17.7016 0.376962H20.3698L18.3524 11.6859H15.0333Z" fill="#293688"/>
<path d="M30.1317 0.502617C29.481 0.251308 28.4397 0 27.1381 0C23.8841 0 21.5413 1.57068 21.5413 3.83246C21.5413 5.5288 23.1683 6.40838 24.4698 6.97382C25.7714 7.53927 26.1619 7.91623 26.1619 8.41885C26.1619 9.17277 25.1206 9.54974 24.2095 9.54974C22.9079 9.54974 22.1921 9.36126 21.0857 8.92147L20.6302 8.73298L20.1746 11.3089C20.9556 11.623 22.3873 11.9372 23.8841 11.9372C27.3333 11.9372 29.6111 10.3665 29.6111 7.97906C29.6111 6.65969 28.7651 5.65445 26.8127 4.8377C25.6413 4.27225 24.9254 3.95812 24.9254 3.39267C24.9254 2.89005 25.5111 2.38743 26.8127 2.38743C27.919 2.38743 28.7 2.57592 29.2857 2.82723L29.6111 2.95288L30.1317 0.502617Z" fill="#3C58BF"/>
<path d="M30.1317 0.502617C29.481 0.251308 28.4397 0 27.1381 0C23.8841 0 22.127 1.57068 22.127 3.83246C22.127 5.5288 23.1683 6.40838 24.4698 6.97382C25.7714 7.53927 26.1619 7.91623 26.1619 8.41885C26.1619 9.17277 25.1206 9.54974 24.2095 9.54974C22.9079 9.54974 22.1921 9.36126 21.0857 8.92147L20.6302 8.73298L20.1746 11.3089C20.9556 11.623 22.3873 11.9372 23.8841 11.9372C27.3333 11.9372 29.6111 10.3665 29.6111 7.97906C29.6111 6.65969 28.7651 5.65445 26.8127 4.8377C25.6413 4.27225 24.9254 3.95812 24.9254 3.39267C24.9254 2.89005 25.5111 2.38743 26.8127 2.38743C27.919 2.38743 28.7 2.57592 29.2857 2.82723L29.6111 2.95288L30.1317 0.502617Z" fill="#293688"/>
<path d="M35.7286 0.376962C34.9476 0.376962 34.3619 0.43979 34.0365 1.19372L29.1556 11.6859H32.6698L33.3206 9.80105H37.4857L37.8762 11.6859H41L38.2667 0.376962H35.7286ZM34.2317 7.91623C34.427 7.35078 35.5333 4.58639 35.5333 4.58639C35.5333 4.58639 35.7937 3.89529 35.9889 3.4555L36.1841 4.52356C36.1841 4.52356 36.8349 7.35079 36.9651 7.97906H34.2317V7.91623Z" fill="#3C58BF"/>
<path d="M36.5095 0.376962C35.7286 0.376962 35.1429 0.43979 34.8175 1.19372L29.1556 11.6859H32.6698L33.3206 9.80105H37.4857L37.8762 11.6859H41L38.2667 0.376962H36.5095ZM34.2317 7.91623C34.4921 7.28796 35.5333 4.58639 35.5333 4.58639C35.5333 4.58639 35.7937 3.89529 35.9889 3.4555L36.1841 4.52356C36.1841 4.52356 36.8349 7.35079 36.9651 7.97906H34.2317V7.91623Z" fill="#293688"/>
<path d="M9.04603 8.29319L8.72064 6.65969C8.13492 4.77487 6.24762 2.70157 4.16508 1.69633L7.09365 11.7487H10.6079L15.8794 0.43979H12.3651L9.04603 8.29319Z" fill="#3C58BF"/>
<path d="M9.04603 8.29319L8.72064 6.65969C8.13492 4.77487 6.24762 2.70157 4.16508 1.69633L7.09365 11.7487H10.6079L15.8794 0.43979H13.0159L9.04603 8.29319Z" fill="#293688"/>
<path d="M0 0.376962L0.585714 0.502617C4.75079 1.44503 7.61429 3.83246 8.72064 6.65969L7.54921 1.31937C7.35397 0.565444 6.76825 0.376962 6.05238 0.376962H0Z" fill="#FFBC00"/>
<path d="M0 0.376962C4.16508 1.31937 7.61429 3.76963 8.72064 6.59686L7.61429 2.13613C7.41905 1.3822 6.76825 0.942408 6.05238 0.942408L0 0.376962Z" fill="#F7981D"/>
<path d="M0 0.376962C4.16508 1.31937 7.61429 3.76963 8.72064 6.59686L7.93968 4.1466C7.74444 3.39267 7.48413 2.63874 6.57302 2.32461L0 0.376962Z" fill="#ED7C00"/>
<path d="M12.3 7.91623L10.0873 5.7801L9.04603 8.16754L8.78571 6.59686C8.2 4.71204 6.3127 2.63874 4.23016 1.63351L7.15873 11.6859H10.673L12.3 7.91623Z" fill="#051244"/>
<path d="M18.3524 11.6859L15.554 8.92147L15.0333 11.6859H18.3524Z" fill="#051244"/>
<path d="M25.8365 7.79058C26.0968 8.04188 26.227 8.23037 26.1619 8.48168C26.1619 9.2356 25.1206 9.61257 24.2095 9.61257C22.9079 9.61257 22.1921 9.42408 21.0857 8.98429L20.6302 8.79581L20.1746 11.3717C20.9556 11.6859 22.3873 12 23.8841 12C25.9667 12 27.6587 11.4346 28.6349 10.4293L25.8365 7.79058Z" fill="#051244"/>
<path d="M29.6111 11.6859H32.6698L33.3206 9.80105H37.4857L37.8762 11.6859H41L39.8937 7.09948L35.9889 3.4555L36.1841 4.46073C36.1841 4.46073 36.8349 7.28796 36.9651 7.91623H34.2317C34.4921 7.28796 35.5333 4.58639 35.5333 4.58639C35.5333 4.58639 35.7937 3.89529 35.9889 3.4555" fill="#051244"/>
</svg>
