<svg width="45" height="32" viewBox="0 0 45 32" fill="none" xmlns="http://www.w3.org/2000/svg">
<rect x="0.5" y="0.847839" width="44" height="30.3043" rx="2" fill="white" stroke="#D9D9D9"/>
<path fill-rule="evenodd" clip-rule="evenodd" d="M13.7464 21.5543H11.0203L8.97603 13.6423C8.87901 13.2783 8.67298 12.9566 8.36993 12.8049C7.61364 12.4238 6.78025 12.1205 5.87109 11.9676V11.6629H10.2627C10.8688 11.6629 11.3233 12.1205 11.3991 12.6519L12.4598 18.3591L15.1846 11.6629H17.835L13.7464 21.5543ZM19.3502 21.5543H16.7756L18.8956 11.6629H21.4702L19.3502 21.5543ZM24.8011 14.4031C24.8769 13.8704 25.3315 13.5658 25.8618 13.5658C26.6952 13.4893 27.603 13.6423 28.3607 14.022L28.8152 11.8924C28.0576 11.5878 27.2242 11.4348 26.4679 11.4348C23.9691 11.4348 22.1508 12.8049 22.1508 14.7064C22.1508 16.153 23.4387 16.9126 24.3479 17.3701C25.3315 17.8264 25.7103 18.131 25.6345 18.5873C25.6345 19.2717 24.8769 19.5763 24.1206 19.5763C23.2115 19.5763 22.3023 19.3481 21.4702 18.967L21.0157 21.098C21.9248 21.4778 22.9084 21.6308 23.8176 21.6308C26.6194 21.7059 28.3607 20.3371 28.3607 18.2827C28.3607 15.6954 24.8011 15.5438 24.8011 14.4031ZM37.3711 21.5543L35.3269 11.6629H33.1311C32.6765 11.6629 32.2219 11.9676 32.0704 12.4238L28.2849 21.5543H30.9353L31.4643 20.109H34.7208L35.0238 21.5543H37.3711ZM33.5098 14.3267L34.2661 18.0545H32.1461L33.5098 14.3267Z" fill="#172B85"/>
</svg>
