<svg width="40" height="25" viewBox="0 0 40 25" fill="none" xmlns="http://www.w3.org/2000/svg">
<path opacity="0.07" d="M36.8421 0H3.15789C1.36842 0 0 1.35417 0 3.125V21.875C0 23.6458 1.47368 25 3.15789 25H36.8421C38.6316 25 40 23.6458 40 21.875V3.125C40 1.35417 38.5263 0 36.8421 0Z" fill="white"/>
<path d="M36.8889 1C38.05 1 39 1.94091 39 3.09091V21.9091C39 23.0591 38.05 24 36.8889 24H3.11111C1.95 24 1 23.0591 1 21.9091V3.09091C1 1.94091 1.95 1 3.11111 1H36.8889Z" fill="white"/>
<path d="M36.8889 1.5C37.7784 1.5 38.5 2.22157 38.5 3.09091V21.9091C38.5 22.7784 37.7784 23.5 36.8889 23.5H3.11111C2.2216 23.5 1.5 22.7784 1.5 21.9091V3.09091C1.5 2.22157 2.2216 1.5 3.11111 1.5H36.8889Z" stroke="#111111" stroke-opacity="0.15"/>
<path d="M29.0114 10.1H28.7023C28.2901 11.1 27.9809 11.6 27.6718 13.1H29.6298C29.3206 11.6 29.3206 10.9 29.0114 10.1ZM32 16H30.2481C30.145 16 30.145 16 30.042 15.9L29.8359 15L29.7328 14.8H27.2595C27.1565 14.8 27.0534 14.8 27.0534 15L26.7443 15.9C26.7443 16 26.6412 16 26.6412 16H24.4771L24.6832 15.5L27.6718 8.7C27.6718 8.2 27.9809 8 28.4962 8H30.042C30.145 8 30.2481 8 30.2481 8.2L31.6908 14.7C31.7939 15.1 31.8969 15.4 31.8969 15.8C32 15.9 32 15.9 32 16ZM18.1908 15.7L18.6031 13.9C18.7061 13.9 18.8092 14 18.8092 14C19.5305 14.3 20.2519 14.5 20.9733 14.4C21.1794 14.4 21.4885 14.3 21.6947 14.2C22.2099 14 22.2099 13.5 21.7977 13.1C21.5916 12.9 21.2824 12.8 20.9733 12.6C20.5611 12.4 20.1489 12.2 19.8397 11.9C18.6031 10.9 19.0153 9.5 19.7366 8.8C20.355 8.4 20.6641 8 21.4885 8C22.7252 8 24.0649 8 24.6832 8.2H24.7863C24.6832 8.8 24.5802 9.3 24.374 9.9C23.8588 9.7 23.3435 9.5 22.8282 9.5C22.5191 9.5 22.2099 9.5 21.9008 9.6C21.6947 9.6 21.5916 9.7 21.4885 9.8C21.2824 10 21.2824 10.3 21.4885 10.5L22.0038 10.9C22.416 11.1 22.8282 11.3 23.1374 11.5C23.6527 11.8 24.1679 12.3 24.271 12.9C24.4771 13.8 24.1679 14.6 23.3435 15.2C22.8282 15.6 22.6221 15.8 21.9008 15.8C20.458 15.8 19.3244 15.9 18.3969 15.6C18.2939 15.8 18.2939 15.8 18.1908 15.7ZM14.584 16C14.687 15.3 14.687 15.3 14.7901 15C15.3053 12.8 15.8206 10.5 16.2328 8.3C16.3359 8.1 16.3359 8 16.542 8H18.3969C18.1908 9.2 17.9847 10.1 17.6756 11.2C17.3664 12.7 17.0573 14.2 16.645 15.7C16.645 15.9 16.542 15.9 16.3359 15.9M5 8.2C5 8.1 5.20611 8 5.30916 8H8.81298C9.32824 8 9.74046 8.3 9.84351 8.8L10.771 13.2C10.771 13.3 10.771 13.3 10.874 13.4C10.874 13.3 10.9771 13.3 10.9771 13.3L13.1412 8.2C13.0382 8.1 13.1412 8 13.2443 8H15.4084C15.4084 8.1 15.4084 8.1 15.3053 8.2L12.1107 15.5C12.0076 15.7 12.0076 15.8 11.9046 15.9C11.8015 16 11.5954 15.9 11.3893 15.9H9.84351C9.74046 15.9 9.6374 15.9 9.6374 15.7L7.98855 9.5C7.78244 9.3 7.47328 9 7.06107 8.9C6.44275 8.6 5.30916 8.4 5.10305 8.4L5 8.2Z" fill="#142688"/>
</svg>
